<?xml version="1.0" encoding="UTF-8" standalone="no"?>
<svg width="188px" height="128px" viewBox="0 0 188 128" version="1.1" xmlns="http://www.w3.org/2000/svg" xmlns:xlink="http://www.w3.org/1999/xlink" xmlns:sketch="http://www.bohemiancoding.com/sketch/ns">
    <!-- Generator: Sketch 3.5.1 (25234) - http://www.bohemiancoding.com/sketch -->
    <title>Literasee_IO</title>
    <desc>Created with Sketch.</desc>
    <defs></defs>
    <g id="Page-1" stroke="none" stroke-width="1" fill="none" fill-rule="evenodd" sketch:type="MSPage">
        <g id="Literasee_IO" sketch:type="MSLayerGroup">
            <g id="Group" transform="translate(0.000000, 99.000000)" sketch:type="MSShapeGroup">
                <path d="M5.185,24.848 C5.724,24.902 6.258,24.938 6.792,24.963 C7.323,24.99 7.854,25.002 8.38,25.002 C10.227,25.002 11.683,24.918 12.748,24.751 C13.813,24.585 14.692,24.315 15.386,23.943 C15.642,24.38 15.831,24.798 15.953,25.204 C16.075,25.608 16.137,26.016 16.137,26.426 C16.137,27.042 15.912,27.473 15.463,27.716 C15.013,27.96 14.173,28.081 12.942,28.081 C12.505,28.081 11.677,28.061 10.459,28.022 C9.239,27.984 8.246,27.965 7.474,27.965 C6.385,27.965 5.287,27.99 4.183,28.041 C3.079,28.092 2.521,28.117 2.508,28.117 C2.072,28.117 1.764,28.014 1.585,27.808 C1.404,27.604 1.315,27.245 1.315,26.731 C1.315,26.474 1.347,25.806 1.411,24.729 C1.643,20.662 1.758,16.799 1.758,13.142 C1.758,9.704 1.661,7.067 1.469,5.231 C1.277,3.396 0.961,2.076 0.526,1.266 C1.117,0.946 1.678,0.703 2.21,0.536 C2.743,0.368 3.259,0.285 3.76,0.285 C4.479,0.285 4.968,0.469 5.232,0.834 C5.495,1.2 5.628,1.954 5.628,3.097 C5.628,3.43 5.595,4.315 5.531,5.753 C5.299,11.257 5.185,16.453 5.185,21.343 L5.185,24.848 L5.185,24.848 Z" id="Shape" fill="#0696A6"></path>
                <path d="M23.663,27.177 C23.123,27.473 22.611,27.692 22.123,27.832 C21.635,27.973 21.166,28.043 20.717,28.043 C20.089,28.043 19.662,27.873 19.438,27.533 C19.213,27.193 19.101,26.51 19.101,25.483 C19.101,24.891 19.159,23.572 19.274,21.516 C19.389,19.463 19.447,17.7 19.447,16.223 C19.447,14.619 19.37,13.317 19.216,12.318 C19.063,11.316 18.812,10.464 18.465,9.756 C18.941,9.474 19.428,9.258 19.928,9.111 C20.429,8.964 20.924,8.888 21.411,8.888 C22,8.888 22.405,9.033 22.623,9.323 C22.841,9.61 22.95,10.147 22.95,10.928 C22.95,11.133 22.892,12.256 22.777,14.296 C22.662,16.336 22.605,18.275 22.605,20.109 C22.605,21.83 22.691,23.254 22.864,24.381 C23.037,25.516 23.302,26.445 23.663,27.177 L23.663,27.177 Z M23.508,3.021 C23.508,3.751 23.251,4.362 22.739,4.848 C22.225,5.335 21.577,5.58 20.795,5.58 C20.114,5.58 19.575,5.388 19.177,5.003 C18.78,4.617 18.581,4.097 18.581,3.443 C18.581,2.723 18.838,2.112 19.351,1.604 C19.865,1.096 20.487,0.843 21.219,0.843 C21.885,0.843 22.434,1.049 22.865,1.459 C23.294,1.872 23.508,2.393 23.508,3.021 L23.508,3.021 Z" id="Shape" fill="#0696A6"></path>
                <path d="M30.053,12.605 C29.834,12.605 29.533,12.616 29.147,12.634 C28.762,12.654 28.513,12.662 28.396,12.662 C27.87,12.662 27.501,12.589 27.291,12.44 C27.079,12.294 26.973,12.04 26.973,11.679 C26.973,11.513 27.001,11.318 27.06,11.092 C27.118,10.867 27.211,10.613 27.339,10.331 C27.442,10.331 27.614,10.337 27.858,10.352 C28.102,10.365 28.295,10.372 28.436,10.372 C28.77,10.372 29.303,10.352 30.033,10.313 C30.123,10.313 30.195,10.306 30.245,10.292 C30.245,10.151 30.251,9.939 30.265,9.658 C30.277,9.375 30.284,9.17 30.284,9.042 C30.284,8.04 30.219,7.158 30.092,6.396 C29.963,5.631 29.764,4.96 29.495,4.383 C30.047,4.113 30.541,3.907 30.977,3.768 C31.413,3.626 31.786,3.555 32.094,3.555 C32.619,3.555 33.001,3.718 33.239,4.046 C33.475,4.373 33.595,4.909 33.595,5.653 C33.595,5.973 33.537,6.981 33.422,8.674 C33.384,9.302 33.351,9.802 33.326,10.174 C34.07,10.071 34.741,9.994 35.337,9.944 C35.935,9.893 36.469,9.868 36.945,9.868 C37.369,9.868 37.673,9.944 37.859,10.098 C38.045,10.251 38.139,10.502 38.139,10.85 C38.139,11.04 38.082,11.283 37.966,11.571 C37.851,11.86 37.684,12.184 37.466,12.544 C37.132,12.466 36.778,12.409 36.407,12.37 C36.035,12.331 35.585,12.313 35.06,12.313 C34.97,12.313 34.7,12.322 34.251,12.34 C33.802,12.36 33.418,12.374 33.096,12.388 C32.982,14.392 32.898,16.039 32.846,17.334 C32.795,18.631 32.769,19.688 32.769,20.511 C32.769,22.294 32.926,23.542 33.241,24.255 C33.555,24.967 34.084,25.321 34.828,25.321 C35.034,25.321 35.248,25.284 35.473,25.207 C35.697,25.13 35.926,25.008 36.157,24.841 C36.273,25.098 36.357,25.321 36.407,25.516 C36.458,25.707 36.485,25.881 36.485,26.035 C36.485,26.665 36.224,27.182 35.705,27.586 C35.186,27.99 34.508,28.192 33.674,28.192 C32.289,28.192 31.258,27.733 30.585,26.816 C29.912,25.899 29.575,24.49 29.575,22.589 C29.575,22.05 29.638,20.623 29.767,18.307 C29.892,15.996 29.988,14.095 30.053,12.605 L30.053,12.605 Z" id="Shape" fill="#0696A6"></path>
                <path d="M55.171,23.981 C55.454,24.329 55.662,24.652 55.796,24.953 C55.931,25.255 55.998,25.547 55.998,25.829 C55.998,26.52 55.482,27.09 54.449,27.533 C53.416,27.974 52.065,28.197 50.398,28.197 C47.331,28.197 44.928,27.359 43.189,25.684 C41.45,24.009 40.581,21.698 40.581,18.746 C40.581,15.768 41.457,13.333 43.208,11.44 C44.959,9.547 47.209,8.6 49.955,8.6 C52.072,8.6 53.811,9.204 55.171,10.411 C56.531,11.618 57.211,13.157 57.211,15.03 C57.211,16.506 56.646,17.557 55.517,18.186 C54.389,18.816 52.469,19.128 49.762,19.128 C48.749,19.128 47.738,19.093 46.731,19.024 C45.724,18.954 44.727,18.846 43.738,18.707 L43.738,18.977 C43.738,20.978 44.328,22.565 45.509,23.731 C46.69,24.901 48.293,25.484 50.321,25.484 C51.27,25.484 52.149,25.359 52.958,25.109 C53.767,24.857 54.503,24.481 55.171,23.981 L55.171,23.981 Z M43.97,16.417 C44.817,16.559 45.749,16.665 46.769,16.735 C47.789,16.804 48.89,16.839 50.07,16.839 C51.674,16.839 52.747,16.693 53.285,16.398 C53.824,16.101 54.093,15.57 54.093,14.799 C54.093,13.631 53.689,12.708 52.881,12.028 C52.072,11.347 50.968,11.007 49.569,11.007 C48.08,11.007 46.842,11.484 45.854,12.432 C44.867,13.383 44.239,14.711 43.97,16.417 L43.97,16.417 Z" id="Shape" fill="#0696A6"></path>
                <path d="M64.429,12.896 C65.392,11.547 66.309,10.542 67.181,9.881 C68.054,9.221 68.913,8.891 69.761,8.891 C70.479,8.891 71.093,9.12 71.599,9.575 C72.106,10.032 72.359,10.593 72.359,11.26 C72.359,11.698 72.214,12.123 71.926,12.539 C71.636,12.958 71.204,13.371 70.626,13.782 C70.42,13.217 70.167,12.8 69.865,12.53 C69.564,12.259 69.202,12.126 68.778,12.126 C68.15,12.126 67.488,12.439 66.796,13.06 C66.104,13.682 65.423,14.579 64.756,15.746 C64.692,16.324 64.641,16.911 64.602,17.507 C64.563,18.105 64.544,18.686 64.544,19.249 C64.544,21.175 64.65,22.779 64.861,24.062 C65.072,25.345 65.403,26.398 65.852,27.219 C65.34,27.49 64.836,27.695 64.342,27.835 C63.847,27.976 63.363,28.046 62.888,28.046 C62.259,28.046 61.826,27.889 61.589,27.573 C61.35,27.26 61.232,26.628 61.232,25.677 C61.232,25.329 61.299,23.999 61.434,21.683 C61.568,19.368 61.636,17.214 61.636,15.225 C61.636,13.596 61.573,12.345 61.445,11.473 C61.316,10.599 61.104,9.83 60.809,9.162 C61.065,9.072 61.319,9.005 61.569,8.96 C61.82,8.915 62.079,8.893 62.349,8.893 C63.094,8.893 63.645,9.071 64.004,9.422 C64.364,9.776 64.544,10.318 64.544,11.048 C64.544,11.215 64.534,11.444 64.516,11.733 C64.496,12.02 64.468,12.408 64.429,12.896 L64.429,12.896 Z" id="Shape" fill="#0696A6"></path>
                <path d="M90.568,27.022 C90.068,27.342 89.611,27.585 89.201,27.752 C88.791,27.92 88.432,28.003 88.124,28.003 C87.571,28.003 87.171,27.832 86.92,27.492 C86.67,27.152 86.526,26.602 86.488,25.846 C85.525,26.667 84.572,27.278 83.63,27.674 C82.687,28.071 81.727,28.273 80.752,28.273 C78.827,28.273 77.274,27.734 76.094,26.655 C74.914,25.578 74.323,24.16 74.323,22.401 C74.323,20.414 75.134,18.819 76.758,17.619 C78.381,16.42 80.565,15.82 83.311,15.82 C83.76,15.82 84.238,15.836 84.745,15.867 C85.252,15.899 85.794,15.948 86.371,16.012 C86.397,15.897 86.413,15.78 86.42,15.658 C86.426,15.536 86.429,15.39 86.429,15.223 C86.429,13.888 86.054,12.872 85.304,12.172 C84.554,11.473 83.466,11.123 82.041,11.123 C80.861,11.123 79.889,11.319 79.124,11.71 C78.361,12.102 77.742,12.709 77.268,13.529 C76.806,13.414 76.456,13.215 76.219,12.932 C75.98,12.649 75.862,12.284 75.862,11.834 C75.862,10.897 76.456,10.124 77.643,9.514 C78.829,8.907 80.379,8.6 82.29,8.6 C84.638,8.6 86.4,9.167 87.574,10.304 C88.748,11.44 89.335,13.136 89.335,15.394 C89.335,15.82 89.316,16.556 89.278,17.609 C89.239,18.662 89.22,19.507 89.22,20.15 C89.22,21.921 89.326,23.344 89.537,24.422 C89.75,25.502 90.093,26.369 90.568,27.022 L90.568,27.022 Z M86.333,18.457 C85.743,18.367 85.213,18.3 84.745,18.255 C84.277,18.21 83.876,18.189 83.542,18.189 C81.553,18.189 80.052,18.519 79.039,19.18 C78.025,19.84 77.518,20.826 77.518,22.134 C77.518,23.188 77.871,24.015 78.577,24.616 C79.282,25.22 80.257,25.521 81.503,25.521 C82.44,25.521 83.316,25.343 84.13,24.992 C84.945,24.638 85.693,24.11 86.372,23.404 C86.346,22.761 86.331,22.239 86.325,21.836 C86.318,21.432 86.315,21.044 86.315,20.671 C86.315,20.442 86.321,20.077 86.334,19.583 C86.346,19.09 86.346,18.714 86.333,18.457 L86.333,18.457 Z" id="Shape" fill="#0696A6"></path>
                <path d="M95.091,24.963 C95.553,25.207 95.996,25.387 96.419,25.502 C96.842,25.618 97.253,25.676 97.651,25.676 C98.575,25.676 99.318,25.454 99.883,25.011 C100.448,24.57 100.73,23.99 100.73,23.27 C100.73,22.707 100.577,22.179 100.269,21.692 C99.961,21.205 99.383,20.615 98.537,19.921 C98.395,19.818 98.203,19.665 97.96,19.46 C95.791,17.662 94.707,16.072 94.707,14.686 C94.707,14.123 94.816,13.558 95.035,12.994 C95.254,12.429 95.574,11.89 95.997,11.377 C96.806,10.415 97.751,9.681 98.836,9.173 C99.92,8.667 101.09,8.413 102.35,8.413 C102.966,8.413 103.433,8.532 103.754,8.767 C104.075,9.005 104.234,9.349 104.234,9.797 C104.234,10.016 104.176,10.276 104.06,10.577 C103.946,10.879 103.752,11.26 103.484,11.722 C103.136,11.58 102.809,11.475 102.502,11.406 C102.194,11.336 101.893,11.301 101.599,11.301 C100.535,11.301 99.671,11.56 99.01,12.08 C98.349,12.6 98.019,13.268 98.019,14.092 C98.019,14.989 98.911,16.201 100.694,17.73 C101.143,18.116 101.484,18.417 101.715,18.634 C102.472,19.301 103.029,19.96 103.389,20.608 C103.749,21.256 103.929,21.92 103.929,22.599 C103.929,24.203 103.22,25.585 101.802,26.747 C100.384,27.908 98.661,28.488 96.635,28.488 C95.929,28.488 95.386,28.345 95.009,28.064 C94.63,27.784 94.44,27.384 94.44,26.872 C94.44,26.628 94.492,26.358 94.595,26.062 C94.693,25.765 94.861,25.399 95.091,24.963 L95.091,24.963 Z" id="Shape" fill="#BCC831"></path>
                <path d="M121.903,23.981 C122.185,24.329 122.393,24.652 122.529,24.953 C122.665,25.255 122.732,25.547 122.732,25.829 C122.732,26.52 122.213,27.09 121.181,27.533 C120.149,27.974 118.797,28.197 117.129,28.197 C114.063,28.197 111.659,27.359 109.921,25.684 C108.182,24.009 107.314,21.698 107.314,18.746 C107.314,15.768 108.19,13.333 109.942,11.44 C111.693,9.547 113.941,8.6 116.687,8.6 C118.803,8.6 120.542,9.204 121.903,10.411 C123.262,11.617 123.944,13.157 123.944,15.03 C123.944,16.506 123.38,17.557 122.251,18.186 C121.121,18.816 119.202,19.128 116.495,19.128 C115.481,19.128 114.472,19.093 113.463,19.024 C112.457,18.954 111.459,18.846 110.471,18.707 L110.471,18.977 C110.471,20.978 111.061,22.565 112.242,23.731 C113.423,24.901 115.027,25.484 117.054,25.484 C118.004,25.484 118.883,25.359 119.693,25.109 C120.499,24.857 121.236,24.481 121.903,23.981 L121.903,23.981 Z M110.702,16.417 C111.549,16.559 112.482,16.665 113.502,16.735 C114.523,16.804 115.623,16.839 116.803,16.839 C118.407,16.839 119.479,16.693 120.018,16.398 C120.557,16.101 120.828,15.57 120.828,14.799 C120.828,13.631 120.424,12.708 119.615,12.028 C118.805,11.347 117.703,11.007 116.304,11.007 C114.815,11.007 113.575,11.484 112.588,12.432 C111.6,13.383 110.972,14.711 110.702,16.417 L110.702,16.417 Z" id="Shape" fill="#BCC831"></path>
                <path d="M141.268,23.981 C141.55,24.329 141.758,24.652 141.893,24.953 C142.03,25.255 142.096,25.547 142.096,25.829 C142.096,26.52 141.578,27.09 140.546,27.533 C139.513,27.974 138.162,28.197 136.494,28.197 C133.427,28.197 131.024,27.359 129.286,25.684 C127.547,24.009 126.678,21.698 126.678,18.746 C126.678,15.768 127.554,13.333 129.306,11.44 C131.057,9.547 133.306,8.6 136.052,8.6 C138.168,8.6 139.907,9.204 141.268,10.411 C142.627,11.617 143.308,13.157 143.308,15.03 C143.308,16.506 142.745,17.557 141.616,18.186 C140.487,18.816 138.568,19.128 135.86,19.128 C134.845,19.128 133.837,19.093 132.829,19.024 C131.822,18.954 130.824,18.846 129.836,18.707 L129.836,18.977 C129.836,20.978 130.427,22.565 131.607,23.731 C132.788,24.901 134.391,25.484 136.42,25.484 C137.369,25.484 138.249,25.359 139.057,25.109 C139.862,24.857 140.601,24.481 141.268,23.981 L141.268,23.981 Z M130.065,16.417 C130.912,16.559 131.844,16.665 132.866,16.735 C133.886,16.804 134.986,16.839 136.167,16.839 C137.771,16.839 138.843,16.693 139.381,16.398 C139.92,16.101 140.192,15.57 140.192,14.799 C140.192,13.631 139.787,12.708 138.978,12.028 C138.168,11.347 137.066,11.007 135.667,11.007 C134.178,11.007 132.939,11.484 131.952,12.432 C130.963,13.383 130.335,14.711 130.065,16.417 L130.065,16.417 Z" id="Shape" fill="#BCC831"></path>
                <path d="M152.701,25.753 C152.701,26.459 152.429,27.055 151.884,27.542 C151.338,28.029 150.66,28.274 149.853,28.274 C149.134,28.274 148.541,28.05 148.074,27.609 C147.606,27.167 147.371,26.587 147.371,25.868 C147.371,25.097 147.632,24.472 148.151,23.991 C148.67,23.51 149.346,23.268 150.18,23.268 C150.963,23.268 151.578,23.49 152.029,23.931 C152.477,24.376 152.701,24.982 152.701,25.753 L152.701,25.753 Z" id="Shape" fill="#0696A6"></path>
                <path d="M163.346,27.177 C162.806,27.473 162.293,27.692 161.805,27.832 C161.319,27.973 160.85,28.043 160.402,28.043 C159.773,28.043 159.345,27.873 159.122,27.533 C158.899,27.193 158.785,26.51 158.785,25.483 C158.785,24.891 158.843,23.572 158.959,21.516 C159.074,19.463 159.132,17.7 159.132,16.223 C159.132,14.619 159.055,13.317 158.902,12.318 C158.749,11.316 158.499,10.464 158.152,9.756 C158.626,9.474 159.115,9.258 159.615,9.111 C160.115,8.964 160.609,8.888 161.095,8.888 C161.685,8.888 162.09,9.033 162.308,9.323 C162.527,9.61 162.635,10.147 162.635,10.928 C162.635,11.133 162.577,12.256 162.462,14.296 C162.346,16.336 162.289,18.275 162.289,20.109 C162.289,21.83 162.375,23.254 162.549,24.381 C162.719,25.516 162.985,26.445 163.346,27.177 L163.346,27.177 Z M163.191,3.021 C163.191,3.751 162.933,4.362 162.42,4.848 C161.907,5.335 161.259,5.58 160.476,5.58 C159.796,5.58 159.257,5.388 158.861,5.003 C158.463,4.617 158.263,4.097 158.263,3.443 C158.263,2.723 158.52,2.112 159.034,1.604 C159.548,1.096 160.17,0.843 160.901,0.843 C161.568,0.843 162.117,1.049 162.547,1.459 C162.977,1.872 163.191,2.393 163.191,3.021 L163.191,3.021 Z" id="Shape" fill="#0696A6"></path>
                <path d="M177.3,28.523 C174.323,28.523 171.899,27.607 170.026,25.771 C168.152,23.936 167.214,21.583 167.214,18.708 C167.214,15.653 168.215,13.174 170.216,11.269 C172.219,9.364 174.818,8.412 178.012,8.412 C180.9,8.412 183.278,9.316 185.144,11.126 C187.01,12.937 187.945,15.226 187.945,17.998 C187.945,19.114 187.767,20.218 187.416,21.309 C187.062,22.4 186.586,23.33 185.982,24.1 C184.838,25.577 183.546,26.681 182.103,27.42 C180.659,28.155 179.058,28.523 177.3,28.523 L177.3,28.523 Z M177.53,25.753 C179.609,25.753 181.312,25.057 182.639,23.664 C183.967,22.272 184.631,20.485 184.631,18.304 C184.631,16.174 183.981,14.439 182.678,13.098 C181.375,11.757 179.685,11.086 177.607,11.086 C175.49,11.086 173.78,11.781 172.477,13.174 C171.174,14.568 170.524,16.411 170.524,18.708 C170.524,20.748 171.184,22.433 172.505,23.761 C173.828,25.088 175.503,25.753 177.53,25.753 L177.53,25.753 Z" id="Shape" fill="#0696A6"></path>
            </g>
            <path d="M143.008,91.593 C143.008,91.593 123.59,86.974 105.66,85.812 C89.389,84.757 47.154,85.383 47.154,85.383 C47.154,85.383 110.058,88.601 143.008,91.593 L143.008,91.593 Z" id="Shape" fill="#808083" sketch:type="MSShapeGroup"></path>
            <path d="M80.648,57.238 C80.648,57.238 87.7,55.694 92.881,59.055 L97.027,51.467 L84.841,19.148 C84.841,19.148 76.834,28.251 75.575,38.092 C75.576,38.094 73.364,47.987 80.648,57.238 L80.648,57.238 Z" id="Shape" fill="#0696A6" sketch:type="MSShapeGroup"></path>
            <path d="M104.364,70.995 C104.364,70.995 102.203,64.107 96.712,61.277 L101.24,53.914 L135.345,48.449 C135.345,48.449 131.417,59.917 123.499,65.896 C123.501,65.896 116.01,72.728 104.364,70.995 L104.364,70.995 Z" id="Shape" fill="#BCC831" sketch:type="MSShapeGroup"></path>
            <path d="M100.328,45.25 L107.208,33.401 L100.714,9.131 C100.714,9.131 92.574,11.993 87.785,16.432 L100.328,45.25 L100.328,45.25 Z" id="Shape" fill="#0696A6" sketch:type="MSShapeGroup"></path>
            <path d="M104.764,47.775 L111.445,35.813 L135.633,29.018 C135.633,29.018 137.323,37.478 135.948,43.863 L104.764,47.775 L104.764,47.775 Z" id="Shape" fill="#BCC831" sketch:type="MSShapeGroup"></path>
            <path d="M104.242,7.876 L110.568,26.864 L127.54,0.229 L104.242,7.876 Z" id="Shape" fill="#0696A6" sketch:type="MSShapeGroup"></path>
            <path d="M134.87,24.896 L115.408,28.813 L129.967,1.073 L134.87,24.896 Z" id="Shape" fill="#BCC831" sketch:type="MSShapeGroup"></path>
            <path d="M81.538,82.204 L92.089,77.006 C92.089,77.006 94.032,75.99 91.256,73.556 C91.256,73.556 88.539,69.762 82.535,69.32 C82.535,69.32 81.066,69.126 81.128,70.787 L81.126,82.206" id="Shape" fill="#808083" sketch:type="MSShapeGroup"></path>
        </g>
    </g>
</svg>