<?xml version="1.0" encoding="utf-8"?>
<!-- Generator: Adobe Illustrator 16.0.0, SVG Export Plug-In . SVG Version: 6.00 Build 0)  -->
<!DOCTYPE svg PUBLIC "-//W3C//DTD SVG 1.1//EN" "http://www.w3.org/Graphics/SVG/1.1/DTD/svg11.dtd">
<svg version="1.1" id="Layer_1" xmlns="http://www.w3.org/2000/svg" xmlns:xlink="http://www.w3.org/1999/xlink" x="0px" y="0px"
	 width="612px" height="792px" viewBox="190 365 612 792" enable-background="new 190 365 612 792" xml:space="preserve">
<g>
	<g>
		<path fill="#0696A6" d="M281.744,431.722c0.603,0.059,1.201,0.101,1.798,0.128c0.594,0.031,1.188,0.044,1.776,0.044
			c2.066,0,3.694-0.094,4.886-0.279c1.191-0.187,2.174-0.488,2.951-0.903c0.286,0.488,0.498,0.957,0.635,1.41
			c0.136,0.452,0.205,0.907,0.205,1.366c0,0.688-0.251,1.171-0.754,1.441c-0.504,0.273-1.443,0.409-2.82,0.409
			c-0.488,0-1.415-0.021-2.777-0.063c-1.364-0.045-2.476-0.063-3.338-0.063c-1.219,0-2.446,0.028-3.681,0.085
			c-1.235,0.058-1.859,0.085-1.874,0.085c-0.487,0-0.832-0.113-1.032-0.344c-0.203-0.229-0.301-0.631-0.301-1.205
			c0-0.287,0.035-1.034,0.106-2.238c0.26-4.551,0.389-8.87,0.389-12.961c0-3.846-0.109-6.797-0.324-8.849
			c-0.215-2.054-0.568-3.53-1.055-4.437c0.661-0.358,1.288-0.631,1.883-0.817c0.596-0.188,1.173-0.279,1.733-0.279
			c0.805,0,1.352,0.204,1.646,0.613s0.443,1.253,0.443,2.529c0,0.373-0.037,1.363-0.108,2.973
			c-0.259,6.155-0.387,11.969-0.387,17.438V431.722L281.744,431.722z"/>
		<path fill="#0696A6" d="M302.412,434.326c-0.604,0.331-1.176,0.575-1.722,0.732s-1.07,0.235-1.572,0.235
			c-0.703,0-1.18-0.188-1.431-0.57c-0.252-0.38-0.377-1.145-0.377-2.292c0-0.661,0.064-2.139,0.194-4.437
			c0.128-2.296,0.194-4.271,0.194-5.92c0-1.794-0.086-3.252-0.259-4.369c-0.171-1.121-0.452-2.075-0.84-2.864
			c0.532-0.315,1.077-0.558,1.636-0.722c0.561-0.165,1.114-0.248,1.659-0.248c0.66,0,1.111,0.161,1.355,0.485
			c0.244,0.32,0.366,0.923,0.366,1.797c0,0.229-0.065,1.485-0.194,3.768s-0.193,4.448-0.193,6.502c0,1.925,0.096,3.518,0.29,4.779
			C301.712,432.469,302.009,433.508,302.412,434.326z M302.239,407.307c0,0.818-0.287,1.5-0.86,2.045
			c-0.575,0.546-1.299,0.819-2.174,0.819c-0.762,0-1.365-0.215-1.81-0.646c-0.445-0.432-0.667-1.014-0.667-1.744
			c0-0.805,0.288-1.488,0.861-2.058c0.575-0.565,1.271-0.85,2.089-0.85c0.746,0,1.359,0.23,1.84,0.689
			C302,406.021,302.239,406.604,302.239,407.307z"/>
		<path fill="#0696A6" d="M309.56,418.028c-0.244,0-0.582,0.012-1.013,0.034c-0.431,0.02-0.71,0.03-0.841,0.03
			c-0.588,0-1-0.082-1.236-0.248c-0.236-0.164-0.355-0.447-0.355-0.85c0-0.187,0.032-0.406,0.098-0.657
			c0.064-0.251,0.168-0.535,0.313-0.851c0.114,0,0.308,0.007,0.581,0.021c0.271,0.015,0.487,0.022,0.646,0.022
			c0.374,0,0.971-0.022,1.786-0.066c0.102,0,0.181-0.007,0.238-0.021c0-0.157,0.007-0.396,0.021-0.708
			c0.014-0.318,0.021-0.548,0.021-0.69c0-1.12-0.072-2.105-0.216-2.96c-0.145-0.854-0.366-1.604-0.668-2.25
			c0.618-0.302,1.171-0.531,1.658-0.688c0.486-0.158,0.905-0.237,1.249-0.237c0.588,0,1.016,0.182,1.28,0.549
			c0.265,0.366,0.397,0.966,0.397,1.798c0,0.359-0.063,1.485-0.193,3.381c-0.042,0.702-0.079,1.263-0.107,1.679
			c0.832-0.115,1.583-0.201,2.249-0.26c0.669-0.057,1.268-0.086,1.799-0.086c0.476,0,0.814,0.086,1.021,0.261
			c0.208,0.172,0.313,0.451,0.313,0.84c0,0.215-0.063,0.483-0.193,0.806c-0.129,0.323-0.314,0.688-0.56,1.089
			c-0.375-0.088-0.77-0.149-1.185-0.194c-0.417-0.045-0.92-0.063-1.507-0.063c-0.103,0-0.403,0.01-0.905,0.031
			c-0.502,0.021-0.933,0.038-1.292,0.054c-0.128,2.24-0.222,4.084-0.279,5.532c-0.057,1.451-0.086,2.634-0.086,3.554
			c0,1.994,0.177,3.391,0.527,4.188c0.352,0.796,0.943,1.192,1.775,1.192c0.229,0,0.47-0.042,0.722-0.128
			c0.25-0.086,0.506-0.224,0.764-0.409c0.131,0.286,0.225,0.537,0.281,0.753c0.057,0.217,0.086,0.409,0.086,0.58
			c0,0.705-0.292,1.283-0.873,1.734c-0.58,0.452-1.338,0.679-2.271,0.679c-1.55,0-2.701-0.514-3.455-1.539
			c-0.752-1.025-1.129-2.602-1.129-4.727c0-0.604,0.069-2.198,0.214-4.79C309.38,421.82,309.487,419.693,309.56,418.028z"/>
		<path fill="#0696A6" d="M337.655,430.752c0.314,0.389,0.549,0.751,0.698,1.087c0.15,0.338,0.227,0.664,0.227,0.98
			c0,0.773-0.577,1.409-1.733,1.904c-1.154,0.495-2.666,0.743-4.529,0.743c-3.432,0-6.118-0.938-8.063-2.81
			c-1.945-1.873-2.917-4.459-2.917-7.761c0-3.329,0.979-6.056,2.938-8.173c1.959-2.115,4.475-3.176,7.547-3.176
			c2.367,0,4.313,0.677,5.834,2.024c1.521,1.35,2.282,3.072,2.282,5.166c0,1.65-0.634,2.829-1.896,3.531
			c-1.262,0.703-3.409,1.055-6.438,1.055c-1.133,0-2.264-0.039-3.391-0.117c-1.126-0.079-2.241-0.197-3.347-0.355v0.303
			c0,2.236,0.66,4.012,1.979,5.314c1.32,1.31,3.113,1.962,5.383,1.962c1.062,0,2.045-0.14,2.949-0.42
			C336.084,431.732,336.908,431.313,337.655,430.752z M325.126,422.291c0.947,0.158,1.989,0.277,3.131,0.355
			c1.142,0.079,2.372,0.118,3.692,0.118c1.794,0,2.993-0.165,3.596-0.495c0.604-0.33,0.904-0.927,0.904-1.786
			c0-1.308-0.452-2.34-1.355-3.102c-0.904-0.761-2.139-1.143-3.704-1.143c-1.665,0-3.05,0.532-4.154,1.594
			C326.13,418.897,325.427,420.383,325.126,422.291z"/>
		<path fill="#0696A6" d="M348.01,418.353c1.077-1.508,2.104-2.632,3.079-3.37c0.978-0.738,1.938-1.108,2.885-1.108
			c0.805,0,1.49,0.255,2.058,0.764c0.566,0.513,0.85,1.14,0.85,1.886c0,0.487-0.161,0.966-0.482,1.432
			c-0.324,0.468-0.809,0.93-1.453,1.39c-0.231-0.633-0.516-1.099-0.853-1.399s-0.742-0.452-1.217-0.452
			c-0.702,0-1.442,0.349-2.217,1.044c-0.774,0.696-1.535,1.698-2.282,3.003c-0.072,0.646-0.129,1.304-0.172,1.97
			c-0.044,0.668-0.064,1.318-0.064,1.949c0,2.153,0.119,3.948,0.354,5.383c0.237,1.436,0.606,2.612,1.109,3.531
			c-0.573,0.302-1.138,0.531-1.689,0.689c-0.553,0.156-1.096,0.234-1.626,0.234c-0.704,0-1.188-0.176-1.452-0.528
			c-0.268-0.351-0.398-1.058-0.398-2.118c0-0.39,0.074-1.877,0.226-4.469c0.151-2.591,0.227-4.998,0.227-7.223
			c0-1.822-0.07-3.222-0.215-4.197c-0.145-0.978-0.382-1.838-0.712-2.584c0.287-0.101,0.571-0.176,0.852-0.227
			c0.279-0.051,0.57-0.076,0.872-0.076c0.833,0,1.449,0.198,1.852,0.593c0.403,0.396,0.604,1,0.604,1.819
			c0,0.186-0.011,0.439-0.031,0.764C348.085,417.372,348.054,417.808,348.01,418.353z"/>
		<path fill="#0696A6" d="M377.248,434.153c-0.561,0.359-1.071,0.632-1.529,0.817c-0.459,0.188-0.858,0.28-1.205,0.28
			c-0.617,0-1.065-0.191-1.347-0.571c-0.279-0.38-0.44-0.993-0.483-1.84c-1.077,0.919-2.145,1.601-3.196,2.045
			c-1.056,0.444-2.128,0.669-3.221,0.669c-2.15,0-3.889-0.604-5.209-1.811c-1.319-1.205-1.98-2.791-1.98-4.758
			c0-2.224,0.907-4.007,2.724-5.351c1.815-1.341,4.259-2.012,7.331-2.012c0.501,0,1.036,0.017,1.604,0.053
			c0.566,0.035,1.173,0.091,1.818,0.161c0.029-0.129,0.049-0.261,0.056-0.396c0.007-0.137,0.01-0.3,0.01-0.484
			c0-1.494-0.418-2.63-1.26-3.413c-0.839-0.782-2.056-1.173-3.649-1.173c-1.32,0-2.406,0.219-3.263,0.656
			c-0.854,0.438-1.545,1.116-2.075,2.034c-0.517-0.13-0.909-0.353-1.173-0.665c-0.269-0.318-0.399-0.729-0.399-1.229
			c0-1.048,0.663-1.912,1.992-2.596c1.326-0.682,3.062-1.022,5.198-1.022c2.627,0,4.598,0.635,5.91,1.906
			c1.313,1.27,1.97,3.168,1.97,5.693c0,0.476-0.021,1.3-0.064,2.477s-0.063,2.124-0.063,2.842c0,1.98,0.119,3.574,0.354,4.78
			S376.716,433.423,377.248,434.153z M372.511,424.573c-0.66-0.102-1.252-0.177-1.775-0.228s-0.973-0.074-1.347-0.074
			c-2.225,0-3.901,0.369-5.037,1.108c-1.135,0.739-1.699,1.842-1.699,3.305c0,1.178,0.395,2.104,1.185,2.776
			c0.787,0.677,1.878,1.013,3.271,1.013c1.047,0,2.027-0.196,2.938-0.592c0.912-0.396,1.748-0.985,2.508-1.775
			c-0.027-0.719-0.046-1.305-0.054-1.755c-0.007-0.451-0.011-0.886-0.011-1.303c0-0.259,0.007-0.665,0.021-1.218
			C372.525,425.28,372.525,424.86,372.511,424.573z"/>
		<path fill="#BCC831" d="M382.307,431.85c0.519,0.273,1.013,0.476,1.485,0.604c0.474,0.131,0.934,0.195,1.378,0.195
			c1.034,0,1.866-0.248,2.497-0.744c0.632-0.494,0.947-1.145,0.947-1.947c0-0.632-0.171-1.221-0.517-1.767
			c-0.344-0.546-0.989-1.204-1.938-1.98c-0.159-0.114-0.375-0.286-0.646-0.516c-2.427-2.012-3.641-3.789-3.641-5.34
			c0-0.633,0.123-1.263,0.368-1.896c0.244-0.632,0.604-1.234,1.075-1.809c0.904-1.076,1.964-1.897,3.176-2.467
			c1.213-0.564,2.521-0.85,3.931-0.85c0.688,0,1.211,0.134,1.57,0.397c0.358,0.268,0.538,0.65,0.538,1.152
			c0,0.244-0.064,0.534-0.194,0.872c-0.129,0.338-0.344,0.765-0.645,1.28c-0.39-0.158-0.755-0.276-1.101-0.354
			c-0.344-0.078-0.682-0.118-1.011-0.118c-1.191,0-2.157,0.29-2.896,0.872c-0.739,0.58-1.109,1.329-1.109,2.251
			c0,1.003,0.998,2.358,2.993,4.067c0.502,0.432,0.882,0.769,1.142,1.012c0.846,0.746,1.47,1.482,1.872,2.206
			c0.401,0.727,0.604,1.468,0.604,2.229c0,1.795-0.793,3.34-2.38,4.64c-1.586,1.3-3.513,1.948-5.779,1.948
			c-0.79,0-1.397-0.158-1.82-0.474c-0.423-0.313-0.636-0.761-0.636-1.335c0-0.272,0.059-0.574,0.173-0.903
			C381.862,432.747,382.048,432.338,382.307,431.85z"/>
		<path fill="#BCC831" d="M412.297,430.752c0.316,0.389,0.549,0.751,0.7,1.087c0.152,0.338,0.228,0.664,0.228,0.98
			c0,0.773-0.578,1.409-1.732,1.904c-1.156,0.495-2.667,0.743-4.532,0.743c-3.432,0-6.118-0.938-8.063-2.81
			c-1.945-1.873-2.917-4.459-2.917-7.761c0-3.329,0.979-6.056,2.938-8.173c1.959-2.115,4.474-3.176,7.545-3.176
			c2.368,0,4.313,0.677,5.834,2.024c1.521,1.35,2.283,3.072,2.283,5.166c0,1.65-0.631,2.829-1.896,3.531
			c-1.264,0.703-3.409,1.055-6.438,1.055c-1.135,0-2.264-0.039-3.393-0.117c-1.125-0.079-2.241-0.197-3.348-0.355v0.303
			c0,2.236,0.66,4.012,1.98,5.314c1.319,1.31,3.116,1.962,5.383,1.962c1.063,0,2.045-0.14,2.95-0.42
			C410.726,431.732,411.551,431.313,412.297,430.752z M399.769,422.291c0.946,0.158,1.991,0.277,3.132,0.355
			c1.142,0.079,2.373,0.118,3.691,0.118c1.795,0,2.993-0.165,3.597-0.495c0.603-0.33,0.904-0.927,0.904-1.786
			c0-1.308-0.453-2.34-1.356-3.102c-0.904-0.761-2.14-1.143-3.701-1.143c-1.666,0-3.053,0.532-4.157,1.594
			C400.771,418.897,400.069,420.383,399.769,422.291z"/>
		<path fill="#BCC831" d="M433.956,430.752c0.316,0.389,0.549,0.751,0.699,1.087c0.15,0.338,0.228,0.664,0.228,0.98
			c0,0.773-0.579,1.409-1.732,1.904c-1.155,0.495-2.666,0.743-4.532,0.743c-3.432,0-6.118-0.938-8.063-2.81
			c-1.944-1.873-2.918-4.459-2.918-7.761c0-3.329,0.98-6.056,2.939-8.173c1.959-2.115,4.475-3.176,7.547-3.176
			c2.367,0,4.312,0.677,5.833,2.024c1.521,1.35,2.282,3.072,2.282,5.166c0,1.65-0.632,2.829-1.896,3.531
			c-1.263,0.703-3.408,1.055-6.438,1.055c-1.134,0-2.265-0.039-3.392-0.117c-1.127-0.079-2.242-0.197-3.349-0.355v0.303
			c0,2.236,0.661,4.012,1.98,5.314c1.32,1.31,3.115,1.962,5.383,1.962c1.063,0,2.047-0.14,2.95-0.42
			C432.385,431.732,433.21,431.313,433.956,430.752z M421.427,422.291c0.946,0.158,1.991,0.277,3.133,0.355
			c1.141,0.079,2.371,0.118,3.691,0.118c1.794,0,2.993-0.165,3.595-0.495c0.604-0.33,0.905-0.927,0.905-1.786
			c0-1.308-0.452-2.34-1.356-3.102c-0.903-0.761-2.14-1.143-3.702-1.143c-1.665,0-3.051,0.532-4.154,1.594
			C422.43,418.897,421.728,420.383,421.427,422.291z"/>
	</g>
</g>
<g>
	<path fill="#808083" d="M189.915,446.087c0,0,16.228-3.86,31.212-4.832c13.598-0.882,48.895-0.357,48.895-0.357
		S217.452,443.585,189.915,446.087z"/>
	<path fill="#0696A6" d="M242.03,417.376c0,0-5.894-1.29-10.224,1.519l-3.464-6.341l10.184-27.009c0,0,6.691,7.607,7.743,15.832
		C246.27,401.376,248.118,409.645,242.03,417.376z"/>
	<path fill="#BCC831" d="M222.21,428.872c0,0,1.806-5.755,6.395-8.121l-3.784-6.153l-28.503-4.565c0,0,3.282,9.584,9.899,14.581
		C206.217,424.612,212.478,430.32,222.21,428.872z"/>
	<path fill="#0696A6" d="M225.584,407.357l-5.75-9.902l5.427-20.283c0,0,6.803,2.391,10.805,6.102L225.584,407.357z"/>
	<path fill="#BCC831" d="M221.876,409.468l-5.582-9.997l-20.214-5.679c0,0-1.412,7.07-0.264,12.407L221.876,409.468z"/>
	<polygon fill="#0696A6" points="222.313,376.123 217.026,391.991 202.842,369.731 	"/>
	<polygon fill="#BCC831" points="196.716,390.348 212.981,393.621 200.813,370.437 	"/>
	<path fill="#808083" d="M241.287,438.24l-8.817-4.346c0,0-1.625-0.848,0.695-2.883c0,0,2.271-3.17,7.289-3.541
		c0,0,1.228-0.162,1.176,1.227l0.002,9.543"/>
</g>
</svg>
