<?xml version="1.0" encoding="utf-8"?>
<!-- Generator: Adobe Illustrator 16.0.0, SVG Export Plug-In . SVG Version: 6.00 Build 0)  -->
<!DOCTYPE svg PUBLIC "-//W3C//DTD SVG 1.1//EN" "http://www.w3.org/Graphics/SVG/1.1/DTD/svg11.dtd">
<svg version="1.1" id="Layer_1" xmlns="http://www.w3.org/2000/svg" xmlns:xlink="http://www.w3.org/1999/xlink" x="0px" y="0px"
	 width="612px" height="792px" viewBox="0 0 612 792" enable-background="new 0 0 612 792" xml:space="preserve">
<g>
	<g>
		<g enable-background="new    ">
			<path fill="#808184" d="M169.118,419.275c0.349-0.298,0.67-0.656,0.966-1.073c0.297-0.415,0.57-0.863,0.823-1.342
				c0.251-0.476,0.478-0.957,0.679-1.443c0.199-0.487,0.378-0.959,0.536-1.417c0.19-0.495,0.339-1.013,0.443-1.548
				c0.103-0.536,0.139-1.074,0.103-1.609c-0.035-0.575-0.212-0.934-0.536-1.069c-0.322-0.142-0.709-0.161-1.161-0.06
				c-0.47,0.1-0.917,0.281-1.346,0.55c-0.427,0.27-0.832,0.593-1.214,0.968c-0.383,0.378-0.745,0.781-1.084,1.207
				c-0.338,0.425-0.648,0.839-0.925,1.235c-0.628,0.893-1.197,1.822-1.711,2.784c-0.514,0.965-0.946,1.983-1.292,3.054
				c-0.14,0.359-0.275,0.805-0.406,1.343c-0.13,0.535-0.203,1.071-0.222,1.607c-0.018,0.536,0.057,1.021,0.222,1.457
				c0.166,0.44,0.483,0.736,0.954,0.896c0.47,0.157,0.953,0.218,1.449,0.18c0.496-0.041,0.996-0.137,1.501-0.284
				c0.506-0.15,1.001-0.333,1.488-0.552c0.488-0.219,0.941-0.427,1.358-0.625c0.454-0.222,0.899-0.452,1.344-0.702
				c0.444-0.248,0.892-0.501,1.345-0.756l1.356-0.747c0.088-0.06,0.196-0.134,0.326-0.224c0.13-0.088,0.271-0.184,0.418-0.284
				c0.149-0.1,0.292-0.178,0.432-0.237c0.14-0.06,0.261-0.09,0.367-0.09c0.155,0.019,0.243,0.126,0.261,0.313
				c0.018,0.188-0.043,0.312-0.183,0.371c-0.139,0.158-0.322,0.271-0.549,0.342c-0.227,0.069-0.426,0.155-0.6,0.254
				c-0.488,0.278-0.971,0.559-1.45,0.849c-0.478,0.288-0.969,0.57-1.476,0.848c-0.8,0.458-1.615,0.913-2.44,1.373
				c-0.826,0.456-1.694,0.793-2.598,1.012c-0.4,0.098-0.827,0.15-1.279,0.15c-0.453,0-0.875-0.07-1.267-0.21
				c-0.393-0.14-0.742-0.368-1.045-0.684c-0.304-0.32-0.509-0.757-0.612-1.311c-0.088-0.477-0.108-0.974-0.067-1.488
				c0.042-0.517,0.132-1.03,0.261-1.534c0.13-0.506,0.286-0.997,0.47-1.476c0.183-0.475,0.37-0.925,0.561-1.341
				c0.871-2.025,1.942-3.881,3.211-5.571c0.277-0.356,0.565-0.724,0.861-1.104c0.295-0.375,0.613-0.728,0.953-1.055
				c0.338-0.33,0.696-0.622,1.071-0.88c0.372-0.257,0.769-0.447,1.186-0.567c0.366-0.136,0.771-0.203,1.214-0.191
				c0.444,0.009,0.822,0.172,1.137,0.491c0.313,0.317,0.497,0.701,0.549,1.148c0.051,0.446,0.042,0.889-0.027,1.322
				c-0.157,1.054-0.442,2.078-0.861,3.069c-0.418,0.994-0.853,1.946-1.305,2.859c-0.244,0.459-0.487,0.91-0.732,1.356
				c-0.242,0.447-0.522,0.871-0.835,1.266c-0.139,0.102-0.274,0.137-0.405,0.105c-0.132-0.028-0.235-0.095-0.313-0.193
				c-0.077-0.101-0.118-0.219-0.118-0.357C168.91,419.521,168.979,419.391,169.118,419.275z"/>
			<path fill="#808184" d="M174.993,420.585c0.313-0.181,0.641-0.375,0.98-0.595c0.338-0.219,0.682-0.408,1.031-0.565
				c0.227-0.458,0.548-0.83,0.967-1.119c0.418-0.286,0.86-0.479,1.331-0.58c0.244-0.037,0.527-0.037,0.848,0
				c0.321,0.039,0.569,0.188,0.743,0.446c0.122,0.158,0.153,0.328,0.093,0.506c-0.063,0.18-0.166,0.348-0.313,0.507
				c-0.147,0.159-0.312,0.304-0.496,0.433c-0.183,0.132-0.318,0.224-0.406,0.282c-0.313,0.221-0.657,0.384-1.031,0.493
				c-0.375,0.107-0.753,0.143-1.135,0.104H177.5c0.068,0.438,0.225,0.772,0.471,1.013c0.244,0.238,0.532,0.412,0.86,0.521
				c0.331,0.108,0.675,0.154,1.032,0.134c0.356-0.019,0.682-0.06,0.979-0.116c0.417-0.1,0.826-0.226,1.226-0.372
				c0.4-0.147,0.792-0.323,1.176-0.521c0.173-0.099,0.351-0.194,0.535-0.282c0.183-0.091,0.352-0.185,0.509-0.286
				c0.122-0.037,0.248-0.02,0.377,0.062c0.132,0.079,0.145,0.208,0.04,0.386c-0.087,0.162-0.209,0.269-0.367,0.33
				c-0.157,0.06-0.297,0.116-0.417,0.176l-1.305,0.656c-0.801,0.358-1.593,0.655-2.376,0.894c-0.349,0.077-0.701,0.104-1.058,0.075
				c-0.356-0.031-0.687-0.12-0.992-0.269c-0.304-0.15-0.579-0.363-0.822-0.642c-0.244-0.276-0.419-0.635-0.522-1.072
				c-0.034-0.158-0.064-0.317-0.091-0.477c-0.026-0.157-0.023-0.31,0.012-0.444c-0.19,0.097-0.376,0.213-0.559,0.342
				c-0.185,0.13-0.344,0.242-0.483,0.343c-0.088,0.04-0.201,0.113-0.34,0.223s-0.278,0.115-0.417,0.014
				c-0.104-0.078-0.152-0.186-0.143-0.326C174.832,420.713,174.89,420.625,174.993,420.585z M177.656,419.751
				c0.418-0.021,0.821-0.138,1.214-0.356c0.392-0.218,0.735-0.498,1.032-0.836c-0.243-0.099-0.483-0.131-0.717-0.09
				c-0.235,0.043-0.452,0.121-0.653,0.239c-0.201,0.12-0.378,0.271-0.535,0.462C177.839,419.358,177.725,419.553,177.656,419.751z"
				/>
			<path fill="#808184" d="M184.157,420.612c0.191-0.116,0.522-0.321,0.992-0.607c0.471-0.288,0.955-0.562,1.45-0.82
				c0.497-0.257,0.954-0.438,1.372-0.537c0.417-0.098,0.679-0.02,0.784,0.239c0.068,0.198,0.046,0.393-0.067,0.581
				c-0.113,0.187-0.196,0.362-0.248,0.519l-0.313,0.834c0.226-0.159,0.452-0.297,0.679-0.416c0.224-0.12,0.452-0.239,0.678-0.355
				c0.556-0.34,1.131-0.697,1.724-1.075c0.591-0.374,1.192-0.665,1.801-0.864c0.226-0.058,0.427-0.064,0.6-0.014
				c0.173,0.05,0.308,0.141,0.406,0.271c0.098,0.129,0.144,0.297,0.144,0.504c0,0.21-0.07,0.433-0.209,0.673
				c-0.158,0.276-0.327,0.525-0.509,0.743c-0.183,0.218-0.37,0.458-0.562,0.714c-0.033,0.06-0.095,0.141-0.183,0.239
				c-0.088,0.099-0.179,0.215-0.273,0.342c-0.096,0.131-0.184,0.259-0.262,0.388c-0.077,0.13-0.126,0.243-0.143,0.344
				c0.122,0.037,0.274,0.037,0.457,0c0.184-0.04,0.367-0.096,0.549-0.165c0.183-0.069,0.356-0.144,0.521-0.223
				c0.166-0.079,0.292-0.139,0.378-0.18l1.07-0.535c0.069-0.041,0.16-0.102,0.273-0.18c0.114-0.077,0.23-0.154,0.352-0.224
				s0.238-0.137,0.353-0.195c0.112-0.06,0.204-0.088,0.274-0.088c0.158,0,0.235,0.088,0.235,0.268c0,0.181-0.069,0.318-0.208,0.419
				c-0.158,0.099-0.323,0.192-0.497,0.281c-0.174,0.088-0.356,0.184-0.548,0.282c-0.243,0.157-0.478,0.297-0.705,0.417
				c-0.228,0.118-0.46,0.247-0.705,0.386c-0.14,0.081-0.362,0.196-0.667,0.344c-0.304,0.148-0.61,0.258-0.913,0.327
				c-0.305,0.068-0.57,0.06-0.795-0.031c-0.226-0.09-0.339-0.332-0.339-0.73c0-0.195,0.042-0.375,0.13-0.534
				c0.087-0.158,0.186-0.314,0.302-0.464c0.112-0.149,0.235-0.293,0.364-0.433c0.132-0.138,0.248-0.266,0.354-0.388
				c0.104-0.098,0.277-0.307,0.521-0.626c0.244-0.317,0.401-0.614,0.471-0.894c-0.471,0.06-0.946,0.2-1.424,0.419
				c-0.478,0.218-0.917,0.447-1.318,0.683c-0.506,0.279-1.027,0.592-1.566,0.942c-0.54,0.343-1.01,0.756-1.411,1.234
				c-0.088,0.078-0.179,0.123-0.273,0.133c-0.097,0.011-0.189-0.01-0.275-0.059c-0.087-0.05-0.152-0.124-0.195-0.224
				c-0.044-0.101-0.049-0.229-0.014-0.389c0.052-0.178,0.182-0.337,0.391-0.476c0.089-0.158,0.174-0.342,0.261-0.551
				c0.088-0.21,0.148-0.333,0.184-0.373c0.034-0.141,0.068-0.282,0.104-0.432c0.034-0.148,0.062-0.304,0.078-0.462
				c-0.192,0.06-0.383,0.129-0.574,0.206c-0.191,0.08-0.339,0.14-0.443,0.18c-0.243,0.12-0.488,0.233-0.731,0.343
				c-0.243,0.106-0.487,0.23-0.731,0.37c-0.139,0.078-0.266,0.158-0.378,0.236c-0.112,0.08-0.24,0.151-0.377,0.211
				c-0.104,0.06-0.205,0.072-0.302,0.042c-0.096-0.028-0.168-0.073-0.222-0.132c-0.052-0.061-0.073-0.137-0.065-0.225
				C183.97,420.737,184.037,420.675,184.157,420.612z"/>
			<path fill="#808184" d="M198.387,416.919c0.313,0.021,0.626,0.027,0.941,0.016c0.314-0.013,0.625-0.034,0.94-0.076
				c0.485-0.852,1.014-1.742,1.579-2.664c0.567-0.925,1.205-1.704,1.92-2.339c0.14-0.101,0.283-0.199,0.432-0.298
				c0.148-0.1,0.3-0.159,0.457-0.18c0.173,0,0.305,0.08,0.393,0.237c0.085,0.16,0.104,0.331,0.052,0.51
				c-0.089,0.397-0.279,0.776-0.574,1.146c-0.297,0.369-0.548,0.703-0.756,0.999c-0.263,0.398-0.536,0.786-0.823,1.162
				c-0.287,0.378-0.579,0.744-0.876,1.103l1.541-0.416l2.585-0.894c0.122-0.06,0.248-0.105,0.377-0.136
				c0.132-0.031,0.248,0.034,0.352,0.195c0.104,0.161,0.131,0.323,0.078,0.489c-0.053,0.168-0.147,0.283-0.287,0.345
				c-0.801,0.316-1.637,0.566-2.507,0.742c-0.87,0.18-1.723,0.327-2.558,0.448l-0.367,0.087c-0.209,0.22-0.427,0.438-0.652,0.657
				c-0.227,0.218-0.462,0.438-0.705,0.655c-0.123,0.199-0.228,0.401-0.313,0.609c-0.088,0.206-0.173,0.423-0.261,0.642
				c-0.035,0.06-0.089,0.209-0.158,0.445c-0.07,0.24-0.135,0.484-0.196,0.732c-0.062,0.246-0.108,0.477-0.145,0.685
				c-0.034,0.205-0.026,0.313,0.026,0.313c0.367,0.1,0.763,0.072,1.188-0.077c0.427-0.149,0.796-0.271,1.11-0.37
				c0.4-0.158,0.801-0.318,1.201-0.478s0.801-0.337,1.201-0.535c0.104-0.04,0.238-0.069,0.406-0.09
				c0.166-0.021,0.238,0.1,0.222,0.359c-0.018,0.177-0.125,0.303-0.325,0.369c-0.202,0.069-0.362,0.134-0.483,0.195l-1.853,0.772
				c-0.209,0.104-0.501,0.241-0.876,0.42c-0.375,0.177-0.748,0.322-1.122,0.431c-0.374,0.107-0.713,0.125-1.019,0.046
				c-0.304-0.081-0.491-0.347-0.562-0.805c-0.034-0.458,0.04-0.91,0.223-1.355c0.181-0.446,0.395-0.928,0.638-1.446
				c-0.8,0.617-1.636,1.163-2.504,1.642c-0.104,0.06-0.191,0.069-0.261,0.027c-0.07-0.037-0.122-0.097-0.157-0.178
				c-0.034-0.077-0.04-0.163-0.013-0.252c0.025-0.09,0.083-0.164,0.168-0.226c0.608-0.315,1.197-0.665,1.763-1.041
				c0.565-0.377,1.117-0.797,1.657-1.252l0.365-0.714c-0.261,0.019-0.549,0.061-0.862,0.118c-0.312,0.06-0.565,0.031-0.757-0.087
				c-0.139-0.1-0.188-0.24-0.142-0.418C198.129,417.01,198.229,416.919,198.387,416.919z M203.112,414.09
				c0.089-0.138,0.17-0.287,0.249-0.447c0.078-0.158,0.16-0.317,0.248-0.475c-0.173,0.2-0.335,0.396-0.483,0.596
				c-0.148,0.199-0.274,0.354-0.378,0.477c-0.313,0.397-0.618,0.8-0.913,1.205c-0.296,0.409-0.566,0.84-0.811,1.295
				C201.807,415.927,202.502,415.043,203.112,414.09z"/>
			<path fill="#808184" d="M203.895,420.585c0.313-0.181,0.641-0.375,0.979-0.595c0.339-0.219,0.684-0.408,1.033-0.565
				c0.226-0.458,0.547-0.83,0.966-1.119c0.418-0.286,0.861-0.479,1.331-0.58c0.243-0.037,0.526-0.037,0.848,0
				c0.321,0.039,0.569,0.188,0.743,0.446c0.122,0.158,0.151,0.328,0.092,0.506c-0.062,0.18-0.165,0.348-0.313,0.507
				s-0.313,0.304-0.496,0.433c-0.184,0.132-0.319,0.224-0.405,0.282c-0.313,0.221-0.659,0.384-1.033,0.493
				c-0.374,0.107-0.752,0.143-1.134,0.104h-0.104c0.067,0.438,0.225,0.772,0.47,1.013c0.245,0.238,0.531,0.412,0.861,0.521
				s0.674,0.154,1.031,0.134c0.356-0.019,0.683-0.06,0.979-0.116c0.417-0.1,0.825-0.226,1.226-0.372
				c0.401-0.147,0.791-0.323,1.176-0.521c0.173-0.099,0.351-0.194,0.534-0.282c0.184-0.091,0.353-0.185,0.51-0.286
				c0.122-0.037,0.249-0.02,0.378,0.062c0.131,0.079,0.144,0.208,0.039,0.386c-0.087,0.162-0.209,0.269-0.367,0.33
				c-0.158,0.06-0.297,0.116-0.416,0.176l-1.306,0.656c-0.801,0.358-1.593,0.655-2.375,0.894c-0.349,0.077-0.701,0.104-1.058,0.075
				c-0.356-0.031-0.688-0.12-0.993-0.269c-0.305-0.15-0.579-0.363-0.821-0.642c-0.244-0.276-0.419-0.635-0.522-1.072
				c-0.035-0.158-0.065-0.317-0.091-0.477c-0.026-0.157-0.023-0.31,0.013-0.444c-0.192,0.097-0.378,0.213-0.562,0.342
				c-0.183,0.13-0.344,0.242-0.483,0.343c-0.087,0.04-0.201,0.113-0.338,0.223c-0.139,0.109-0.278,0.115-0.418,0.014
				c-0.104-0.078-0.153-0.186-0.142-0.326C203.735,420.713,203.79,420.625,203.895,420.585z M206.558,419.751
				c0.419-0.021,0.822-0.138,1.214-0.356c0.393-0.218,0.735-0.498,1.032-0.836c-0.244-0.099-0.483-0.131-0.717-0.09
				c-0.235,0.043-0.453,0.121-0.653,0.239c-0.202,0.12-0.378,0.271-0.536,0.462C206.742,419.358,206.628,419.553,206.558,419.751z"
				/>
			<path fill="#808184" d="M213.112,420.585c0.367-0.218,0.727-0.438,1.083-0.654c0.356-0.219,0.744-0.469,1.163-0.746
				c-0.034-0.375,0.065-0.733,0.3-1.071c0.234-0.337,0.535-0.494,0.901-0.477c0.243,0.039,0.4,0.179,0.47,0.417
				c0.069,0.238,0.034,0.466-0.104,0.683c-0.14,0.241-0.322,0.44-0.547,0.598c0.121,0.078,0.271,0.117,0.444,0.117
				c0.365,0.041,0.748-0.033,1.148-0.222c0.4-0.19,0.756-0.392,1.07-0.612c0.313-0.117,0.513-0.08,0.6,0.119
				c0.087,0.201,0.052,0.44-0.104,0.715c-0.087,0.16-0.186,0.363-0.299,0.612c-0.114,0.247-0.209,0.501-0.287,0.757
				c-0.078,0.26-0.122,0.508-0.132,0.745c-0.009,0.235,0.058,0.428,0.197,0.566c0.086,0.117,0.315,0.117,0.691,0
				c0.374-0.121,0.875-0.316,1.501-0.598c0.208-0.099,0.421-0.212,0.638-0.34c0.217-0.132,0.44-0.254,0.666-0.376
				c0.053-0.017,0.132-0.064,0.236-0.134c0.104-0.067,0.205-0.119,0.3-0.149c0.096-0.031,0.183-0.031,0.261,0
				c0.078,0.03,0.117,0.135,0.117,0.313c0,0.101-0.04,0.19-0.117,0.269c-0.078,0.079-0.165,0.149-0.261,0.207
				c-0.096,0.059-0.196,0.109-0.3,0.152c-0.104,0.039-0.183,0.068-0.236,0.088l-1.095,0.565c-0.191,0.118-0.431,0.269-0.718,0.443
				c-0.288,0.182-0.579,0.331-0.875,0.45c-0.297,0.118-0.583,0.178-0.861,0.178c-0.279,0-0.496-0.13-0.653-0.388
				c-0.087-0.137-0.139-0.293-0.158-0.46c-0.018-0.17-0.013-0.341,0.013-0.51c0.026-0.169,0.062-0.337,0.104-0.506
				c0.042-0.169,0.083-0.331,0.118-0.49l0.208-0.984c-0.086,0.02-0.265,0.069-0.534,0.151c-0.271,0.077-0.561,0.133-0.875,0.162
				c-0.313,0.029-0.613,0.024-0.9-0.014c-0.287-0.04-0.501-0.171-0.641-0.39c-0.296,0.181-0.54,0.329-0.731,0.448
				c-0.191,0.12-0.388,0.247-0.587,0.386c-0.201,0.14-0.362,0.25-0.483,0.331c-0.104,0.037-0.228,0.112-0.365,0.221
				c-0.139,0.109-0.262,0.126-0.367,0.047s-0.157-0.189-0.157-0.33C212.953,420.74,213.007,420.645,213.112,420.585z"/>
			<path fill="#808184" d="M230.708,420.585c0.765-0.398,1.504-0.855,2.221-1.37c0.712-0.517,1.399-1.062,2.061-1.639
				c0.332-0.716,0.658-1.441,0.98-2.174c0.32-0.734,0.675-1.45,1.056-2.146c0.14-0.297,0.301-0.62,0.483-0.969
				c0.184-0.346,0.392-0.674,0.628-0.982c0.234-0.307,0.491-0.566,0.771-0.775c0.278-0.209,0.591-0.312,0.94-0.312
				c0.365,0,0.588,0.108,0.667,0.329c0.079,0.219,0.078,0.472,0,0.757c-0.078,0.291-0.196,0.575-0.352,0.866
				c-0.158,0.286-0.288,0.502-0.391,0.638c-0.438,0.735-0.916,1.433-1.436,2.086c-0.522,0.656-1.08,1.272-1.673,1.847
				c-0.191,0.219-0.391,0.43-0.6,0.628c-0.209,0.2-0.409,0.396-0.601,0.594l-1.043,2.266c-0.019,0.576,0.083,0.973,0.3,1.191
				c0.216,0.22,0.525,0.299,0.926,0.238c0.242-0.058,0.479-0.135,0.704-0.224c0.227-0.087,0.454-0.183,0.678-0.284
				c0.158-0.079,0.339-0.202,0.548-0.37c0.209-0.169,0.401-0.254,0.575-0.254c0.157,0,0.256,0.097,0.299,0.285
				c0.044,0.188-0.013,0.321-0.168,0.402l-1.228,0.656c-0.367,0.157-0.768,0.312-1.202,0.459c-0.437,0.149-0.854,0.163-1.253,0.047
				c-0.332-0.138-0.599-0.408-0.81-0.805c-0.349,0.775-0.709,1.532-1.083,2.277c-0.374,0.744-0.761,1.484-1.162,2.219
				c-0.053,0.101-0.151,0.281-0.299,0.54c-0.148,0.257-0.306,0.494-0.47,0.713c-0.167,0.22-0.336,0.37-0.51,0.446
				c-0.173,0.082-0.322-0.01-0.442-0.267c-0.07-0.139-0.105-0.308-0.105-0.509c0-0.199,0.018-0.401,0.052-0.609
				c0.033-0.207,0.078-0.411,0.132-0.609c0.052-0.199,0.095-0.368,0.131-0.509c0.123-0.414,0.312-0.884,0.574-1.398
				c0.261-0.518,0.571-1.024,0.928-1.519c0.356-0.498,0.74-0.959,1.148-1.385c0.409-0.426,0.822-0.763,1.24-1
				c0.089-0.197,0.169-0.388,0.248-0.566c0.078-0.177,0.16-0.357,0.249-0.535l-1.095,0.864c-0.314,0.218-0.634,0.438-0.956,0.655
				c-0.321,0.219-0.647,0.428-0.978,0.624c-0.105,0.06-0.227,0.129-0.365,0.21c-0.141,0.079-0.262,0.079-0.367,0
				c-0.087-0.081-0.127-0.189-0.118-0.326C230.553,420.747,230.604,420.645,230.708,420.585z M230.551,426.034
				c0.504-0.635,0.97-1.329,1.396-2.085c0.426-0.757,0.832-1.521,1.215-2.295c-0.643,0.516-1.223,1.168-1.737,1.95
				C230.913,424.392,230.621,425.2,230.551,426.034z M238.228,413.974c0.4-0.517,0.732-1.023,0.993-1.521
				c0.087-0.139,0.173-0.313,0.261-0.522c0.087-0.207,0.139-0.412,0.157-0.608c-0.192,0.079-0.373,0.201-0.536,0.371
				c-0.167,0.168-0.318,0.333-0.458,0.491c-0.331,0.397-0.63,0.813-0.901,1.25c-0.271,0.438-0.527,0.884-0.77,1.341
				c-0.14,0.278-0.274,0.551-0.404,0.82c-0.132,0.266-0.267,0.538-0.406,0.817c0.366-0.376,0.721-0.764,1.069-1.16
				C237.585,414.857,237.913,414.428,238.228,413.974z"/>
			<path fill="#808184" d="M240.577,419.243c0.348-0.159,0.71-0.3,1.083-0.415c0.372-0.12,0.735-0.24,1.083-0.36
				c0.227-0.138,0.479-0.25,0.757-0.327c0.277-0.078,0.531-0.038,0.758,0.121c0.139,0.116,0.191,0.275,0.158,0.475
				c0.12-0.018,0.242,0.022,0.366,0.12c0.225,0.261,0.305,0.564,0.236,0.925c-0.07,0.355-0.201,0.705-0.392,1.041
				c0.068,0.101,0.173,0.2,0.313,0.299c0.28,0.2,0.583,0.288,0.915,0.269c0.332-0.021,0.643-0.08,0.941-0.18
				c0.085-0.019,0.216-0.08,0.391-0.179c0.172-0.097,0.354-0.193,0.535-0.283c0.182-0.09,0.353-0.15,0.508-0.178
				c0.157-0.031,0.262,0.015,0.313,0.134c0.07,0.159,0.063,0.294-0.026,0.403c-0.086,0.107-0.204,0.198-0.351,0.267
				c-0.147,0.069-0.3,0.135-0.458,0.195c-0.157,0.06-0.261,0.1-0.312,0.119c-0.261,0.099-0.535,0.181-0.821,0.237
				c-0.289,0.06-0.571,0.087-0.849,0.087c-0.279,0-0.548-0.042-0.811-0.132c-0.261-0.088-0.486-0.244-0.677-0.462l-0.575,0.684
				c-0.209,0.218-0.444,0.437-0.706,0.655c-0.261,0.22-0.534,0.402-0.821,0.551c-0.287,0.148-0.587,0.244-0.903,0.282
				c-0.313,0.036-0.609-0.008-0.887-0.148c-0.348-0.181-0.552-0.411-0.612-0.701c-0.063-0.287-0.039-0.592,0.064-0.908
				c0.105-0.317,0.253-0.627,0.445-0.925c0.191-0.298,0.372-0.543,0.547-0.744l0.496-0.565c-0.401,0.159-0.791,0.337-1.175,0.537
				c-0.383,0.198-0.767,0.406-1.148,0.626c-0.069,0.04-0.156,0.096-0.261,0.161c-0.104,0.072-0.208,0.137-0.313,0.198
				c-0.104,0.058-0.204,0.103-0.301,0.133c-0.098,0.031-0.179,0.015-0.249-0.044c-0.122-0.08-0.173-0.189-0.157-0.325
				c0.018-0.14,0.078-0.24,0.185-0.3L240.577,419.243z M241.465,420.286c-0.069,0.08-0.196,0.229-0.378,0.448
				c-0.181,0.219-0.344,0.444-0.483,0.685c-0.139,0.236-0.222,0.462-0.247,0.669c-0.027,0.207,0.083,0.334,0.325,0.372
				c0.453,0.079,0.884,0.061,1.292-0.06c0.41-0.119,0.779-0.348,1.11-0.685c0.14-0.157,0.271-0.307,0.392-0.447
				c0.123-0.137,0.226-0.297,0.313-0.475c-0.086-0.259-0.134-0.537-0.144-0.835c-0.008-0.298,0.058-0.556,0.197-0.776
				c-0.486,0.041-0.926,0.16-1.318,0.36C242.131,419.741,241.779,419.986,241.465,420.286z"/>
			<path fill="#808184" d="M248.096,420.585c0.367-0.218,0.727-0.438,1.083-0.654c0.356-0.219,0.745-0.469,1.163-0.746
				c-0.034-0.375,0.064-0.733,0.3-1.071c0.234-0.337,0.535-0.494,0.901-0.477c0.244,0.039,0.4,0.179,0.47,0.417
				c0.07,0.238,0.035,0.466-0.103,0.683c-0.139,0.241-0.322,0.44-0.549,0.598c0.122,0.078,0.271,0.117,0.445,0.117
				c0.364,0.041,0.748-0.033,1.147-0.222c0.402-0.19,0.757-0.392,1.071-0.612c0.313-0.117,0.512-0.08,0.6,0.119
				c0.088,0.201,0.053,0.44-0.104,0.715c-0.086,0.16-0.187,0.363-0.298,0.612c-0.114,0.247-0.209,0.501-0.287,0.757
				c-0.079,0.26-0.122,0.508-0.131,0.745c-0.012,0.235,0.055,0.428,0.196,0.566c0.086,0.117,0.315,0.117,0.691,0
				c0.374-0.121,0.876-0.316,1.501-0.598c0.207-0.099,0.421-0.212,0.638-0.34c0.219-0.132,0.44-0.254,0.667-0.376
				c0.052-0.017,0.131-0.064,0.236-0.134c0.103-0.067,0.205-0.119,0.299-0.149c0.096-0.031,0.185-0.031,0.262,0
				c0.078,0.03,0.117,0.135,0.117,0.313c0,0.101-0.039,0.19-0.117,0.269c-0.077,0.079-0.166,0.149-0.262,0.207
				c-0.094,0.059-0.196,0.109-0.299,0.152c-0.105,0.039-0.185,0.068-0.236,0.088l-1.095,0.565c-0.192,0.118-0.432,0.269-0.719,0.443
				c-0.287,0.182-0.579,0.331-0.872,0.45c-0.298,0.118-0.585,0.178-0.863,0.178s-0.497-0.13-0.654-0.388
				c-0.086-0.137-0.139-0.293-0.157-0.46c-0.017-0.17-0.012-0.341,0.013-0.51s0.062-0.337,0.103-0.506
				c0.043-0.169,0.083-0.331,0.117-0.49l0.208-0.984c-0.086,0.02-0.265,0.069-0.534,0.151c-0.271,0.077-0.561,0.133-0.876,0.162
				c-0.312,0.029-0.613,0.024-0.899-0.014c-0.287-0.04-0.5-0.171-0.639-0.39c-0.298,0.181-0.54,0.329-0.733,0.448
				c-0.191,0.12-0.387,0.247-0.586,0.386c-0.201,0.14-0.362,0.25-0.483,0.331c-0.104,0.037-0.226,0.112-0.364,0.221
				c-0.139,0.109-0.261,0.126-0.368,0.047c-0.104-0.079-0.157-0.189-0.157-0.33C247.937,420.74,247.993,420.645,248.096,420.585z"/>
			<path fill="#808184" d="M265.85,422.4c0.609-0.338,1.244-0.618,1.906-0.85c0.662-0.228,1.321-0.43,1.985-0.606l0.653-1.163
				c0.572-0.936,1.156-1.837,1.749-2.71c0.591-0.876,1.211-1.749,1.855-2.622c0.627-0.834,1.273-1.655,1.944-2.46
				c0.67-0.804,1.382-1.553,2.129-2.248c0.365-0.337,0.742-0.654,1.121-0.953c0.383-0.298,0.776-0.567,1.175-0.805
				c0.105-0.06,0.275-0.146,0.51-0.268c0.234-0.119,0.473-0.214,0.718-0.283c0.243-0.069,0.469-0.095,0.679-0.077
				c0.208,0.023,0.347,0.141,0.417,0.36c0.034,0.138,0.021,0.282-0.039,0.432c-0.063,0.15-0.109,0.283-0.146,0.402l-0.599,1.398
				l-0.498,1.163c-0.348,0.773-0.682,1.548-1.005,2.322c-0.322,0.775-0.642,1.572-0.953,2.385c-0.278,0.716-0.548,1.431-0.81,2.144
				c-0.26,0.716-0.506,1.451-0.73,2.206c0.139,0,0.275,0.009,0.404,0.028c0.132,0.022,0.249,0.05,0.353,0.09
				c0.208,0.101,0.308,0.271,0.301,0.521c-0.009,0.251-0.118,0.413-0.328,0.493c-0.157,0.038-0.322,0.05-0.495,0.028
				c-0.174-0.018-0.357-0.046-0.549-0.088l-0.104,0.629c-0.103,0.412-0.203,0.857-0.299,1.322c-0.095,0.468-0.174,0.935-0.236,1.4
				c-0.062,0.47-0.099,0.93-0.116,1.386c-0.019,0.457,0.007,0.895,0.077,1.311c0.488-0.556,0.951-1.09,1.384-1.607
				c0.436-0.519,0.912-1.005,1.438-1.461c0.781-0.695,1.585-1.342,2.412-1.938c0.826-0.594,1.676-1.158,2.545-1.696
				c0.088-0.06,0.167-0.073,0.235-0.043c0.07,0.032,0.127,0.084,0.169,0.164c0.043,0.079,0.062,0.165,0.054,0.253
				c-0.01,0.089-0.058,0.164-0.144,0.223l-1.071,0.656c-0.452,0.3-0.902,0.603-1.346,0.906c-0.443,0.311-0.874,0.643-1.291,1
				c-1.34,1.111-2.55,2.422-3.629,3.932c-0.087,0.159-0.178,0.298-0.274,0.415c-0.094,0.122-0.24,0.2-0.431,0.24
				c-0.244,0.039-0.436,0-0.574-0.118c-0.14-0.122-0.25-0.279-0.327-0.478c-0.077-0.2-0.127-0.417-0.143-0.653
				c-0.019-0.24-0.019-0.46,0-0.657c0.016-0.874,0.131-1.756,0.338-2.65c0.209-0.896,0.434-1.759,0.681-2.593
				c-0.296-0.018-0.592-0.032-0.889-0.041c-0.297-0.011-0.592-0.018-0.886-0.018c-0.627-0.038-1.254-0.038-1.88,0
				c-0.628,0.041-1.247,0.109-1.854,0.21l-1.2,0.205l-0.367,0.777c-0.208,0.454-0.426,0.932-0.652,1.429
				c-0.226,0.496-0.366,1.003-0.418,1.519c-0.018,0.159-0.047,0.318-0.09,0.476c-0.043,0.159-0.164,0.25-0.354,0.269
				c-0.155,0-0.282-0.059-0.377-0.177c-0.097-0.12-0.136-0.258-0.117-0.416c0.018-0.497,0.133-0.982,0.351-1.46
				s0.421-0.923,0.613-1.342c0.07-0.158,0.139-0.297,0.209-0.417c0.068-0.117,0.147-0.257,0.236-0.415
				c-0.244,0.06-0.475,0.123-0.694,0.195c-0.217,0.067-0.447,0.152-0.691,0.25c-0.313,0.102-0.614,0.222-0.901,0.357
				c-0.287,0.141-0.58,0.29-0.874,0.448c-0.087,0.06-0.171,0.069-0.249,0.028c-0.078-0.039-0.131-0.099-0.157-0.178
				c-0.025-0.078-0.031-0.163-0.013-0.254C265.71,422.534,265.763,422.46,265.85,422.4z M277.285,420.106
				c0.453-1.37,0.929-2.711,1.422-4.021c0.498-1.312,0.997-2.63,1.501-3.961c0.244-0.597,0.477-1.196,0.706-1.802
				c0.224-0.606,0.442-1.225,0.652-1.861c-0.402,0.079-0.8,0.234-1.204,0.462c-0.397,0.229-0.781,0.491-1.145,0.79
				c-0.367,0.297-0.712,0.606-1.033,0.924c-0.323,0.318-0.623,0.614-0.901,0.894c-1.462,1.528-2.821,3.219-4.075,5.063
				c-0.887,1.353-1.73,2.721-2.532,4.111l2.167-0.358c0.644-0.06,1.287-0.102,1.932-0.133c0.644-0.028,1.295-0.026,1.96,0.015h0.521
				C277.259,420.168,277.266,420.127,277.285,420.106z"/>
			<path fill="#808184" d="M284.648,420.612c0.121-0.077,0.344-0.224,0.667-0.429c0.321-0.21,0.678-0.424,1.069-0.641
				c0.391-0.22,0.787-0.423,1.188-0.613c0.399-0.188,0.748-0.293,1.044-0.313c0.104-0.04,0.213-0.033,0.326,0.014
				c0.113,0.052,0.198,0.115,0.25,0.197c0.102,0.199,0.113,0.352,0.026,0.461c-0.087,0.11-0.203,0.203-0.338,0.282
				c-0.139,0.081-0.293,0.143-0.458,0.193c-0.165,0.05-0.273,0.115-0.326,0.194c-0.087,0.119-0.067,0.228,0.065,0.327
				c0.132,0.101,0.292,0.18,0.483,0.239s0.382,0.113,0.574,0.163c0.191,0.049,0.313,0.097,0.364,0.134
				c0.349,0.221,0.553,0.454,0.614,0.7c0.06,0.249,0.024,0.502-0.116,0.759l0.705-0.416l2.089-1.251
				c0.12-0.079,0.23-0.081,0.326-0.013c0.097,0.068,0.144,0.184,0.144,0.343c0,0.158-0.074,0.271-0.224,0.341
				c-0.146,0.07-0.282,0.135-0.404,0.193c-0.419,0.219-0.84,0.452-1.268,0.701c-0.424,0.246-0.847,0.502-1.264,0.758
				c-0.505,0.278-0.988,0.527-1.449,0.744c-0.462,0.221-0.937,0.33-1.421,0.33c-0.35,0-0.66-0.141-0.928-0.418
				c-0.272-0.277-0.406-0.596-0.406-0.953c-0.018-0.179,0.016-0.323,0.103-0.431c0.088-0.108,0.193-0.179,0.314-0.209
				c0.122-0.03,0.23-0.003,0.328,0.077c0.095,0.078,0.152,0.203,0.169,0.385c0.034,0.398,0.186,0.63,0.457,0.7
				c0.271,0.07,0.588,0.058,0.953-0.044c0.242-0.099,0.467-0.225,0.667-0.37c0.2-0.15,0.343-0.295,0.432-0.433
				c0.225-0.277,0.288-0.495,0.181-0.653c-0.103-0.161-0.281-0.289-0.534-0.391c-0.252-0.098-0.519-0.182-0.797-0.252
				c-0.279-0.07-0.469-0.154-0.573-0.254c-0.158-0.158-0.249-0.317-0.276-0.476c-0.025-0.158-0.022-0.317,0.015-0.478
				c-0.26,0.12-0.518,0.243-0.771,0.373c-0.254,0.13-0.48,0.243-0.693,0.342c-0.157,0.103-0.342,0.243-0.559,0.434
				c-0.217,0.189-0.413,0.282-0.589,0.282c-0.086,0.02-0.16,0.006-0.221-0.044c-0.061-0.047-0.095-0.106-0.105-0.178
				c-0.005-0.069,0-0.146,0.028-0.224C284.53,420.718,284.579,420.655,284.648,420.612z"/>
			<path fill="#808184" d="M292.898,420.612c0.122-0.077,0.345-0.224,0.667-0.429c0.322-0.21,0.678-0.424,1.072-0.641
				c0.39-0.22,0.787-0.423,1.185-0.613c0.401-0.188,0.75-0.293,1.048-0.313c0.104-0.04,0.213-0.033,0.325,0.014
				c0.112,0.052,0.195,0.115,0.248,0.197c0.105,0.199,0.113,0.352,0.027,0.461c-0.089,0.11-0.201,0.203-0.339,0.282
				c-0.14,0.081-0.293,0.143-0.457,0.193c-0.168,0.05-0.276,0.115-0.329,0.194c-0.086,0.119-0.064,0.228,0.067,0.327
				c0.129,0.101,0.291,0.18,0.483,0.239c0.192,0.06,0.381,0.113,0.575,0.163c0.192,0.049,0.312,0.097,0.366,0.134
				c0.349,0.221,0.553,0.454,0.615,0.7c0.06,0.249,0.022,0.502-0.117,0.759l0.705-0.416l2.089-1.251
				c0.121-0.079,0.23-0.081,0.327-0.013c0.096,0.068,0.145,0.184,0.145,0.343c0,0.158-0.075,0.271-0.226,0.341
				c-0.147,0.07-0.281,0.135-0.404,0.193c-0.419,0.219-0.841,0.452-1.265,0.701c-0.427,0.246-0.849,0.502-1.266,0.758
				c-0.504,0.278-0.989,0.527-1.451,0.744c-0.461,0.221-0.933,0.33-1.424,0.33c-0.347,0-0.655-0.141-0.926-0.418
				c-0.27-0.277-0.406-0.596-0.406-0.953c-0.017-0.179,0.018-0.323,0.105-0.431c0.084-0.108,0.192-0.179,0.313-0.209
				c0.12-0.03,0.231-0.003,0.326,0.077c0.097,0.078,0.153,0.203,0.169,0.385c0.034,0.398,0.187,0.63,0.455,0.7
				c0.271,0.07,0.589,0.058,0.955-0.044c0.243-0.099,0.465-0.225,0.666-0.37c0.201-0.15,0.345-0.295,0.432-0.433
				c0.228-0.277,0.288-0.495,0.182-0.653c-0.107-0.161-0.283-0.289-0.535-0.391c-0.252-0.098-0.518-0.182-0.796-0.252
				c-0.279-0.07-0.472-0.154-0.574-0.254c-0.156-0.158-0.247-0.317-0.273-0.476c-0.027-0.158-0.023-0.317,0.012-0.478
				c-0.261,0.12-0.52,0.243-0.769,0.373c-0.252,0.13-0.485,0.243-0.694,0.342c-0.157,0.103-0.343,0.243-0.56,0.434
				c-0.218,0.189-0.413,0.282-0.587,0.282c-0.087,0.02-0.161,0.006-0.222-0.044c-0.062-0.047-0.097-0.106-0.103-0.178
				c-0.01-0.069,0-0.146,0.024-0.224C292.785,420.718,292.829,420.655,292.898,420.612z"/>
			<path fill="#808184" d="M301.253,420.585c0.312-0.181,0.64-0.375,0.979-0.595c0.339-0.219,0.685-0.408,1.034-0.565
				c0.225-0.458,0.548-0.83,0.965-1.119c0.417-0.286,0.861-0.479,1.33-0.58c0.243-0.037,0.528-0.037,0.848,0
				c0.323,0.039,0.57,0.188,0.744,0.446c0.123,0.158,0.151,0.328,0.092,0.506c-0.061,0.18-0.165,0.348-0.311,0.507
				c-0.149,0.159-0.314,0.304-0.496,0.433c-0.184,0.132-0.317,0.224-0.406,0.282c-0.312,0.221-0.656,0.384-1.031,0.493
				c-0.374,0.107-0.754,0.143-1.136,0.104h-0.102c0.067,0.438,0.225,0.772,0.468,1.013c0.242,0.238,0.531,0.412,0.864,0.521
				c0.327,0.108,0.673,0.154,1.031,0.134c0.354-0.019,0.681-0.06,0.978-0.116c0.417-0.1,0.828-0.226,1.227-0.372
				c0.401-0.147,0.792-0.323,1.177-0.521c0.172-0.099,0.352-0.194,0.535-0.282c0.186-0.09,0.354-0.185,0.509-0.286
				c0.119-0.037,0.247-0.02,0.379,0.062c0.13,0.079,0.142,0.208,0.036,0.386c-0.088,0.162-0.206,0.269-0.364,0.33
				c-0.156,0.06-0.297,0.116-0.418,0.176l-1.307,0.656c-0.8,0.358-1.591,0.655-2.376,0.894c-0.349,0.077-0.702,0.104-1.055,0.075
				c-0.359-0.031-0.689-0.12-0.993-0.269c-0.304-0.15-0.58-0.363-0.822-0.642c-0.246-0.276-0.417-0.635-0.521-1.072
				c-0.035-0.158-0.068-0.317-0.092-0.477c-0.029-0.157-0.024-0.31,0.012-0.444c-0.192,0.097-0.378,0.213-0.561,0.342
				c-0.183,0.13-0.345,0.242-0.483,0.343c-0.09,0.04-0.202,0.113-0.342,0.223c-0.139,0.109-0.279,0.115-0.418,0.014
				c-0.101-0.078-0.152-0.186-0.142-0.326C301.092,420.713,301.149,420.625,301.253,420.585z M303.916,419.751
				c0.418-0.021,0.822-0.138,1.213-0.356c0.393-0.218,0.736-0.498,1.032-0.836c-0.241-0.099-0.483-0.131-0.716-0.09
				c-0.237,0.043-0.454,0.121-0.653,0.239c-0.201,0.12-0.379,0.271-0.535,0.462C304.099,419.358,303.985,419.553,303.916,419.751z"
				/>
			<path fill="#808184" d="M310.416,420.612c0.123-0.077,0.345-0.224,0.666-0.429c0.323-0.21,0.679-0.424,1.071-0.641
				c0.392-0.22,0.788-0.423,1.188-0.613c0.399-0.188,0.748-0.293,1.044-0.313c0.105-0.04,0.215-0.033,0.327,0.014
				c0.114,0.052,0.196,0.115,0.248,0.197c0.104,0.199,0.111,0.352,0.025,0.461c-0.086,0.11-0.2,0.203-0.338,0.282
				c-0.141,0.081-0.292,0.143-0.458,0.193c-0.165,0.05-0.275,0.115-0.328,0.194c-0.085,0.119-0.064,0.228,0.068,0.327
				c0.128,0.101,0.292,0.18,0.481,0.239c0.192,0.06,0.382,0.113,0.575,0.163c0.192,0.049,0.314,0.097,0.365,0.134
				c0.351,0.221,0.556,0.454,0.615,0.7c0.06,0.249,0.022,0.502-0.115,0.759l0.704-0.416l2.089-1.251
				c0.12-0.079,0.229-0.081,0.327-0.013c0.094,0.068,0.144,0.184,0.144,0.343c0,0.158-0.074,0.271-0.224,0.341
				c-0.148,0.07-0.282,0.135-0.405,0.193c-0.417,0.219-0.841,0.452-1.265,0.701c-0.428,0.246-0.85,0.502-1.268,0.758
				c-0.504,0.278-0.986,0.527-1.449,0.744c-0.462,0.221-0.936,0.33-1.421,0.33c-0.349,0-0.659-0.141-0.929-0.418
				c-0.269-0.277-0.403-0.596-0.403-0.953c-0.018-0.179,0.017-0.323,0.104-0.431c0.085-0.108,0.189-0.179,0.312-0.209
				c0.12-0.03,0.231-0.003,0.325,0.077c0.096,0.078,0.153,0.203,0.17,0.385c0.034,0.398,0.186,0.63,0.457,0.7
				c0.269,0.07,0.586,0.058,0.951-0.044c0.244-0.099,0.467-0.225,0.665-0.37c0.201-0.15,0.346-0.295,0.434-0.433
				c0.227-0.277,0.287-0.495,0.181-0.653c-0.104-0.161-0.282-0.289-0.534-0.391c-0.251-0.098-0.518-0.182-0.796-0.252
				c-0.28-0.07-0.469-0.154-0.574-0.254c-0.157-0.158-0.248-0.317-0.275-0.476c-0.025-0.158-0.021-0.317,0.014-0.478
				c-0.261,0.12-0.516,0.243-0.771,0.373c-0.251,0.13-0.484,0.243-0.693,0.342c-0.158,0.103-0.343,0.243-0.562,0.434
				c-0.218,0.189-0.412,0.282-0.587,0.282c-0.087,0.02-0.161,0.006-0.223-0.044c-0.061-0.049-0.095-0.106-0.103-0.178
				c-0.007-0.069,0-0.146,0.024-0.224C310.3,420.713,310.348,420.655,310.416,420.612z"/>
			<path fill="#808184" d="M318.667,420.612c0.12-0.077,0.347-0.224,0.665-0.429c0.323-0.21,0.68-0.424,1.069-0.641
				c0.395-0.22,0.791-0.423,1.19-0.613c0.399-0.188,0.747-0.293,1.043-0.313c0.104-0.04,0.214-0.033,0.327,0.014
				c0.113,0.052,0.195,0.115,0.247,0.197c0.104,0.199,0.11,0.352,0.026,0.461c-0.086,0.11-0.199,0.203-0.34,0.282
				c-0.138,0.081-0.291,0.143-0.454,0.193c-0.168,0.05-0.277,0.115-0.328,0.194c-0.089,0.119-0.066,0.228,0.065,0.327
				c0.131,0.101,0.292,0.18,0.484,0.239c0.19,0.06,0.381,0.113,0.574,0.163c0.191,0.049,0.313,0.097,0.365,0.134
				c0.351,0.221,0.556,0.454,0.616,0.7c0.059,0.249,0.02,0.502-0.116,0.759l0.703-0.416l2.089-1.251
				c0.122-0.079,0.231-0.081,0.327-0.013c0.095,0.068,0.143,0.184,0.143,0.343c0,0.158-0.074,0.271-0.224,0.341
				c-0.146,0.07-0.279,0.135-0.402,0.193c-0.419,0.219-0.843,0.452-1.268,0.701c-0.425,0.246-0.847,0.502-1.268,0.758
				c-0.502,0.278-0.984,0.527-1.446,0.744c-0.463,0.221-0.938,0.33-1.425,0.33c-0.348,0-0.655-0.141-0.927-0.418
				c-0.27-0.277-0.403-0.596-0.403-0.953c-0.018-0.179,0.018-0.323,0.105-0.431c0.084-0.108,0.189-0.179,0.312-0.209
				c0.119-0.03,0.23-0.003,0.326,0.077c0.097,0.078,0.151,0.203,0.169,0.385c0.033,0.398,0.185,0.63,0.456,0.7
				c0.27,0.07,0.587,0.058,0.953-0.044c0.242-0.099,0.463-0.225,0.664-0.37c0.2-0.15,0.345-0.295,0.433-0.433
				c0.227-0.277,0.286-0.495,0.182-0.653c-0.105-0.161-0.284-0.289-0.533-0.391c-0.252-0.098-0.519-0.182-0.798-0.252
				c-0.278-0.07-0.47-0.154-0.575-0.254c-0.156-0.158-0.247-0.317-0.274-0.476s-0.021-0.317,0.014-0.478
				c-0.262,0.12-0.517,0.243-0.771,0.373c-0.251,0.13-0.482,0.243-0.691,0.342c-0.158,0.103-0.346,0.243-0.563,0.434
				c-0.219,0.189-0.414,0.282-0.586,0.282c-0.088,0.02-0.164,0.006-0.223-0.044c-0.063-0.049-0.095-0.106-0.103-0.178
				c-0.009-0.069,0-0.146,0.023-0.224C318.549,420.713,318.598,420.655,318.667,420.612z"/>
			<path fill="#808184" d="M326.915,420.612c0.401-0.257,0.799-0.495,1.201-0.714c0.4-0.22,0.801-0.438,1.202-0.655
				c0.12-0.061,0.29-0.153,0.508-0.282c0.219-0.13,0.446-0.253,0.691-0.371c0.243-0.121,0.48-0.209,0.707-0.269
				c0.226-0.06,0.407-0.05,0.548,0.032c0.157,0.115,0.232,0.256,0.222,0.415c-0.01,0.159-0.062,0.328-0.157,0.507
				c-0.096,0.176-0.205,0.346-0.325,0.506c-0.121,0.16-0.21,0.289-0.26,0.389c-0.091,0.159-0.17,0.327-0.25,0.505
				c-0.076,0.18-0.159,0.357-0.246,0.538c0.398-0.358,0.752-0.672,1.058-0.939c0.304-0.268,0.578-0.502,0.822-0.702
				c0.242-0.195,0.473-0.365,0.691-0.503c0.217-0.14,0.438-0.259,0.665-0.36c0.262-0.118,0.513-0.122,0.757-0.014
				c0.244,0.11,0.331,0.361,0.261,0.762c-0.033,0.273-0.095,0.54-0.181,0.787c-0.088,0.249-0.192,0.491-0.313,0.729
				c0.383-0.257,0.769-0.521,1.148-0.789c0.383-0.271,0.774-0.539,1.176-0.818c0.331-0.239,0.685-0.486,1.058-0.745
				c0.374-0.258,0.762-0.417,1.162-0.477c0.261-0.039,0.47-0.003,0.629,0.105c0.156,0.106,0.257,0.256,0.309,0.445
				c0.054,0.188,0.063,0.398,0.03,0.623c-0.036,0.229-0.105,0.442-0.211,0.643c-0.226,0.418-0.451,0.811-0.68,1.177
				c-0.228,0.368-0.437,0.751-0.626,1.145c0.277,0.063,0.604,0.021,0.98-0.119c0.372-0.136,0.675-0.266,0.901-0.387
				c0.245-0.098,0.471-0.201,0.678-0.313c0.208-0.107,0.427-0.224,0.654-0.342c0.068-0.039,0.15-0.103,0.245-0.177
				c0.098-0.081,0.201-0.155,0.313-0.227c0.114-0.069,0.222-0.12,0.326-0.147c0.104-0.032,0.199-0.026,0.288,0.015
				c0.172,0.1,0.217,0.219,0.131,0.359c-0.088,0.138-0.224,0.271-0.405,0.402c-0.184,0.13-0.373,0.241-0.572,0.341
				c-0.202,0.099-0.337,0.168-0.406,0.206c-0.244,0.159-0.487,0.3-0.729,0.419c-0.245,0.115-0.487,0.236-0.731,0.355
				c-0.33,0.159-0.695,0.327-1.097,0.508c-0.401,0.178-0.775,0.178-1.124,0c-0.191-0.101-0.313-0.229-0.364-0.389
				c-0.053-0.159-0.065-0.323-0.039-0.492c0.025-0.167,0.087-0.342,0.183-0.521c0.097-0.18,0.196-0.328,0.301-0.447
				c0.104-0.136,0.23-0.284,0.378-0.442c0.147-0.159,0.288-0.331,0.419-0.51c0.129-0.179,0.234-0.36,0.313-0.552
				c0.078-0.188,0.101-0.392,0.064-0.608c-0.174-0.098-0.387-0.09-0.641,0.028c-0.254,0.119-0.446,0.218-0.587,0.3
				c-0.521,0.217-1.029,0.506-1.514,0.861c-0.488,0.358-0.959,0.717-1.411,1.074c-0.07,0.06-0.191,0.172-0.367,0.343
				c-0.175,0.167-0.356,0.323-0.547,0.46c-0.192,0.141-0.378,0.23-0.562,0.271c-0.182,0.037-0.311-0.051-0.376-0.271
				c-0.038-0.098-0.03-0.219,0.023-0.356c0.052-0.139,0.123-0.283,0.209-0.434c0.088-0.15,0.175-0.291,0.262-0.432
				c0.087-0.139,0.146-0.258,0.183-0.356c0.031-0.098,0.081-0.237,0.144-0.417c0.061-0.18,0.107-0.355,0.143-0.536
				c-0.399,0.138-0.775,0.323-1.121,0.55c-0.348,0.229-0.684,0.479-1.004,0.745c-0.323,0.268-0.642,0.557-0.955,0.863
				c-0.313,0.309-0.636,0.604-0.967,0.879c-0.085,0.101-0.19,0.181-0.313,0.241c-0.12,0.06-0.241,0.047-0.365-0.033
				c-0.157-0.079-0.243-0.173-0.262-0.282c-0.018-0.109,0-0.217,0.053-0.328c0.052-0.112,0.123-0.215,0.209-0.314
				c0.087-0.1,0.156-0.177,0.208-0.237c0.488-0.716,0.88-1.51,1.177-2.385c-0.381,0.101-0.753,0.233-1.109,0.402
				c-0.357,0.169-0.701,0.333-1.032,0.491c-0.244,0.139-0.486,0.271-0.729,0.402c-0.245,0.129-0.488,0.285-0.731,0.462
				c-0.088,0.061-0.174,0.076-0.262,0.045c-0.087-0.032-0.146-0.08-0.182-0.148c-0.033-0.071-0.049-0.155-0.039-0.254
				C326.757,420.753,326.813,420.675,326.915,420.612z"/>
			<path fill="#808184" d="M342.582,420.585c0.314-0.181,0.642-0.375,0.98-0.595c0.342-0.219,0.684-0.408,1.033-0.565
				c0.226-0.458,0.547-0.83,0.967-1.119c0.416-0.286,0.859-0.479,1.329-0.58c0.244-0.037,0.526-0.037,0.848,0
				c0.324,0.039,0.57,0.188,0.744,0.446c0.122,0.158,0.153,0.328,0.093,0.506c-0.062,0.18-0.167,0.348-0.313,0.507
				c-0.147,0.159-0.314,0.304-0.497,0.433c-0.184,0.132-0.316,0.224-0.405,0.282c-0.312,0.221-0.658,0.384-1.031,0.493
				c-0.375,0.107-0.753,0.143-1.135,0.104h-0.104c0.07,0.438,0.228,0.772,0.471,1.013c0.241,0.238,0.53,0.412,0.859,0.521
				s0.675,0.154,1.033,0.134c0.356-0.019,0.684-0.06,0.979-0.116c0.419-0.1,0.827-0.226,1.228-0.372
				c0.4-0.147,0.792-0.323,1.177-0.521c0.172-0.099,0.354-0.194,0.535-0.282c0.183-0.09,0.353-0.185,0.508-0.286
				c0.12-0.037,0.246-0.02,0.378,0.062c0.131,0.079,0.144,0.208,0.036,0.386c-0.087,0.162-0.206,0.269-0.364,0.33
				c-0.157,0.06-0.297,0.116-0.416,0.176l-1.309,0.656c-0.802,0.358-1.591,0.655-2.376,0.894c-0.348,0.077-0.701,0.104-1.058,0.075
				c-0.355-0.031-0.687-0.12-0.989-0.269c-0.306-0.15-0.58-0.363-0.823-0.642c-0.245-0.276-0.418-0.635-0.521-1.072
				c-0.037-0.158-0.065-0.317-0.092-0.477c-0.028-0.157-0.022-0.31,0.013-0.444c-0.191,0.097-0.379,0.213-0.563,0.342
				c-0.181,0.13-0.344,0.242-0.481,0.343c-0.087,0.04-0.201,0.113-0.341,0.223c-0.139,0.109-0.279,0.115-0.417,0.014
				c-0.103-0.078-0.152-0.186-0.144-0.326C342.421,420.713,342.478,420.625,342.582,420.585z M345.245,419.751
				c0.418-0.021,0.823-0.138,1.214-0.356c0.392-0.218,0.736-0.498,1.033-0.836c-0.245-0.099-0.484-0.131-0.72-0.09
				c-0.233,0.043-0.451,0.121-0.651,0.239c-0.198,0.12-0.378,0.271-0.534,0.462C345.427,419.358,345.316,419.553,345.245,419.751z"
				/>
			<path fill="#808184" d="M351.746,420.612c0.192-0.116,0.521-0.321,0.994-0.607c0.47-0.288,0.95-0.562,1.447-0.82
				c0.498-0.257,0.952-0.438,1.371-0.537c0.419-0.098,0.681-0.02,0.784,0.239c0.068,0.198,0.046,0.393-0.066,0.581
				c-0.114,0.187-0.196,0.362-0.247,0.519l-0.313,0.834c0.228-0.159,0.452-0.297,0.68-0.416c0.227-0.12,0.453-0.239,0.679-0.355
				c0.557-0.34,1.131-0.697,1.723-1.075c0.59-0.374,1.193-0.665,1.802-0.864c0.227-0.058,0.427-0.064,0.602-0.014
				c0.172,0.05,0.308,0.141,0.403,0.271c0.095,0.129,0.145,0.297,0.145,0.504c0,0.21-0.071,0.433-0.209,0.673
				c-0.156,0.276-0.325,0.525-0.51,0.743c-0.18,0.218-0.37,0.458-0.563,0.714c-0.031,0.06-0.096,0.141-0.18,0.239
				c-0.09,0.099-0.178,0.215-0.276,0.342c-0.095,0.131-0.18,0.259-0.261,0.388c-0.077,0.13-0.124,0.243-0.143,0.344
				c0.121,0.037,0.274,0.037,0.455,0c0.185-0.04,0.368-0.096,0.55-0.165s0.358-0.144,0.521-0.223
				c0.167-0.079,0.292-0.139,0.381-0.18l1.068-0.535c0.068-0.041,0.161-0.102,0.274-0.18c0.112-0.08,0.231-0.154,0.354-0.224
				c0.12-0.069,0.238-0.137,0.353-0.195c0.112-0.06,0.205-0.088,0.274-0.088c0.157,0,0.235,0.088,0.235,0.268
				c0,0.181-0.071,0.318-0.209,0.419c-0.157,0.099-0.322,0.192-0.497,0.281c-0.176,0.088-0.356,0.184-0.548,0.282
				c-0.244,0.157-0.479,0.297-0.706,0.417c-0.228,0.118-0.461,0.247-0.706,0.386c-0.139,0.081-0.361,0.196-0.666,0.344
				c-0.302,0.148-0.607,0.258-0.911,0.327c-0.307,0.068-0.572,0.06-0.796-0.031c-0.227-0.09-0.34-0.332-0.34-0.73
				c0-0.195,0.041-0.375,0.131-0.534c0.086-0.158,0.184-0.314,0.299-0.464s0.236-0.293,0.368-0.433
				c0.13-0.138,0.245-0.266,0.352-0.388c0.103-0.098,0.28-0.307,0.522-0.626c0.242-0.317,0.399-0.614,0.471-0.894
				c-0.471,0.06-0.945,0.2-1.425,0.419c-0.478,0.218-0.918,0.447-1.317,0.683c-0.508,0.279-1.028,0.592-1.568,0.942
				c-0.54,0.347-1.009,0.756-1.409,1.234c-0.087,0.078-0.18,0.123-0.273,0.133c-0.1,0.011-0.188-0.01-0.273-0.059
				c-0.088-0.05-0.154-0.124-0.196-0.224c-0.046-0.101-0.049-0.229-0.013-0.389c0.05-0.178,0.179-0.337,0.388-0.476
				c0.09-0.158,0.175-0.342,0.261-0.551c0.09-0.21,0.15-0.333,0.183-0.373c0.035-0.141,0.07-0.282,0.105-0.432
				c0.033-0.148,0.061-0.304,0.079-0.462c-0.19,0.06-0.383,0.129-0.575,0.206c-0.193,0.08-0.339,0.14-0.44,0.18
				c-0.245,0.12-0.491,0.233-0.733,0.343c-0.243,0.106-0.487,0.23-0.73,0.37c-0.141,0.078-0.266,0.158-0.379,0.236
				c-0.112,0.08-0.237,0.151-0.378,0.211c-0.104,0.06-0.202,0.072-0.3,0.042c-0.097-0.028-0.167-0.073-0.222-0.132
				c-0.053-0.061-0.073-0.137-0.066-0.225C351.56,420.748,351.625,420.675,351.746,420.612z"/>
			<path fill="#808184" d="M365.974,416.919c0.313,0.021,0.627,0.027,0.941,0.016c0.313-0.013,0.627-0.034,0.939-0.076
				c0.487-0.852,1.013-1.742,1.58-2.664c0.566-0.925,1.205-1.704,1.92-2.339c0.138-0.101,0.28-0.199,0.431-0.298
				c0.149-0.1,0.302-0.159,0.457-0.18c0.172,0,0.305,0.08,0.391,0.237c0.088,0.16,0.104,0.331,0.052,0.51
				c-0.087,0.397-0.278,0.776-0.575,1.146c-0.294,0.369-0.547,0.703-0.755,0.999c-0.262,0.398-0.537,0.786-0.822,1.162
				c-0.289,0.378-0.58,0.744-0.877,1.103l1.542-0.416l2.583-0.894c0.123-0.06,0.249-0.105,0.381-0.136
				c0.129-0.031,0.245,0.034,0.352,0.195c0.104,0.161,0.13,0.323,0.077,0.489c-0.051,0.168-0.146,0.283-0.287,0.345
				c-0.8,0.316-1.635,0.566-2.507,0.742c-0.871,0.18-1.723,0.327-2.558,0.448l-0.366,0.087c-0.21,0.22-0.427,0.438-0.652,0.657
				c-0.226,0.216-0.46,0.438-0.707,0.655c-0.119,0.199-0.226,0.401-0.311,0.609c-0.09,0.206-0.175,0.423-0.262,0.642
				c-0.035,0.06-0.087,0.209-0.155,0.445c-0.074,0.24-0.136,0.484-0.196,0.732c-0.062,0.246-0.108,0.477-0.146,0.685
				c-0.033,0.205-0.025,0.313,0.028,0.313c0.366,0.1,0.759,0.072,1.187-0.077s0.796-0.271,1.111-0.37
				c0.398-0.158,0.799-0.318,1.199-0.478c0.401-0.159,0.799-0.337,1.2-0.535c0.104-0.04,0.238-0.069,0.405-0.09
				c0.166-0.021,0.239,0.1,0.222,0.359c-0.017,0.177-0.125,0.303-0.325,0.369c-0.2,0.069-0.36,0.134-0.483,0.195l-1.855,0.772
				c-0.207,0.104-0.5,0.241-0.874,0.42c-0.372,0.177-0.749,0.322-1.121,0.431c-0.374,0.107-0.715,0.125-1.019,0.046
				c-0.306-0.081-0.495-0.347-0.562-0.805c-0.036-0.458,0.038-0.91,0.222-1.355c0.182-0.446,0.396-0.928,0.641-1.446
				c-0.801,0.617-1.638,1.163-2.506,1.642c-0.105,0.06-0.191,0.069-0.263,0.027c-0.068-0.037-0.121-0.097-0.157-0.178
				c-0.032-0.077-0.038-0.163-0.012-0.252c0.025-0.09,0.082-0.164,0.167-0.226c0.611-0.315,1.197-0.665,1.763-1.041
				c0.568-0.377,1.119-0.797,1.659-1.252l0.365-0.714c-0.262,0.019-0.547,0.061-0.86,0.118c-0.313,0.057-0.567,0.031-0.76-0.087
				c-0.139-0.1-0.186-0.24-0.143-0.418C365.718,417.01,365.816,416.919,365.974,416.919z M370.701,414.09
				c0.088-0.138,0.168-0.287,0.245-0.447c0.08-0.158,0.164-0.317,0.25-0.475c-0.177,0.2-0.337,0.396-0.483,0.596
				c-0.15,0.199-0.274,0.354-0.38,0.477c-0.312,0.397-0.618,0.8-0.911,1.205c-0.296,0.409-0.566,0.84-0.81,1.295
				C369.395,415.927,370.09,415.043,370.701,414.09z"/>
		</g>
	</g>
	<g>
		<path fill="#0C98A7" d="M169.092,393.979c0.819,0.082,1.631,0.136,2.442,0.174c0.809,0.041,1.615,0.059,2.415,0.059
			c2.809,0,5.023-0.125,6.643-0.379c1.62-0.254,2.957-0.666,4.013-1.23c0.389,0.665,0.676,1.304,0.862,1.918
			c0.186,0.613,0.278,1.237,0.278,1.858c0,0.939-0.339,1.595-1.024,1.963c-0.684,0.372-1.96,0.557-3.833,0.557
			c-0.665,0-1.924-0.029-3.776-0.089c-1.857-0.059-3.366-0.087-4.539-0.087c-1.657,0-3.327,0.039-5.004,0.113
			c-1.678,0.081-2.528,0.119-2.548,0.119c-0.662,0-1.129-0.155-1.402-0.47c-0.274-0.31-0.411-0.858-0.411-1.638
			c0-0.387,0.047-1.404,0.147-3.041c0.352-6.185,0.528-12.061,0.528-17.622c0-5.229-0.149-9.238-0.44-12.032
			c-0.294-2.79-0.772-4.799-1.435-6.03c0.899-0.488,1.752-0.858,2.561-1.113c0.809-0.253,1.594-0.379,2.355-0.379
			c1.095,0,1.839,0.278,2.24,0.834c0.4,0.554,0.6,1.702,0.6,3.439c0,0.508-0.049,1.854-0.146,4.039
			c-0.352,8.371-0.525,16.271-0.525,23.709L169.092,393.979L169.092,393.979z"/>
		<path fill="#0C98A7" d="M197.189,397.523c-0.822,0.45-1.598,0.778-2.34,0.995c-0.742,0.214-1.456,0.317-2.138,0.317
			c-0.956,0-1.604-0.256-1.943-0.774c-0.345-0.517-0.514-1.554-0.514-3.115c0-0.902,0.089-2.906,0.265-6.032
			c0.172-3.122,0.262-5.805,0.262-8.05c0-2.438-0.117-4.419-0.354-5.941c-0.234-1.522-0.614-2.818-1.142-3.891
			c0.725-0.428,1.464-0.757,2.225-0.979c0.762-0.224,1.514-0.337,2.258-0.337c0.896,0,1.511,0.219,1.844,0.658
			c0.329,0.438,0.497,1.253,0.497,2.444c0,0.311-0.089,2.021-0.264,5.122c-0.174,3.103-0.261,6.048-0.261,8.839
			c0,2.615,0.129,4.78,0.394,6.499C196.239,394.997,196.641,396.41,197.189,397.523z M196.954,360.789
			c0,1.115-0.39,2.04-1.168,2.781c-0.783,0.741-1.768,1.115-2.958,1.115c-1.036,0-1.856-0.295-2.46-0.877
			c-0.605-0.586-0.906-1.377-0.906-2.375c0-1.091,0.39-2.023,1.17-2.794c0.78-0.772,1.727-1.157,2.839-1.157
			c1.013,0,1.85,0.314,2.503,0.937C196.628,359.043,196.954,359.833,196.954,360.789z"/>
		<path fill="#0C98A7" d="M206.907,375.365c-0.334,0-0.79,0.014-1.378,0.043c-0.583,0.03-0.964,0.043-1.142,0.043
			c-0.8,0-1.361-0.111-1.681-0.335c-0.323-0.225-0.483-0.612-0.483-1.157c0-0.253,0.043-0.553,0.131-0.894
			c0.09-0.341,0.229-0.727,0.425-1.157c0.158,0,0.418,0.008,0.79,0.031c0.371,0.019,0.664,0.029,0.877,0.029
			c0.509,0,1.318-0.029,2.431-0.087c0.136,0,0.243-0.008,0.322-0.031c0-0.215,0.011-0.538,0.029-0.965
			c0.018-0.433,0.029-0.742,0.029-0.936c0-1.523-0.099-2.866-0.292-4.025c-0.196-1.162-0.501-2.182-0.91-3.059
			c0.841-0.411,1.59-0.722,2.256-0.938c0.662-0.213,1.229-0.322,1.698-0.322c0.798,0,1.38,0.249,1.74,0.747
			c0.361,0.499,0.542,1.314,0.542,2.445c0,0.489-0.09,2.021-0.264,4.596c-0.058,0.957-0.106,1.717-0.148,2.283
			c1.131-0.159,2.152-0.274,3.061-0.353c0.909-0.079,1.72-0.116,2.445-0.116c0.643,0,1.106,0.116,1.388,0.354
			c0.284,0.229,0.427,0.613,0.427,1.141c0,0.29-0.089,0.655-0.266,1.097c-0.174,0.439-0.427,0.931-0.759,1.476
			c-0.507-0.117-1.045-0.203-1.61-0.263c-0.567-0.059-1.25-0.087-2.05-0.087c-0.136,0-0.548,0.015-1.23,0.042
			c-0.683,0.031-1.267,0.052-1.757,0.077c-0.173,3.042-0.302,5.55-0.379,7.52c-0.077,1.971-0.117,3.58-0.117,4.83
			c0,2.713,0.24,4.611,0.717,5.695c0.479,1.083,1.283,1.625,2.415,1.625c0.313,0,0.64-0.06,0.979-0.174
			c0.342-0.12,0.692-0.305,1.041-0.559c0.178,0.39,0.306,0.733,0.381,1.025c0.08,0.292,0.116,0.557,0.116,0.788
			c0,0.958-0.395,1.744-1.183,2.359c-0.792,0.615-1.821,0.92-3.088,0.92c-2.109,0-3.675-0.697-4.698-2.092
			c-1.022-1.393-1.536-3.536-1.536-6.426c0-0.82,0.099-2.988,0.292-6.511C206.663,380.522,206.806,377.627,206.907,375.365z"/>
		<path fill="#0C98A7" d="M245.104,392.663c0.431,0.528,0.747,1.019,0.95,1.477c0.206,0.459,0.307,0.903,0.307,1.331
			c0,1.053-0.784,1.92-2.356,2.593c-1.573,0.675-3.623,1.009-6.162,1.009c-4.663,0-8.316-1.272-10.961-3.819
			c-2.646-2.546-3.966-6.063-3.966-10.551c0-4.526,1.331-8.231,3.995-11.108c2.665-2.879,6.083-4.317,10.261-4.317
			c3.218,0,5.862,0.916,7.932,2.75c2.066,1.834,3.101,4.178,3.101,7.026c0,2.243-0.859,3.844-2.578,4.797
			c-1.714,0.959-4.632,1.437-8.749,1.437c-1.54,0-3.078-0.054-4.609-0.159c-1.532-0.109-3.049-0.271-4.553-0.485v0.411
			c0,3.041,0.9,5.451,2.693,7.228c1.796,1.779,4.234,2.665,7.317,2.665c1.444,0,2.782-0.191,4.011-0.571
			C242.968,393.994,244.088,393.424,245.104,392.663z M228.07,381.16c1.288,0.215,2.707,0.376,4.255,0.484
			c1.552,0.108,3.226,0.16,5.023,0.16c2.438,0,4.068-0.225,4.887-0.67c0.82-0.451,1.229-1.26,1.229-2.43
			c0-1.778-0.613-3.18-1.841-4.218c-1.231-1.033-2.909-1.551-5.035-1.551c-2.264,0-4.149,0.722-5.65,2.166
			C229.434,376.544,228.48,378.567,228.07,381.16z"/>
		<path fill="#0C98A7" d="M259.18,375.803c1.463-2.048,2.86-3.575,4.186-4.581c1.328-1.001,2.632-1.506,3.923-1.506
			c1.091,0,2.024,0.347,2.794,1.038c0.772,0.695,1.156,1.548,1.156,2.562c0,0.665-0.22,1.313-0.656,1.947
			c-0.44,0.634-1.1,1.262-1.979,1.89c-0.312-0.859-0.696-1.496-1.156-1.906c-0.456-0.408-1.01-0.614-1.653-0.614
			c-0.957,0-1.96,0.473-3.016,1.418c-1.052,0.947-2.087,2.312-3.102,4.085c-0.098,0.877-0.175,1.773-0.236,2.676
			c-0.056,0.912-0.085,1.792-0.085,2.65c0,2.928,0.162,5.368,0.481,7.319c0.32,1.95,0.824,3.551,1.507,4.801
			c-0.779,0.409-1.545,0.72-2.295,0.937c-0.753,0.214-1.489,0.317-2.21,0.317c-0.957,0-1.616-0.233-1.974-0.715
			c-0.363-0.479-0.544-1.441-0.544-2.882c0-0.525,0.104-2.55,0.308-6.072c0.206-3.524,0.305-6.795,0.305-9.824
			c0-2.473-0.095-4.378-0.292-5.702c-0.196-1.331-0.518-2.499-0.967-3.516c0.39-0.137,0.778-0.237,1.157-0.308
			c0.379-0.068,0.777-0.102,1.184-0.102c1.13,0,1.971,0.266,2.518,0.806c0.55,0.534,0.821,1.36,0.821,2.469
			c0,0.256-0.017,0.603-0.044,1.042C259.285,374.472,259.241,375.062,259.18,375.803z"/>
		<path fill="#0C98A7" d="M298.93,397.289c-0.761,0.488-1.455,0.854-2.075,1.11c-0.625,0.256-1.173,0.382-1.644,0.382
			c-0.84,0-1.449-0.261-1.83-0.778c-0.379-0.516-0.599-1.35-0.656-2.5c-1.464,1.25-2.914,2.176-4.347,2.779
			c-1.434,0.605-2.894,0.911-4.375,0.911c-2.929,0-5.289-0.821-7.083-2.462c-1.794-1.638-2.696-3.792-2.696-6.467
			c0-3.024,1.237-5.448,3.705-7.271c2.465-1.828,5.789-2.737,9.964-2.737c0.683,0,1.41,0.023,2.182,0.069
			c0.771,0.049,1.594,0.124,2.472,0.218c0.041-0.172,0.065-0.354,0.075-0.537c0.009-0.187,0.015-0.406,0.015-0.662
			c0-2.029-0.571-3.573-1.711-4.637c-1.145-1.064-2.797-1.595-4.964-1.595c-1.794,0-3.274,0.299-4.434,0.894
			c-1.162,0.596-2.103,1.522-2.826,2.765c-0.702-0.173-1.234-0.476-1.593-0.905c-0.364-0.433-0.542-0.988-0.542-1.669
			c0-1.426,0.904-2.603,2.708-3.529c1.806-0.925,4.162-1.388,7.066-1.388c3.573,0,6.25,0.862,8.036,2.589
			c1.788,1.729,2.68,4.307,2.68,7.744c0,0.643-0.031,1.767-0.089,3.363c-0.059,1.6-0.089,2.89-0.089,3.866
			c0,2.69,0.161,4.858,0.483,6.498C297.687,394.977,298.208,396.292,298.93,397.289z M292.49,384.262
			c-0.9-0.136-1.705-0.24-2.415-0.308c-0.71-0.067-1.319-0.104-1.827-0.104c-3.024,0-5.306,0.504-6.852,1.51
			c-1.54,1.004-2.313,2.504-2.313,4.493c0,1.6,0.536,2.864,1.609,3.777c1.073,0.917,2.555,1.377,4.449,1.377
			c1.426,0,2.757-0.268,3.995-0.807c1.241-0.535,2.378-1.338,3.411-2.412c-0.038-0.976-0.063-1.772-0.073-2.386
			c-0.01-0.613-0.014-1.204-0.014-1.773c0-0.352,0.01-0.903,0.03-1.653C292.509,385.225,292.509,384.651,292.49,384.262z"/>
		<path fill="#BAC733" d="M305.808,394.157c0.704,0.37,1.375,0.644,2.02,0.82c0.641,0.175,1.265,0.263,1.871,0.263
			c1.405,0,2.535-0.337,3.397-1.009c0.855-0.672,1.286-1.557,1.286-2.649c0-0.858-0.237-1.659-0.704-2.399
			c-0.468-0.743-1.347-1.642-2.634-2.693c-0.215-0.158-0.507-0.39-0.877-0.704c-3.297-2.732-4.948-5.152-4.948-7.26
			c0-0.857,0.169-1.714,0.5-2.577c0.333-0.858,0.819-1.677,1.46-2.458c1.231-1.463,2.67-2.58,4.315-3.355
			c1.654-0.768,3.43-1.155,5.344-1.155c0.937,0,1.651,0.183,2.136,0.544c0.488,0.362,0.73,0.884,0.73,1.567
			c0,0.33-0.089,0.726-0.262,1.182c-0.174,0.46-0.469,1.04-0.879,1.743c-0.526-0.215-1.022-0.376-1.492-0.482
			c-0.469-0.107-0.926-0.159-1.378-0.159c-1.62,0-2.931,0.39-3.937,1.18c-1.006,0.791-1.507,1.81-1.507,3.062
			c0,1.365,1.356,3.209,4.068,5.531c0.682,0.586,1.2,1.044,1.552,1.377c1.149,1.014,1.995,2.013,2.543,3
			c0.547,0.984,0.82,1.99,0.82,3.028c0,2.44-1.075,4.542-3.232,6.309c-2.154,1.765-4.776,2.649-7.859,2.649
			c-1.073,0-1.902-0.216-2.474-0.643c-0.574-0.427-0.863-1.032-0.863-1.816c0-0.373,0.078-0.776,0.235-1.228
			C305.204,395.375,305.459,394.819,305.808,394.157z"/>
		<path fill="#BAC733" d="M346.583,392.663c0.433,0.528,0.745,1.019,0.948,1.477c0.206,0.459,0.309,0.903,0.309,1.331
			c0,1.053-0.786,1.92-2.357,2.593c-1.571,0.675-3.623,1.009-6.159,1.009c-4.665,0-8.318-1.272-10.961-3.819
			c-2.649-2.546-3.966-6.063-3.966-10.551c0-4.526,1.33-8.231,3.996-11.108c2.667-2.879,6.083-4.317,10.259-4.317
			c3.213,0,5.861,0.916,7.932,2.75c2.065,1.834,3.101,4.178,3.101,7.026c0,2.243-0.856,3.844-2.573,4.797
			c-1.718,0.959-4.64,1.437-8.751,1.437c-1.543,0-3.078-0.054-4.612-0.159c-1.529-0.109-3.049-0.271-4.552-0.485v0.411
			c0,3.041,0.897,5.451,2.691,7.228c1.792,1.779,4.233,2.665,7.32,2.665c1.441,0,2.779-0.191,4.01-0.571
			C344.445,393.994,345.565,393.424,346.583,392.663z M329.547,381.16c1.288,0.215,2.707,0.376,4.258,0.484
			c1.553,0.108,3.226,0.16,5.021,0.16c2.439,0,4.072-0.225,4.889-0.67c0.82-0.451,1.231-1.26,1.231-2.43
			c0-1.778-0.616-3.18-1.845-4.218c-1.229-1.033-2.908-1.551-5.033-1.551c-2.264,0-4.148,0.722-5.648,2.166
			C330.91,376.544,329.955,378.567,329.547,381.16z"/>
		<path fill="#BAC733" d="M376.028,392.663c0.431,0.528,0.744,1.019,0.949,1.477c0.205,0.459,0.31,0.903,0.31,1.331
			c0,1.053-0.788,1.92-2.357,2.593c-1.572,0.675-3.625,1.009-6.161,1.009c-4.664,0-8.318-1.272-10.965-3.819
			c-2.643-2.546-3.962-6.063-3.962-10.551c0-4.526,1.33-8.231,3.996-11.108c2.663-2.879,6.082-4.317,10.257-4.317
			c3.217,0,5.863,0.916,7.934,2.75c2.065,1.834,3.102,4.178,3.102,7.026c0,2.243-0.858,3.844-2.576,4.797
			c-1.72,0.959-4.635,1.437-8.751,1.437c-1.539,0-3.074-0.054-4.611-0.159c-1.53-0.109-3.05-0.271-4.551-0.485v0.411
			c0,3.041,0.897,5.451,2.691,7.228c1.794,1.779,4.233,2.665,7.318,2.665c1.446,0,2.782-0.191,4.009-0.571
			C373.891,393.994,375.013,393.424,376.028,392.663z M358.992,381.16c1.288,0.215,2.707,0.376,4.258,0.484
			c1.552,0.108,3.226,0.16,5.021,0.16c2.437,0,4.071-0.225,4.89-0.67c0.819-0.451,1.23-1.26,1.23-2.43
			c0-1.778-0.615-3.18-1.845-4.218c-1.233-1.033-2.908-1.551-5.034-1.551c-2.262,0-4.147,0.722-5.649,2.166
			C360.358,376.544,359.401,378.567,358.992,381.16z"/>
	</g>
	<path fill="#808184" d="M453.693,425.541c0,0-14.266-2.527-29.227-3.192c-13.572-0.604-48.749,0.628-48.749,0.628
		S426.19,423.603,453.693,425.541z"/>
	<g>
		<path fill="#0C98A7" d="M401.425,385.674c0,0,8.208-1.973,14.343,1.836l4.675-8.974l-15.017-37.506
			c0,0-9.148,10.833-10.386,22.373C395.04,363.406,392.683,375.029,401.425,385.674z"/>
		<path fill="#BAC733" d="M429.481,401.201c0,0-2.688-8.005-9.18-11.186l5.124-8.718l39.756-7.197c0,0-4.322,13.503-13.439,20.685
			C451.742,394.788,443.144,402.951,429.481,401.201z"/>
		<path fill="#0C98A7" d="M424.153,371.187l7.766-14.02l-8.167-28.227c0,0-9.451,3.539-14.947,8.845L424.153,371.187z"/>
		<path fill="#BAC733" d="M429.399,374.037l7.528-14.148l28.128-8.516c0,0,2.176,9.854,0.719,17.353L429.399,374.037z"/>
		<polygon fill="#0C98A7" points="427.847,327.388 435.695,349.447 454.914,317.895 		"/>
		<polygon fill="#BAC733" points="464.069,346.568 441.402,351.609 457.77,318.824 		"/>
		<path fill="#808184" d="M403.053,414.848l12.217-6.326c0,0,2.248-1.235-1.057-4.018c0,0-3.267-4.371-10.297-4.75
			c0,0-1.725-0.188-1.613,1.75l0.268,13.354"/>
	</g>
</g>
</svg>
