<?xml version="1.0" encoding="utf-8"?>
<!-- Generator: Adobe Illustrator 16.0.0, SVG Export Plug-In . SVG Version: 6.00 Build 0)  -->
<!DOCTYPE svg PUBLIC "-//W3C//DTD SVG 1.1//EN" "http://www.w3.org/Graphics/SVG/1.1/DTD/svg11.dtd">
<svg version="1.1" id="Layer_1" xmlns="http://www.w3.org/2000/svg" xmlns:xlink="http://www.w3.org/1999/xlink" x="0px" y="0px"
	 width="612px" height="792px" viewBox="0 0 612 792" enable-background="new 0 0 612 792" xml:space="preserve">
<g>
	<g>
		<path fill="#0696A6" d="M210.185,474.848c0.539,0.054,1.073,0.09,1.607,0.115c0.531,0.027,1.062,0.039,1.588,0.039
			c1.847,0,3.303-0.084,4.368-0.251c1.065-0.166,1.944-0.436,2.638-0.808c0.256,0.437,0.445,0.855,0.567,1.261
			c0.122,0.404,0.184,0.812,0.184,1.222c0,0.616-0.225,1.047-0.674,1.29c-0.45,0.244-1.29,0.365-2.521,0.365
			c-0.437,0-1.265-0.02-2.483-0.059c-1.22-0.038-2.213-0.057-2.985-0.057c-1.089,0-2.187,0.025-3.291,0.076
			s-1.662,0.076-1.675,0.076c-0.436,0-0.744-0.103-0.923-0.309c-0.181-0.204-0.27-0.563-0.27-1.077c0-0.257,0.032-0.925,0.096-2.002
			c0.232-4.067,0.347-7.93,0.347-11.587c0-3.438-0.097-6.075-0.289-7.911c-0.192-1.835-0.508-3.155-0.943-3.965
			c0.591-0.32,1.152-0.563,1.684-0.73c0.533-0.168,1.049-0.251,1.55-0.251c0.719,0,1.208,0.184,1.472,0.549
			c0.263,0.366,0.396,1.12,0.396,2.263c0,0.333-0.033,1.218-0.097,2.656c-0.232,5.504-0.346,10.7-0.346,15.59V474.848z"/>
		<path fill="#0696A6" d="M228.663,477.177c-0.54,0.296-1.052,0.515-1.54,0.655c-0.488,0.141-0.957,0.211-1.406,0.211
			c-0.628,0-1.055-0.17-1.279-0.51c-0.225-0.34-0.337-1.023-0.337-2.05c0-0.592,0.058-1.911,0.173-3.967
			c0.115-2.053,0.173-3.816,0.173-5.293c0-1.604-0.077-2.906-0.231-3.905c-0.153-1.002-0.404-1.854-0.751-2.562
			c0.476-0.282,0.963-0.498,1.463-0.645c0.501-0.147,0.996-0.223,1.483-0.223c0.589,0,0.994,0.145,1.212,0.435
			c0.218,0.287,0.327,0.824,0.327,1.605c0,0.205-0.058,1.328-0.173,3.368c-0.115,2.04-0.172,3.979-0.172,5.813
			c0,1.721,0.086,3.145,0.259,4.272C228.037,475.516,228.302,476.445,228.663,477.177z M228.508,453.021
			c0,0.73-0.257,1.341-0.769,1.827c-0.514,0.487-1.162,0.732-1.944,0.732c-0.681,0-1.22-0.192-1.618-0.577
			c-0.397-0.386-0.596-0.906-0.596-1.56c0-0.72,0.257-1.331,0.77-1.839c0.514-0.508,1.136-0.761,1.868-0.761
			c0.666,0,1.215,0.206,1.646,0.616C228.294,451.872,228.508,452.393,228.508,453.021z"/>
		<path fill="#0696A6" d="M235.053,462.605c-0.219,0-0.52,0.011-0.906,0.029c-0.385,0.02-0.634,0.028-0.751,0.028
			c-0.526,0-0.895-0.073-1.105-0.222c-0.212-0.146-0.318-0.4-0.318-0.761c0-0.166,0.028-0.361,0.087-0.587
			c0.058-0.225,0.151-0.479,0.279-0.761c0.103,0,0.275,0.006,0.519,0.021c0.244,0.013,0.437,0.02,0.578,0.02
			c0.334,0,0.867-0.02,1.597-0.059c0.09,0,0.162-0.007,0.212-0.021c0-0.141,0.006-0.353,0.02-0.634
			c0.012-0.283,0.019-0.488,0.019-0.616c0-1.002-0.065-1.884-0.192-2.646c-0.129-0.765-0.328-1.436-0.597-2.013
			c0.552-0.27,1.046-0.476,1.482-0.615c0.436-0.142,0.809-0.213,1.117-0.213c0.525,0,0.907,0.163,1.145,0.491
			c0.236,0.327,0.356,0.863,0.356,1.607c0,0.32-0.058,1.328-0.173,3.021c-0.038,0.628-0.071,1.128-0.096,1.5
			c0.744-0.103,1.415-0.18,2.011-0.23c0.598-0.051,1.132-0.076,1.608-0.076c0.424,0,0.728,0.076,0.914,0.23
			c0.186,0.153,0.28,0.404,0.28,0.752c0,0.19-0.057,0.433-0.173,0.721c-0.115,0.289-0.282,0.613-0.5,0.973
			c-0.334-0.078-0.688-0.135-1.059-0.174c-0.372-0.039-0.822-0.057-1.347-0.057c-0.09,0-0.36,0.009-0.809,0.027
			c-0.449,0.02-0.833,0.034-1.155,0.048c-0.114,2.004-0.198,3.651-0.25,4.946c-0.051,1.297-0.077,2.354-0.077,3.177
			c0,1.783,0.157,3.031,0.472,3.744c0.314,0.712,0.843,1.066,1.587,1.066c0.206,0,0.42-0.037,0.645-0.114
			c0.224-0.077,0.453-0.199,0.684-0.366c0.116,0.257,0.2,0.48,0.25,0.675c0.051,0.191,0.078,0.365,0.078,0.519
			c0,0.63-0.261,1.147-0.78,1.551c-0.519,0.404-1.197,0.606-2.031,0.606c-1.385,0-2.416-0.459-3.089-1.376s-1.01-2.326-1.01-4.227
			c0-0.539,0.063-1.966,0.192-4.282C234.892,465.996,234.988,464.095,235.053,462.605z"/>
		<path fill="#0696A6" d="M260.171,473.981c0.283,0.348,0.491,0.671,0.625,0.972c0.135,0.302,0.202,0.594,0.202,0.876
			c0,0.691-0.516,1.261-1.549,1.704c-1.033,0.441-2.384,0.664-4.051,0.664c-3.067,0-5.47-0.838-7.209-2.513
			s-2.608-3.986-2.608-6.938c0-2.978,0.876-5.413,2.627-7.306s4.001-2.84,6.747-2.84c2.117,0,3.856,0.604,5.216,1.811
			s2.04,2.746,2.04,4.619c0,1.476-0.565,2.527-1.694,3.156c-1.128,0.63-3.048,0.942-5.755,0.942c-1.013,0-2.024-0.035-3.031-0.104
			c-1.007-0.07-2.004-0.178-2.993-0.317v0.27c0,2.001,0.59,3.588,1.771,4.754c1.181,1.17,2.784,1.753,4.812,1.753
			c0.949,0,1.828-0.125,2.637-0.375C258.767,474.857,259.503,474.481,260.171,473.981z M248.97,466.417
			c0.847,0.142,1.779,0.248,2.799,0.318c1.02,0.069,2.121,0.104,3.301,0.104c1.604,0,2.677-0.146,3.215-0.441
			c0.539-0.297,0.808-0.828,0.808-1.599c0-1.168-0.404-2.091-1.212-2.771c-0.809-0.681-1.913-1.021-3.312-1.021
			c-1.489,0-2.727,0.477-3.715,1.425C249.867,463.383,249.239,464.711,248.97,466.417z"/>
		<path fill="#0696A6" d="M269.429,462.896c0.963-1.349,1.88-2.354,2.752-3.015c0.873-0.66,1.732-0.99,2.58-0.99
			c0.718,0,1.332,0.229,1.838,0.684c0.507,0.457,0.76,1.018,0.76,1.685c0,0.438-0.145,0.863-0.433,1.279
			c-0.29,0.419-0.722,0.832-1.3,1.243c-0.206-0.565-0.459-0.982-0.761-1.252c-0.301-0.271-0.663-0.404-1.087-0.404
			c-0.628,0-1.29,0.313-1.982,0.934c-0.692,0.622-1.373,1.519-2.04,2.686c-0.064,0.578-0.115,1.165-0.154,1.761
			c-0.039,0.598-0.058,1.179-0.058,1.742c0,1.926,0.106,3.53,0.317,4.813c0.211,1.283,0.542,2.336,0.991,3.157
			c-0.512,0.271-1.016,0.476-1.51,0.616c-0.495,0.141-0.979,0.211-1.454,0.211c-0.629,0-1.062-0.157-1.299-0.473
			c-0.239-0.313-0.357-0.945-0.357-1.896c0-0.348,0.067-1.678,0.202-3.994c0.134-2.315,0.202-4.469,0.202-6.458
			c0-1.629-0.063-2.88-0.191-3.752c-0.129-0.874-0.341-1.643-0.636-2.311c0.256-0.09,0.51-0.157,0.76-0.202
			c0.251-0.045,0.51-0.067,0.78-0.067c0.745,0,1.296,0.178,1.655,0.529c0.36,0.354,0.54,0.896,0.54,1.626
			c0,0.167-0.01,0.396-0.028,0.685C269.496,462.02,269.468,462.408,269.429,462.896z"/>
		<path fill="#0696A6" d="M295.568,477.022c-0.5,0.32-0.957,0.563-1.367,0.73c-0.41,0.168-0.769,0.251-1.077,0.251
			c-0.553,0-0.953-0.171-1.204-0.511c-0.25-0.34-0.394-0.89-0.432-1.646c-0.963,0.821-1.916,1.432-2.858,1.828
			c-0.943,0.397-1.903,0.599-2.878,0.599c-1.925,0-3.478-0.539-4.658-1.618c-1.18-1.077-1.771-2.495-1.771-4.254
			c0-1.987,0.811-3.582,2.435-4.782c1.623-1.199,3.807-1.799,6.553-1.799c0.449,0,0.927,0.016,1.434,0.047
			c0.507,0.032,1.049,0.081,1.626,0.145c0.026-0.115,0.042-0.232,0.049-0.354c0.006-0.122,0.009-0.268,0.009-0.435
			c0-1.335-0.375-2.351-1.125-3.051c-0.75-0.699-1.838-1.049-3.263-1.049c-1.18,0-2.152,0.196-2.917,0.587
			c-0.763,0.392-1.382,0.999-1.856,1.819c-0.462-0.115-0.812-0.314-1.049-0.597c-0.239-0.283-0.357-0.648-0.357-1.098
			c0-0.937,0.594-1.71,1.781-2.32c1.186-0.607,2.736-0.914,4.647-0.914c2.348,0,4.11,0.567,5.284,1.704
			c1.174,1.136,1.761,2.832,1.761,5.09c0,0.426-0.019,1.162-0.057,2.215c-0.039,1.053-0.058,1.898-0.058,2.541
			c0,1.771,0.106,3.194,0.317,4.272C294.75,475.502,295.093,476.369,295.568,477.022z M291.333,468.457
			c-0.59-0.09-1.12-0.157-1.588-0.202c-0.468-0.045-0.869-0.066-1.203-0.066c-1.989,0-3.49,0.33-4.503,0.991
			c-1.014,0.66-1.521,1.646-1.521,2.954c0,1.054,0.353,1.881,1.059,2.482c0.705,0.604,1.68,0.905,2.926,0.905
			c0.937,0,1.813-0.178,2.627-0.529c0.815-0.354,1.563-0.882,2.242-1.588c-0.026-0.643-0.041-1.165-0.047-1.568
			c-0.007-0.404-0.01-0.792-0.01-1.165c0-0.229,0.006-0.594,0.019-1.088C291.346,469.09,291.346,468.714,291.333,468.457z"/>
		<path fill="#BCC831" d="M300.091,474.963c0.462,0.244,0.905,0.424,1.328,0.539c0.423,0.116,0.834,0.174,1.232,0.174
			c0.924,0,1.667-0.222,2.232-0.665c0.565-0.441,0.847-1.021,0.847-1.741c0-0.563-0.153-1.091-0.461-1.578s-0.886-1.077-1.732-1.771
			c-0.142-0.103-0.334-0.256-0.577-0.461c-2.169-1.798-3.253-3.388-3.253-4.774c0-0.563,0.109-1.128,0.328-1.692
			c0.219-0.565,0.539-1.104,0.962-1.617c0.809-0.962,1.754-1.696,2.839-2.204c1.084-0.506,2.254-0.76,3.514-0.76
			c0.616,0,1.083,0.119,1.404,0.354c0.321,0.238,0.48,0.582,0.48,1.03c0,0.219-0.058,0.479-0.174,0.78
			c-0.114,0.302-0.308,0.683-0.576,1.145c-0.348-0.142-0.675-0.247-0.982-0.316c-0.308-0.07-0.609-0.105-0.903-0.105
			c-1.064,0-1.928,0.259-2.589,0.779c-0.661,0.52-0.991,1.188-0.991,2.012c0,0.897,0.892,2.109,2.675,3.638
			c0.449,0.386,0.79,0.687,1.021,0.904c0.757,0.667,1.314,1.326,1.674,1.974s0.54,1.312,0.54,1.991c0,1.604-0.709,2.986-2.127,4.148
			c-1.418,1.161-3.141,1.741-5.167,1.741c-0.706,0-1.249-0.143-1.626-0.424c-0.379-0.28-0.569-0.68-0.569-1.192
			c0-0.244,0.052-0.514,0.155-0.81C299.693,475.765,299.861,475.399,300.091,474.963z"/>
		<path fill="#BCC831" d="M326.903,473.981c0.282,0.348,0.49,0.671,0.626,0.972c0.136,0.302,0.203,0.594,0.203,0.876
			c0,0.691-0.519,1.261-1.551,1.704c-1.032,0.441-2.384,0.664-4.052,0.664c-3.066,0-5.47-0.838-7.208-2.513
			c-1.739-1.675-2.607-3.986-2.607-6.938c0-2.978,0.876-5.413,2.628-7.306c1.751-1.893,3.999-2.84,6.745-2.84
			c2.116,0,3.855,0.604,5.216,1.811c1.359,1.206,2.041,2.746,2.041,4.619c0,1.476-0.564,2.527-1.693,3.156
			c-1.13,0.63-3.049,0.942-5.756,0.942c-1.014,0-2.023-0.035-3.032-0.104c-1.006-0.07-2.004-0.178-2.992-0.317v0.27
			c0,2.001,0.59,3.588,1.771,4.754c1.181,1.17,2.785,1.753,4.812,1.753c0.95,0,1.829-0.125,2.639-0.375
			C325.499,474.857,326.236,474.481,326.903,473.981z M315.702,466.417c0.847,0.142,1.78,0.248,2.8,0.318
			c1.021,0.069,2.121,0.104,3.301,0.104c1.604,0,2.676-0.146,3.215-0.441c0.539-0.297,0.81-0.828,0.81-1.599
			c0-1.168-0.404-2.091-1.213-2.771c-0.81-0.681-1.912-1.021-3.311-1.021c-1.489,0-2.729,0.477-3.716,1.425
			C316.6,463.383,315.972,464.711,315.702,466.417z"/>
		<path fill="#BCC831" d="M346.268,473.981c0.282,0.348,0.49,0.671,0.625,0.972c0.137,0.302,0.203,0.594,0.203,0.876
			c0,0.691-0.518,1.261-1.55,1.704c-1.033,0.441-2.384,0.664-4.052,0.664c-3.067,0-5.47-0.838-7.208-2.513
			c-1.739-1.675-2.608-3.986-2.608-6.938c0-2.978,0.876-5.413,2.628-7.306c1.751-1.893,4-2.84,6.746-2.84
			c2.116,0,3.855,0.604,5.216,1.811c1.359,1.206,2.04,2.746,2.04,4.619c0,1.476-0.563,2.527-1.692,3.156
			c-1.129,0.63-3.048,0.942-5.756,0.942c-1.015,0-2.023-0.035-3.031-0.104c-1.007-0.07-2.005-0.178-2.993-0.317v0.27
			c0,2.001,0.591,3.588,1.771,4.754c1.181,1.17,2.784,1.753,4.813,1.753c0.949,0,1.829-0.125,2.637-0.375
			C344.862,474.857,345.601,474.481,346.268,473.981z M335.065,466.417c0.847,0.142,1.779,0.248,2.801,0.318
			c1.02,0.069,2.12,0.104,3.301,0.104c1.604,0,2.676-0.146,3.214-0.441c0.539-0.297,0.811-0.828,0.811-1.599
			c0-1.168-0.405-2.091-1.214-2.771c-0.81-0.681-1.912-1.021-3.311-1.021c-1.489,0-2.728,0.477-3.715,1.425
			C335.963,463.383,335.335,464.711,335.065,466.417z"/>
		<path fill="#0696A6" d="M357.701,475.753c0,0.706-0.272,1.302-0.817,1.789c-0.546,0.487-1.224,0.732-2.031,0.732
			c-0.719,0-1.312-0.224-1.779-0.665c-0.468-0.442-0.703-1.022-0.703-1.741c0-0.771,0.261-1.396,0.78-1.877s1.195-0.723,2.029-0.723
			c0.783,0,1.398,0.222,1.849,0.663C357.477,474.376,357.701,474.982,357.701,475.753z"/>
		<path fill="#0696A6" d="M368.346,477.177c-0.54,0.296-1.053,0.515-1.541,0.655c-0.486,0.141-0.955,0.211-1.403,0.211
			c-0.629,0-1.057-0.17-1.28-0.51s-0.337-1.023-0.337-2.05c0-0.592,0.058-1.911,0.174-3.967c0.115-2.053,0.173-3.816,0.173-5.293
			c0-1.604-0.077-2.906-0.23-3.905c-0.153-1.002-0.403-1.854-0.75-2.562c0.474-0.282,0.963-0.498,1.463-0.645
			c0.5-0.147,0.994-0.223,1.48-0.223c0.59,0,0.995,0.145,1.213,0.435c0.219,0.287,0.327,0.824,0.327,1.605
			c0,0.205-0.058,1.328-0.173,3.368c-0.116,2.04-0.173,3.979-0.173,5.813c0,1.721,0.086,3.145,0.26,4.272
			C367.719,475.516,367.985,476.445,368.346,477.177z M368.191,453.021c0,0.73-0.258,1.341-0.771,1.827
			c-0.513,0.487-1.161,0.732-1.944,0.732c-0.68,0-1.219-0.192-1.615-0.577c-0.398-0.386-0.598-0.906-0.598-1.56
			c0-0.72,0.257-1.331,0.771-1.839s1.136-0.761,1.867-0.761c0.667,0,1.216,0.206,1.646,0.616
			C367.977,451.872,368.191,452.393,368.191,453.021z"/>
		<path fill="#0696A6" d="M382.3,478.523c-2.977,0-5.401-0.916-7.274-2.752c-1.874-1.835-2.812-4.188-2.812-7.063
			c0-3.055,1.001-5.534,3.002-7.439c2.003-1.905,4.602-2.857,7.796-2.857c2.888,0,5.266,0.904,7.132,2.714
			c1.866,1.811,2.801,4.1,2.801,6.872c0,1.116-0.178,2.22-0.529,3.311c-0.354,1.091-0.83,2.021-1.434,2.791
			c-1.144,1.477-2.436,2.581-3.879,3.32C385.659,478.155,384.058,478.523,382.3,478.523z M382.53,475.753
			c2.079,0,3.782-0.696,5.109-2.089c1.328-1.392,1.992-3.179,1.992-5.36c0-2.13-0.65-3.865-1.953-5.206s-2.993-2.012-5.071-2.012
			c-2.117,0-3.827,0.695-5.13,2.088c-1.303,1.394-1.953,3.237-1.953,5.534c0,2.04,0.66,3.725,1.981,5.053
			C378.828,475.088,380.503,475.753,382.53,475.753z"/>
	</g>
</g>
<path fill="#808083" d="M348.008,442.593c0,0-19.418-4.619-37.348-5.781c-16.271-1.055-58.506-0.429-58.506-0.429
	S315.058,439.601,348.008,442.593z"/>
<path fill="#0696A6" d="M285.648,408.238c0,0,7.052-1.544,12.233,1.817l4.146-7.588l-12.186-32.319c0,0-8.007,9.103-9.266,18.944
	C280.576,389.094,278.364,398.987,285.648,408.238z"/>
<path fill="#BCC831" d="M309.364,421.995c0,0-2.161-6.888-7.652-9.718l4.528-7.363l34.105-5.465c0,0-3.928,11.468-11.846,17.447
	C328.501,416.896,321.01,423.728,309.364,421.995z"/>
<path fill="#0696A6" d="M305.328,396.25l6.88-11.849l-6.494-24.27c0,0-8.14,2.862-12.929,7.301L305.328,396.25z"/>
<path fill="#BCC831" d="M309.764,398.775l6.681-11.962l24.188-6.795c0,0,1.69,8.46,0.315,14.845L309.764,398.775z"/>
<polygon fill="#0696A6" points="309.242,358.876 315.568,377.864 332.54,351.229 "/>
<polygon fill="#BCC831" points="339.87,375.896 320.408,379.813 334.967,352.073 "/>
<path fill="#808083" d="M286.538,433.204l10.551-5.198c0,0,1.943-1.016-0.833-3.45c0,0-2.717-3.794-8.721-4.236
	c0,0-1.469-0.194-1.407,1.467l-0.002,11.419"/>
</svg>
