<?xml version="1.0" encoding="utf-8"?>
<!-- Generator: Adobe Illustrator 16.0.0, SVG Export Plug-In . SVG Version: 6.00 Build 0)  -->
<!DOCTYPE svg PUBLIC "-//W3C//DTD SVG 1.1//EN" "http://www.w3.org/Graphics/SVG/1.1/DTD/svg11.dtd">
<svg version="1.1" id="Layer_1" xmlns="http://www.w3.org/2000/svg" xmlns:xlink="http://www.w3.org/1999/xlink" x="0px" y="0px"
	 width="612px" height="792px" viewBox="0 0 612 792" enable-background="new 0 0 612 792" xml:space="preserve">
<g>
	<g>
		<path fill="#0696A6" d="M237.116,403.117c0.539,0.053,1.073,0.09,1.607,0.115c0.531,0.026,1.062,0.039,1.588,0.039
			c1.847,0,3.303-0.085,4.368-0.252c1.065-0.166,1.944-0.436,2.638-0.808c0.256,0.438,0.445,0.856,0.567,1.261
			c0.122,0.404,0.184,0.813,0.184,1.223c0,0.615-0.225,1.047-0.674,1.29c-0.45,0.243-1.29,0.364-2.521,0.364
			c-0.437,0-1.265-0.019-2.483-0.058c-1.22-0.039-2.213-0.057-2.985-0.057c-1.089,0-2.187,0.024-3.291,0.075
			c-1.104,0.052-1.662,0.076-1.675,0.076c-0.436,0-0.744-0.102-0.923-0.308c-0.181-0.204-0.27-0.564-0.27-1.077
			c0-0.257,0.032-0.925,0.096-2.002c0.232-4.068,0.347-7.93,0.347-11.587c0-3.438-0.097-6.076-0.289-7.911s-0.508-3.156-0.943-3.965
			c0.591-0.321,1.152-0.564,1.684-0.731c0.533-0.168,1.049-0.251,1.55-0.251c0.719,0,1.208,0.184,1.472,0.549
			c0.263,0.366,0.396,1.12,0.396,2.263c0,0.333-0.033,1.218-0.097,2.656c-0.232,5.504-0.346,10.7-0.346,15.59V403.117z"/>
		<path fill="#0696A6" d="M255.593,405.446c-0.54,0.296-1.052,0.514-1.54,0.654c-0.488,0.142-0.957,0.212-1.406,0.212
			c-0.628,0-1.055-0.171-1.279-0.511c-0.225-0.34-0.337-1.022-0.337-2.05c0-0.591,0.058-1.911,0.173-3.966
			c0.115-2.053,0.173-3.817,0.173-5.293c0-1.604-0.077-2.907-0.231-3.906c-0.153-1.002-0.404-1.854-0.751-2.561
			c0.476-0.282,0.963-0.498,1.463-0.645c0.501-0.147,0.996-0.222,1.483-0.222c0.589,0,0.994,0.144,1.212,0.434
			c0.218,0.287,0.327,0.824,0.327,1.606c0,0.205-0.058,1.328-0.173,3.368c-0.115,2.04-0.172,3.978-0.172,5.813
			c0,1.721,0.086,3.146,0.259,4.273C254.968,403.785,255.233,404.715,255.593,405.446z M255.439,381.29
			c0,0.731-0.257,1.341-0.769,1.828c-0.514,0.487-1.162,0.732-1.944,0.732c-0.681,0-1.22-0.192-1.618-0.577
			c-0.397-0.386-0.596-0.906-0.596-1.56c0-0.719,0.257-1.331,0.77-1.839c0.514-0.507,1.136-0.76,1.868-0.76
			c0.666,0,1.215,0.206,1.646,0.616C255.225,380.142,255.439,380.662,255.439,381.29z"/>
		<path fill="#0696A6" d="M261.984,390.875c-0.219,0-0.52,0.011-0.906,0.03c-0.385,0.019-0.634,0.028-0.751,0.028
			c-0.526,0-0.895-0.073-1.105-0.222c-0.212-0.146-0.318-0.4-0.318-0.76c0-0.166,0.028-0.362,0.087-0.587
			c0.058-0.225,0.151-0.479,0.279-0.761c0.103,0,0.275,0.006,0.519,0.02c0.244,0.013,0.437,0.02,0.578,0.02
			c0.334,0,0.867-0.02,1.597-0.059c0.09,0,0.162-0.006,0.212-0.02c0-0.141,0.006-0.353,0.02-0.634
			c0.012-0.283,0.019-0.488,0.019-0.616c0-1.002-0.065-1.884-0.192-2.646c-0.129-0.764-0.328-1.435-0.597-2.012
			c0.552-0.27,1.046-0.476,1.482-0.616c0.436-0.141,0.809-0.212,1.117-0.212c0.525,0,0.907,0.163,1.145,0.491
			c0.236,0.327,0.356,0.863,0.356,1.607c0,0.321-0.058,1.328-0.173,3.022c-0.038,0.628-0.071,1.128-0.096,1.5
			c0.744-0.103,1.415-0.18,2.011-0.231c0.598-0.051,1.132-0.076,1.608-0.076c0.424,0,0.728,0.076,0.914,0.231
			c0.186,0.153,0.28,0.404,0.28,0.751c0,0.191-0.057,0.433-0.173,0.721c-0.115,0.289-0.282,0.613-0.5,0.973
			c-0.334-0.078-0.688-0.135-1.059-0.174c-0.372-0.039-0.822-0.057-1.347-0.057c-0.09,0-0.36,0.009-0.809,0.028
			c-0.449,0.019-0.833,0.034-1.155,0.048c-0.114,2.003-0.198,3.651-0.25,4.946c-0.051,1.297-0.077,2.354-0.077,3.177
			c0,1.783,0.157,3.031,0.472,3.744c0.314,0.712,0.843,1.065,1.587,1.065c0.206,0,0.42-0.037,0.645-0.113
			c0.224-0.077,0.453-0.199,0.684-0.366c0.116,0.257,0.2,0.479,0.25,0.674c0.051,0.192,0.078,0.366,0.078,0.519
			c0,0.631-0.261,1.147-0.78,1.552c-0.519,0.403-1.197,0.605-2.031,0.605c-1.385,0-2.416-0.459-3.089-1.376
			c-0.673-0.917-1.01-2.326-1.01-4.226c0-0.539,0.063-1.966,0.192-4.282C261.823,394.266,261.919,392.364,261.984,390.875z"/>
		<path fill="#0696A6" d="M287.102,402.251c0.283,0.348,0.491,0.671,0.625,0.972c0.135,0.303,0.202,0.595,0.202,0.876
			c0,0.692-0.516,1.262-1.549,1.704c-1.033,0.442-2.384,0.664-4.051,0.664c-3.067,0-5.47-0.838-7.209-2.512
			c-1.739-1.675-2.608-3.987-2.608-6.938c0-2.977,0.876-5.413,2.627-7.306c1.751-1.892,4.001-2.839,6.747-2.839
			c2.117,0,3.856,0.604,5.216,1.81s2.04,2.746,2.04,4.619c0,1.476-0.565,2.528-1.694,3.156c-1.128,0.63-3.048,0.943-5.755,0.943
			c-1.013,0-2.024-0.035-3.031-0.105c-1.007-0.07-2.004-0.177-2.993-0.316v0.27c0,2.001,0.59,3.587,1.771,4.753
			c1.181,1.17,2.784,1.753,4.812,1.753c0.949,0,1.828-0.125,2.637-0.375C285.697,403.127,286.434,402.751,287.102,402.251z
			 M275.9,394.687c0.847,0.142,1.779,0.248,2.799,0.318c1.02,0.07,2.121,0.105,3.301,0.105c1.604,0,2.677-0.147,3.215-0.442
			c0.539-0.296,0.808-0.828,0.808-1.598c0-1.168-0.404-2.091-1.212-2.772c-0.809-0.68-1.913-1.021-3.312-1.021
			c-1.489,0-2.727,0.476-3.715,1.425C276.798,391.652,276.169,392.98,275.9,394.687z"/>
		<path fill="#0696A6" d="M296.359,391.165c0.963-1.348,1.88-2.353,2.752-3.014c0.873-0.66,1.732-0.99,2.58-0.99
			c0.718,0,1.332,0.228,1.838,0.683c0.507,0.457,0.76,1.018,0.76,1.685c0,0.437-0.145,0.863-0.433,1.279
			c-0.29,0.419-0.722,0.832-1.3,1.243c-0.206-0.565-0.459-0.982-0.761-1.252c-0.301-0.27-0.663-0.404-1.087-0.404
			c-0.628,0-1.29,0.312-1.982,0.934s-1.373,1.518-2.04,2.685c-0.064,0.578-0.115,1.165-0.154,1.761
			c-0.039,0.598-0.058,1.179-0.058,1.742c0,1.927,0.106,3.53,0.317,4.813s0.542,2.336,0.991,3.157
			c-0.512,0.27-1.016,0.475-1.51,0.615c-0.495,0.142-0.979,0.212-1.454,0.212c-0.629,0-1.062-0.157-1.299-0.474
			c-0.239-0.313-0.357-0.944-0.357-1.895c0-0.349,0.067-1.679,0.202-3.994c0.134-2.316,0.202-4.469,0.202-6.458
			c0-1.629-0.063-2.88-0.191-3.752c-0.129-0.874-0.341-1.643-0.636-2.311c0.256-0.09,0.51-0.157,0.76-0.202
			c0.251-0.045,0.51-0.067,0.78-0.067c0.745,0,1.296,0.177,1.655,0.529c0.36,0.353,0.54,0.895,0.54,1.626
			c0,0.167-0.01,0.395-0.028,0.684C296.427,390.289,296.398,390.678,296.359,391.165z"/>
		<path fill="#0696A6" d="M322.499,405.292c-0.5,0.321-0.957,0.564-1.367,0.731c-0.41,0.168-0.769,0.251-1.077,0.251
			c-0.553,0-0.953-0.172-1.204-0.512c-0.249-0.34-0.394-0.889-0.433-1.646c-0.963,0.821-1.916,1.431-2.857,1.828
			c-0.942,0.396-1.902,0.598-2.879,0.598c-1.924,0-3.477-0.539-4.656-1.618c-1.181-1.077-1.771-2.495-1.771-4.254
			c0-1.987,0.812-3.582,2.436-4.782c1.622-1.199,3.808-1.799,6.554-1.799c0.448,0,0.927,0.016,1.434,0.047
			c0.508,0.032,1.049,0.081,1.627,0.145c0.025-0.115,0.042-0.233,0.049-0.355s0.01-0.267,0.01-0.434
			c0-1.335-0.374-2.351-1.126-3.051c-0.75-0.699-1.838-1.049-3.264-1.049c-1.181,0-2.151,0.196-2.917,0.587
			c-0.763,0.392-1.382,0.999-1.854,1.819c-0.463-0.115-0.813-0.314-1.049-0.596c-0.239-0.284-0.357-0.649-0.357-1.098
			c0-0.937,0.594-1.71,1.781-2.32c1.186-0.608,2.735-0.914,4.646-0.914c2.35,0,4.11,0.567,5.284,1.704
			c1.174,1.135,1.761,2.832,1.761,5.09c0,0.425-0.019,1.162-0.058,2.214c-0.039,1.053-0.058,1.899-0.058,2.541
			c0,1.771,0.105,3.195,0.316,4.273C321.681,403.771,322.023,404.639,322.499,405.292z M318.264,396.727
			c-0.59-0.09-1.119-0.156-1.588-0.201c-0.468-0.045-0.869-0.067-1.203-0.067c-1.987,0-3.488,0.331-4.503,0.992
			c-1.015,0.66-1.521,1.646-1.521,2.954c0,1.053,0.353,1.881,1.059,2.481c0.705,0.604,1.68,0.905,2.926,0.905
			c0.937,0,1.813-0.177,2.627-0.529c0.814-0.354,1.563-0.882,2.242-1.588c-0.025-0.642-0.041-1.165-0.048-1.567
			c-0.007-0.404-0.01-0.792-0.01-1.165c0-0.23,0.006-0.595,0.019-1.089C318.276,397.359,318.276,396.983,318.264,396.727z"/>
		<path fill="#BCC831" d="M327.021,403.232c0.463,0.243,0.904,0.424,1.327,0.539c0.425,0.115,0.835,0.174,1.232,0.174
			c0.925,0,1.668-0.223,2.231-0.665c0.564-0.442,0.848-1.022,0.848-1.741c0-0.564-0.153-1.091-0.461-1.579
			c-0.309-0.487-0.887-1.077-1.732-1.771c-0.142-0.104-0.335-0.257-0.577-0.462c-2.169-1.797-3.254-3.388-3.254-4.773
			c0-0.564,0.109-1.128,0.328-1.693c0.219-0.565,0.539-1.104,0.962-1.617c0.811-0.962,1.755-1.696,2.839-2.204
			c1.084-0.506,2.254-0.76,3.515-0.76c0.615,0,1.083,0.119,1.403,0.355c0.321,0.238,0.48,0.582,0.48,1.03
			c0,0.219-0.057,0.478-0.173,0.78c-0.115,0.302-0.309,0.683-0.577,1.145c-0.347-0.142-0.674-0.247-0.982-0.317
			c-0.308-0.07-0.608-0.105-0.902-0.105c-1.065,0-1.93,0.259-2.589,0.779c-0.661,0.52-0.992,1.189-0.992,2.012
			c0,0.897,0.893,2.109,2.676,3.638c0.449,0.385,0.789,0.686,1.021,0.904c0.758,0.667,1.314,1.325,1.675,1.973
			c0.358,0.647,0.54,1.312,0.54,1.992c0,1.604-0.709,2.985-2.127,4.147c-1.419,1.161-3.142,1.741-5.169,1.741
			c-0.705,0-1.248-0.142-1.627-0.423s-0.567-0.68-0.567-1.193c0-0.244,0.052-0.514,0.153-0.809
			C326.624,404.034,326.791,403.669,327.021,403.232z"/>
		<path fill="#BCC831" d="M353.834,402.251c0.283,0.348,0.491,0.671,0.626,0.972c0.136,0.303,0.203,0.595,0.203,0.876
			c0,0.692-0.519,1.262-1.55,1.704c-1.033,0.442-2.384,0.664-4.053,0.664c-3.066,0-5.47-0.838-7.207-2.512
			c-1.739-1.675-2.608-3.987-2.608-6.938c0-2.977,0.876-5.413,2.628-7.306c1.751-1.892,3.999-2.839,6.745-2.839
			c2.117,0,3.855,0.604,5.216,1.81s2.041,2.746,2.041,4.619c0,1.476-0.564,2.528-1.693,3.156c-1.13,0.63-3.049,0.943-5.756,0.943
			c-1.014,0-2.022-0.035-3.032-0.105c-1.006-0.07-2.004-0.177-2.991-0.316v0.27c0,2.001,0.59,3.587,1.771,4.753
			c1.181,1.17,2.785,1.753,4.813,1.753c0.949,0,1.829-0.125,2.638-0.375C352.43,403.127,353.167,402.751,353.834,402.251z
			 M342.633,394.687c0.848,0.142,1.78,0.248,2.8,0.318c1.021,0.07,2.121,0.105,3.302,0.105c1.604,0,2.676-0.147,3.215-0.442
			c0.539-0.296,0.809-0.828,0.809-1.598c0-1.168-0.404-2.091-1.213-2.772c-0.809-0.68-1.912-1.021-3.31-1.021
			c-1.489,0-2.729,0.476-3.717,1.425C343.53,391.652,342.902,392.98,342.633,394.687z"/>
		<path fill="#BCC831" d="M373.198,402.251c0.282,0.348,0.489,0.671,0.625,0.972c0.136,0.303,0.203,0.595,0.203,0.876
			c0,0.692-0.519,1.262-1.551,1.704s-2.384,0.664-4.052,0.664c-3.066,0-5.47-0.838-7.208-2.512
			c-1.739-1.675-2.607-3.987-2.607-6.938c0-2.977,0.876-5.413,2.628-7.306c1.751-1.892,4-2.839,6.746-2.839
			c2.115,0,3.854,0.604,5.216,1.81c1.358,1.206,2.04,2.746,2.04,4.619c0,1.476-0.564,2.528-1.693,3.156
			c-1.129,0.63-3.048,0.943-5.756,0.943c-1.014,0-2.023-0.035-3.031-0.105c-1.007-0.07-2.005-0.177-2.993-0.316v0.27
			c0,2.001,0.592,3.587,1.771,4.753c1.181,1.17,2.785,1.753,4.813,1.753c0.949,0,1.829-0.125,2.638-0.375
			C371.793,403.127,372.531,402.751,373.198,402.251z M361.996,394.687c0.847,0.142,1.78,0.248,2.801,0.318
			c1.021,0.07,2.12,0.105,3.301,0.105c1.604,0,2.677-0.147,3.214-0.442c0.539-0.296,0.811-0.828,0.811-1.598
			c0-1.168-0.405-2.091-1.213-2.772c-0.811-0.68-1.913-1.021-3.312-1.021c-1.488,0-2.728,0.476-3.715,1.425
			C362.894,391.652,362.266,392.98,361.996,394.687z"/>
		<path fill="#0696A6" d="M384.632,404.022c0,0.705-0.271,1.302-0.816,1.788c-0.547,0.487-1.225,0.732-2.031,0.732
			c-0.719,0-1.313-0.223-1.78-0.665s-0.703-1.021-0.703-1.741c0-0.771,0.261-1.396,0.78-1.877c0.52-0.479,1.196-0.722,2.03-0.722
			c0.782,0,1.397,0.221,1.848,0.663C384.407,402.646,384.632,403.252,384.632,404.022z"/>
	</g>
</g>
<g>
	<path fill="#808083" d="M155.018,415.961c0,0,14.508-3.451,27.905-4.32c12.157-0.788,43.713-0.319,43.713-0.319
		S179.637,413.725,155.018,415.961z"/>
	<path fill="#0696A6" d="M201.611,390.292c0,0-5.27-1.153-9.141,1.358l-3.097-5.669l9.105-24.147c0,0,5.982,6.801,6.923,14.154
		C205.401,375.988,207.053,383.38,201.611,390.292z"/>
	<path fill="#BCC831" d="M183.891,400.57c0,0,1.615-5.146,5.717-7.261l-3.383-5.501l-25.483-4.083c0,0,2.935,8.568,8.851,13.036
		C169.593,396.762,175.19,401.865,183.891,400.57z"/>
	<path fill="#0696A6" d="M186.907,381.335l-5.141-8.853l4.852-18.134c0,0,6.082,2.138,9.66,5.455L186.907,381.335z"/>
	<path fill="#BCC831" d="M183.593,383.222l-4.991-8.938l-18.072-5.077c0,0-1.263,6.321-0.235,11.092L183.593,383.222z"/>
	<polygon fill="#0696A6" points="183.982,353.411 179.256,367.598 166.575,347.696 	"/>
	<polygon fill="#BCC831" points="161.098,366.128 175.64,369.055 164.762,348.327 	"/>
	<path fill="#808083" d="M200.946,408.945l-7.883-3.885c0,0-1.452-0.759,0.622-2.576c0,0,2.03-2.835,6.516-3.166
		c0,0,1.098-0.146,1.051,1.096l0.001,8.531"/>
</g>
<path fill="#0696A6" d="M397.603,405.301c-2.85,0-5.172-0.877-6.965-2.635c-1.794-1.756-2.689-4.01-2.689-6.762
	c0-2.924,0.958-5.298,2.874-7.122c1.917-1.824,4.403-2.736,7.463-2.736c2.764,0,5.04,0.866,6.827,2.599s2.681,3.924,2.681,6.578
	c0,1.068-0.169,2.125-0.507,3.168s-0.795,1.936-1.372,2.673c-1.094,1.412-2.331,2.472-3.713,3.179
	C400.818,404.948,399.285,405.301,397.603,405.301z M397.823,402.648c1.989,0,3.621-0.666,4.893-2
	c1.271-1.332,1.907-3.043,1.907-5.131c0-2.039-0.624-3.701-1.87-4.984c-1.247-1.283-2.865-1.926-4.854-1.926
	c-2.027,0-3.664,0.666-4.91,1.999c-1.247,1.333-1.871,3.099-1.871,5.298c0,1.954,0.633,3.565,1.897,4.837
	C394.279,402.012,395.883,402.648,397.823,402.648z"/>
<path fill="#0696A6" d="M414.886,390.34c0.922-1.29,1.8-2.252,2.636-2.885c0.836-0.632,1.658-0.948,2.47-0.948
	c0.688,0,1.273,0.218,1.76,0.653c0.485,0.438,0.728,0.975,0.728,1.613c0,0.418-0.138,0.826-0.413,1.225
	c-0.276,0.4-0.691,0.796-1.244,1.189c-0.196-0.541-0.439-0.94-0.729-1.198c-0.289-0.258-0.636-0.387-1.041-0.387
	c-0.603,0-1.234,0.298-1.897,0.894c-0.663,0.596-1.314,1.453-1.953,2.57c-0.063,0.553-0.11,1.115-0.147,1.686
	c-0.037,0.572-0.055,1.128-0.055,1.668c0,1.843,0.101,3.379,0.304,4.606c0.202,1.229,0.52,2.235,0.949,3.021
	c-0.492,0.258-0.974,0.454-1.447,0.59c-0.473,0.136-0.937,0.202-1.391,0.202c-0.604,0-1.017-0.149-1.244-0.452
	c-0.228-0.301-0.341-0.904-0.341-1.813c0-0.332,0.063-1.605,0.193-3.823c0.129-2.218,0.192-4.278,0.192-6.183
	c0-1.559-0.062-2.757-0.184-3.592c-0.123-0.836-0.326-1.572-0.608-2.212c0.246-0.086,0.488-0.15,0.729-0.193
	c0.239-0.043,0.487-0.064,0.747-0.064c0.712,0,1.239,0.169,1.584,0.507c0.344,0.338,0.517,0.856,0.517,1.557
	c0,0.16-0.01,0.378-0.028,0.654C414.953,389.501,414.923,389.873,414.886,390.34z"/>
<path fill="#0696A6" d="M428.467,397.857c-1.191-0.603-2.086-1.349-2.682-2.238c-0.596-0.89-0.895-1.92-0.895-3.087
	c0-1.88,0.68-3.431,2.036-4.653c1.357-1.222,3.104-1.833,5.242-1.833c0.614,0,1.241,0.093,1.88,0.276
	c0.64,0.185,1.296,0.455,1.973,0.811c1.375-0.368,2.396-0.703,3.059-1.004c0.663-0.301,1.087-0.605,1.271-0.912
	c0.245,0.258,0.428,0.528,0.543,0.811c0.117,0.283,0.177,0.578,0.177,0.885c0,0.627-0.237,1.109-0.71,1.446
	c-0.474,0.339-1.28,0.587-2.424,0.747c0.442,0.553,0.769,1.105,0.978,1.658c0.209,0.553,0.313,1.13,0.313,1.731
	c0,1.708-0.662,3.136-1.989,4.284c-1.327,1.147-2.991,1.723-4.993,1.723c-0.246,0-0.507-0.009-0.783-0.027
	c-0.276-0.018-0.557-0.046-0.839-0.083c-0.233,0.233-0.411,0.464-0.534,0.69c-0.123,0.229-0.185,0.452-0.185,0.674
	c0,0.848,1.18,1.529,3.538,2.045c0.553,0.123,0.981,0.215,1.29,0.275c2.31,0.541,3.868,1.164,4.68,1.871s1.217,1.711,1.217,3.013
	c0,1.867-0.839,3.409-2.516,4.625c-1.678,1.216-3.836,1.824-6.478,1.824c-2.457,0-4.396-0.507-5.821-1.521
	c-1.427-1.014-2.139-2.38-2.139-4.1c0-1.204,0.354-2.264,1.061-3.179c0.706-0.915,1.747-1.667,3.123-2.258
	c-0.296-0.271-0.521-0.547-0.674-0.829c-0.152-0.281-0.229-0.582-0.229-0.902c0-0.405,0.126-0.835,0.378-1.289
	S427.963,398.386,428.467,397.857z M429.683,403.68h0.037c-1.021,0.406-1.785,0.906-2.294,1.502
	c-0.511,0.597-0.765,1.274-0.765,2.036c0,1.13,0.497,2.042,1.492,2.736s2.32,1.041,3.979,1.041c1.609,0,2.912-0.312,3.907-0.931
	c0.994-0.62,1.492-1.416,1.492-2.388c0-1.461-2.5-2.77-7.5-3.924C429.873,403.717,429.756,403.692,429.683,403.68z M432.097,396.199
	c1.253,0,2.287-0.365,3.104-1.097c0.815-0.73,1.226-1.649,1.226-2.755c0-1.154-0.391-2.085-1.17-2.791
	c-0.78-0.707-1.81-1.061-3.087-1.061c-1.313,0-2.374,0.348-3.179,1.042c-0.806,0.694-1.207,1.606-1.207,2.735
	c0,1.143,0.401,2.083,1.207,2.82C429.796,395.83,430.831,396.199,432.097,396.199z"/>
<g>
	<path fill="#808083" d="M32.766,226.314"/>
</g>
</svg>
