<?xml version="1.0" encoding="UTF-8" standalone="no"?>
<svg width="305px" height="112px" viewBox="0 0 305 112" version="1.1" xmlns="http://www.w3.org/2000/svg" xmlns:xlink="http://www.w3.org/1999/xlink" xmlns:sketch="http://www.bohemiancoding.com/sketch/ns">
    <!-- Generator: Sketch 3.5.1 (25234) - http://www.bohemiancoding.com/sketch -->
    <title>Slice 1</title>
    <desc>Created with Sketch.</desc>
    <defs></defs>
    <g id="Page-1" stroke="none" stroke-width="1" fill="none" fill-rule="evenodd" sketch:type="MSPage">
        <g id="Literasee_handwritten_center_for_assessment" sketch:type="MSLayerGroup">
            <g id="Group" sketch:type="MSShapeGroup">
                <g transform="translate(0.000000, 90.000000)" id="Shape" fill="#808184">
                    <path d="M7.118,12.275 C7.467,11.977 7.788,11.619 8.084,11.202 C8.381,10.787 8.654,10.339 8.907,9.86 C9.158,9.384 9.385,8.903 9.586,8.417 C9.785,7.93 9.964,7.458 10.122,7 C10.312,6.505 10.461,5.987 10.565,5.452 C10.668,4.916 10.704,4.378 10.668,3.843 C10.633,3.268 10.456,2.909 10.132,2.774 C9.81,2.632 9.423,2.613 8.971,2.714 C8.501,2.814 8.054,2.995 7.625,3.264 C7.198,3.534 6.793,3.857 6.411,4.232 C6.028,4.61 5.666,5.013 5.327,5.439 C4.989,5.864 4.679,6.278 4.402,6.674 C3.774,7.567 3.205,8.496 2.691,9.458 C2.177,10.423 1.745,11.441 1.399,12.512 C1.259,12.871 1.124,13.317 0.993,13.855 C0.863,14.39 0.79,14.926 0.771,15.462 C0.753,15.998 0.828,16.483 0.993,16.919 C1.159,17.359 1.476,17.655 1.947,17.815 C2.417,17.972 2.9,18.033 3.396,17.995 C3.892,17.954 4.392,17.858 4.897,17.711 C5.403,17.561 5.898,17.378 6.385,17.159 C6.873,16.94 7.326,16.732 7.743,16.534 C8.197,16.312 8.642,16.082 9.087,15.832 C9.531,15.584 9.979,15.331 10.432,15.076 L11.788,14.329 C11.876,14.269 11.984,14.195 12.114,14.105 C12.244,14.017 12.385,13.921 12.532,13.821 C12.681,13.721 12.824,13.643 12.964,13.584 C13.104,13.524 13.225,13.494 13.331,13.494 C13.486,13.513 13.574,13.62 13.592,13.807 C13.61,13.995 13.549,14.119 13.409,14.178 C13.27,14.336 13.087,14.449 12.86,14.52 C12.633,14.589 12.434,14.675 12.26,14.774 C11.772,15.052 11.289,15.333 10.81,15.623 C10.332,15.911 9.841,16.193 9.334,16.471 C8.534,16.929 7.719,17.384 6.894,17.844 C6.068,18.3 5.2,18.637 4.296,18.856 C3.896,18.954 3.469,19.006 3.017,19.006 C2.564,19.006 2.142,18.936 1.75,18.796 C1.357,18.656 1.008,18.428 0.705,18.112 C0.401,17.792 0.196,17.355 0.093,16.801 C0.005,16.324 -0.015,15.827 0.026,15.313 C0.068,14.796 0.158,14.283 0.287,13.779 C0.417,13.273 0.573,12.782 0.757,12.303 C0.94,11.828 1.127,11.378 1.318,10.962 C2.189,8.937 3.26,7.081 4.529,5.391 C4.806,5.035 5.094,4.667 5.39,4.287 C5.685,3.912 6.003,3.559 6.343,3.232 C6.681,2.902 7.039,2.61 7.414,2.352 C7.786,2.095 8.183,1.905 8.6,1.785 C8.966,1.649 9.371,1.582 9.814,1.594 C10.258,1.603 10.636,1.766 10.951,2.085 C11.264,2.402 11.448,2.786 11.5,3.233 C11.551,3.679 11.542,4.122 11.473,4.555 C11.316,5.609 11.031,6.633 10.612,7.624 C10.194,8.618 9.759,9.57 9.307,10.483 C9.063,10.942 8.82,11.393 8.575,11.839 C8.333,12.286 8.053,12.71 7.74,13.105 C7.601,13.207 7.466,13.242 7.335,13.21 C7.203,13.182 7.1,13.115 7.022,13.017 C6.945,12.916 6.904,12.798 6.904,12.66 C6.91,12.521 6.979,12.391 7.118,12.275 L7.118,12.275 Z"></path>
                    <path d="M12.993,13.585 C13.306,13.404 13.634,13.21 13.973,12.99 C14.311,12.771 14.655,12.582 15.004,12.425 C15.231,11.967 15.552,11.595 15.971,11.306 C16.389,11.02 16.831,10.827 17.302,10.726 C17.546,10.689 17.829,10.689 18.15,10.726 C18.471,10.765 18.719,10.914 18.893,11.172 C19.015,11.33 19.046,11.5 18.986,11.678 C18.923,11.858 18.82,12.026 18.673,12.185 C18.526,12.344 18.361,12.489 18.177,12.618 C17.994,12.75 17.859,12.842 17.771,12.9 C17.458,13.121 17.114,13.284 16.74,13.393 C16.365,13.5 15.987,13.536 15.605,13.497 L15.5,13.497 C15.568,13.935 15.725,14.269 15.971,14.51 C16.215,14.748 16.503,14.922 16.831,15.031 C17.162,15.139 17.506,15.185 17.863,15.165 C18.219,15.146 18.545,15.105 18.842,15.049 C19.259,14.949 19.668,14.823 20.068,14.677 C20.468,14.53 20.86,14.354 21.244,14.156 C21.417,14.057 21.595,13.962 21.779,13.874 C21.962,13.783 22.131,13.689 22.288,13.588 C22.41,13.551 22.536,13.568 22.665,13.65 C22.797,13.729 22.81,13.858 22.705,14.036 C22.618,14.198 22.496,14.305 22.338,14.366 C22.181,14.426 22.041,14.482 21.921,14.542 L20.616,15.198 C19.815,15.556 19.023,15.853 18.24,16.092 C17.891,16.169 17.539,16.196 17.182,16.167 C16.826,16.136 16.495,16.047 16.19,15.898 C15.886,15.748 15.611,15.535 15.368,15.256 C15.124,14.98 14.949,14.621 14.846,14.184 C14.812,14.026 14.782,13.867 14.755,13.707 C14.729,13.55 14.732,13.397 14.767,13.263 C14.577,13.36 14.391,13.476 14.208,13.605 C14.023,13.735 13.864,13.847 13.725,13.948 C13.637,13.988 13.524,14.061 13.385,14.171 C13.246,14.281 13.107,14.286 12.968,14.185 C12.864,14.107 12.816,13.999 12.825,13.859 C12.832,13.713 12.89,13.625 12.993,13.585 L12.993,13.585 Z M15.656,12.751 C16.074,12.73 16.477,12.613 16.87,12.395 C17.262,12.177 17.605,11.897 17.902,11.559 C17.659,11.46 17.419,11.428 17.185,11.469 C16.95,11.512 16.733,11.59 16.532,11.708 C16.331,11.828 16.154,11.979 15.997,12.17 C15.839,12.358 15.725,12.553 15.656,12.751 L15.656,12.751 Z"></path>
                    <path d="M22.157,13.612 C22.348,13.496 22.679,13.291 23.149,13.005 C23.62,12.717 24.104,12.443 24.599,12.185 C25.096,11.928 25.553,11.747 25.971,11.648 C26.388,11.55 26.65,11.628 26.755,11.887 C26.823,12.085 26.801,12.28 26.688,12.468 C26.575,12.655 26.492,12.83 26.44,12.987 L26.127,13.821 C26.353,13.662 26.579,13.524 26.806,13.405 C27.03,13.285 27.258,13.166 27.484,13.05 C28.04,12.71 28.615,12.353 29.208,11.975 C29.799,11.601 30.4,11.31 31.009,11.111 C31.235,11.053 31.436,11.047 31.609,11.097 C31.782,11.147 31.917,11.238 32.015,11.368 C32.113,11.497 32.159,11.665 32.159,11.872 C32.159,12.082 32.089,12.305 31.95,12.545 C31.792,12.821 31.623,13.07 31.441,13.288 C31.258,13.506 31.071,13.746 30.879,14.002 C30.846,14.062 30.784,14.143 30.696,14.241 C30.608,14.34 30.517,14.456 30.423,14.583 C30.327,14.714 30.239,14.842 30.161,14.971 C30.084,15.101 30.035,15.214 30.018,15.315 C30.14,15.352 30.292,15.352 30.475,15.315 C30.659,15.275 30.842,15.219 31.024,15.15 C31.207,15.081 31.38,15.006 31.545,14.927 C31.711,14.848 31.837,14.788 31.923,14.747 L32.993,14.212 C33.062,14.171 33.153,14.11 33.266,14.032 C33.38,13.955 33.496,13.878 33.618,13.808 C33.74,13.738 33.856,13.671 33.971,13.613 C34.083,13.553 34.175,13.525 34.245,13.525 C34.403,13.525 34.48,13.613 34.48,13.793 C34.48,13.974 34.411,14.111 34.272,14.212 C34.114,14.311 33.949,14.404 33.775,14.493 C33.601,14.581 33.419,14.677 33.227,14.775 C32.984,14.932 32.749,15.072 32.522,15.192 C32.294,15.31 32.062,15.439 31.817,15.578 C31.677,15.659 31.455,15.774 31.15,15.922 C30.846,16.07 30.54,16.18 30.237,16.249 C29.932,16.317 29.667,16.309 29.442,16.218 C29.216,16.128 29.103,15.886 29.103,15.488 C29.103,15.293 29.145,15.113 29.233,14.954 C29.32,14.796 29.419,14.64 29.535,14.49 C29.647,14.341 29.77,14.197 29.899,14.057 C30.031,13.919 30.147,13.791 30.253,13.669 C30.357,13.571 30.53,13.362 30.774,13.043 C31.018,12.726 31.175,12.429 31.245,12.149 C30.774,12.209 30.299,12.349 29.821,12.568 C29.343,12.786 28.904,13.015 28.503,13.251 C27.997,13.53 27.476,13.843 26.937,14.193 C26.397,14.536 25.927,14.949 25.526,15.427 C25.438,15.505 25.347,15.55 25.253,15.56 C25.156,15.571 25.064,15.55 24.978,15.501 C24.891,15.451 24.826,15.377 24.783,15.277 C24.739,15.176 24.734,15.048 24.769,14.888 C24.821,14.71 24.951,14.551 25.16,14.412 C25.249,14.254 25.334,14.07 25.421,13.861 C25.509,13.651 25.569,13.528 25.605,13.488 C25.639,13.347 25.673,13.206 25.709,13.056 C25.743,12.908 25.771,12.752 25.787,12.594 C25.595,12.654 25.404,12.723 25.213,12.8 C25.022,12.88 24.874,12.94 24.77,12.98 C24.527,13.1 24.282,13.213 24.039,13.323 C23.796,13.429 23.552,13.553 23.308,13.693 C23.169,13.771 23.042,13.851 22.93,13.929 C22.818,14.009 22.69,14.08 22.553,14.14 C22.449,14.2 22.348,14.212 22.251,14.182 C22.155,14.154 22.083,14.109 22.029,14.05 C21.977,13.989 21.956,13.913 21.964,13.825 C21.97,13.737 22.037,13.675 22.157,13.612 L22.157,13.612 Z"></path>
                    <path d="M36.387,9.919 C36.7,9.94 37.013,9.946 37.328,9.935 C37.642,9.922 37.953,9.901 38.268,9.859 C38.753,9.007 39.282,8.117 39.847,7.195 C40.414,6.27 41.052,5.491 41.767,4.856 C41.907,4.755 42.05,4.657 42.199,4.558 C42.347,4.458 42.499,4.399 42.656,4.378 C42.829,4.378 42.961,4.458 43.049,4.615 C43.134,4.775 43.153,4.946 43.101,5.125 C43.012,5.522 42.822,5.901 42.527,6.271 C42.23,6.64 41.979,6.974 41.771,7.27 C41.508,7.668 41.235,8.056 40.948,8.432 C40.661,8.81 40.369,9.176 40.072,9.535 L41.613,9.119 L44.198,8.225 C44.32,8.165 44.446,8.12 44.575,8.089 C44.707,8.058 44.823,8.123 44.927,8.284 C45.031,8.445 45.058,8.607 45.005,8.773 C44.952,8.941 44.858,9.056 44.718,9.118 C43.917,9.434 43.081,9.684 42.211,9.86 C41.341,10.04 40.488,10.187 39.653,10.308 L39.286,10.395 C39.077,10.615 38.859,10.833 38.634,11.052 C38.407,11.27 38.172,11.49 37.929,11.707 C37.806,11.906 37.701,12.108 37.616,12.316 C37.528,12.522 37.443,12.739 37.355,12.958 C37.32,13.018 37.266,13.167 37.197,13.403 C37.127,13.643 37.062,13.887 37.001,14.135 C36.939,14.381 36.893,14.612 36.856,14.82 C36.822,15.025 36.83,15.133 36.882,15.133 C37.249,15.233 37.645,15.205 38.07,15.056 C38.497,14.907 38.866,14.785 39.18,14.686 C39.58,14.528 39.981,14.368 40.381,14.208 C40.781,14.048 41.182,13.871 41.582,13.673 C41.686,13.633 41.82,13.604 41.988,13.583 C42.154,13.562 42.226,13.683 42.21,13.942 C42.192,14.119 42.085,14.245 41.885,14.311 C41.683,14.38 41.523,14.445 41.402,14.506 L39.549,15.278 C39.34,15.382 39.048,15.519 38.673,15.698 C38.298,15.875 37.925,16.02 37.551,16.129 C37.177,16.236 36.838,16.254 36.532,16.175 C36.228,16.094 36.041,15.828 35.97,15.37 C35.936,14.912 36.01,14.46 36.193,14.015 C36.374,13.569 36.588,13.087 36.831,12.569 C36.031,13.186 35.195,13.732 34.327,14.211 C34.223,14.271 34.136,14.28 34.066,14.238 C33.996,14.201 33.944,14.141 33.909,14.06 C33.875,13.983 33.869,13.897 33.896,13.808 C33.921,13.718 33.979,13.644 34.064,13.582 C34.672,13.267 35.261,12.917 35.827,12.541 C36.392,12.164 36.944,11.744 37.484,11.289 L37.849,10.575 C37.588,10.594 37.3,10.636 36.987,10.693 C36.675,10.753 36.422,10.724 36.23,10.606 C36.091,10.506 36.042,10.366 36.088,10.188 C36.129,10.01 36.229,9.919 36.387,9.919 L36.387,9.919 Z M41.112,7.09 C41.201,6.952 41.282,6.803 41.361,6.643 C41.439,6.485 41.521,6.326 41.609,6.168 C41.436,6.368 41.274,6.564 41.126,6.764 C40.978,6.963 40.852,7.118 40.748,7.241 C40.435,7.638 40.13,8.041 39.835,8.446 C39.539,8.855 39.269,9.286 39.024,9.741 C39.807,8.927 40.502,8.043 41.112,7.09 L41.112,7.09 Z"></path>
                    <path d="M41.895,13.585 C42.208,13.404 42.536,13.21 42.874,12.99 C43.213,12.771 43.558,12.582 43.907,12.425 C44.133,11.967 44.454,11.595 44.873,11.306 C45.291,11.02 45.734,10.827 46.204,10.726 C46.447,10.689 46.73,10.689 47.052,10.726 C47.373,10.765 47.621,10.914 47.795,11.172 C47.917,11.33 47.946,11.5 47.887,11.678 C47.825,11.858 47.722,12.026 47.574,12.185 C47.426,12.344 47.261,12.489 47.078,12.618 C46.894,12.75 46.759,12.842 46.673,12.9 C46.36,13.121 46.014,13.284 45.64,13.393 C45.266,13.5 44.888,13.536 44.506,13.497 L44.402,13.497 C44.469,13.935 44.627,14.269 44.872,14.51 C45.117,14.748 45.403,14.922 45.733,15.031 C46.063,15.14 46.407,15.185 46.764,15.165 C47.12,15.146 47.447,15.105 47.743,15.049 C48.16,14.949 48.568,14.823 48.969,14.677 C49.37,14.53 49.76,14.354 50.145,14.156 C50.318,14.057 50.496,13.962 50.679,13.874 C50.863,13.783 51.032,13.689 51.189,13.588 C51.311,13.551 51.438,13.568 51.567,13.65 C51.698,13.729 51.711,13.858 51.606,14.036 C51.519,14.198 51.397,14.305 51.239,14.366 C51.081,14.426 50.942,14.482 50.823,14.542 L49.517,15.198 C48.716,15.556 47.924,15.853 47.142,16.092 C46.793,16.169 46.441,16.196 46.084,16.167 C45.728,16.136 45.396,16.047 45.091,15.898 C44.786,15.748 44.512,15.535 44.27,15.256 C44.026,14.98 43.851,14.621 43.748,14.184 C43.713,14.026 43.683,13.867 43.657,13.707 C43.631,13.55 43.634,13.397 43.67,13.263 C43.478,13.36 43.292,13.476 43.108,13.605 C42.925,13.735 42.764,13.847 42.625,13.948 C42.538,13.988 42.424,14.061 42.287,14.171 C42.148,14.28 42.009,14.286 41.869,14.185 C41.765,14.107 41.716,13.999 41.727,13.859 C41.735,13.713 41.79,13.625 41.895,13.585 L41.895,13.585 Z M44.558,12.751 C44.977,12.73 45.38,12.613 45.772,12.395 C46.165,12.177 46.507,11.897 46.804,11.559 C46.56,11.46 46.321,11.428 46.087,11.469 C45.852,11.512 45.634,11.59 45.434,11.708 C45.232,11.828 45.056,11.979 44.898,12.17 C44.742,12.358 44.628,12.553 44.558,12.751 L44.558,12.751 Z"></path>
                    <path d="M51.112,13.585 C51.479,13.367 51.839,13.147 52.195,12.931 C52.551,12.712 52.939,12.462 53.358,12.185 C53.324,11.81 53.423,11.452 53.658,11.114 C53.892,10.777 54.193,10.62 54.559,10.637 C54.802,10.676 54.959,10.816 55.029,11.054 C55.098,11.292 55.063,11.52 54.925,11.737 C54.785,11.978 54.603,12.177 54.378,12.335 C54.499,12.413 54.649,12.452 54.822,12.452 C55.187,12.493 55.57,12.419 55.97,12.23 C56.37,12.04 56.726,11.838 57.04,11.618 C57.353,11.501 57.553,11.538 57.64,11.737 C57.727,11.938 57.692,12.177 57.536,12.452 C57.449,12.612 57.35,12.815 57.237,13.064 C57.123,13.311 57.028,13.565 56.95,13.821 C56.872,14.081 56.828,14.329 56.818,14.566 C56.809,14.801 56.876,14.994 57.015,15.132 C57.101,15.249 57.33,15.249 57.706,15.132 C58.08,15.011 58.581,14.816 59.207,14.534 C59.415,14.435 59.628,14.322 59.845,14.194 C60.062,14.062 60.285,13.94 60.511,13.818 C60.564,13.801 60.643,13.754 60.747,13.684 C60.851,13.617 60.952,13.565 61.047,13.535 C61.143,13.504 61.23,13.504 61.308,13.535 C61.386,13.565 61.425,13.67 61.425,13.848 C61.425,13.949 61.385,14.038 61.308,14.117 C61.23,14.196 61.143,14.266 61.047,14.324 C60.951,14.383 60.851,14.433 60.747,14.476 C60.643,14.515 60.564,14.544 60.511,14.564 L59.416,15.129 C59.225,15.247 58.985,15.398 58.698,15.572 C58.41,15.754 58.119,15.903 57.823,16.022 C57.526,16.14 57.24,16.2 56.962,16.2 C56.683,16.2 56.466,16.07 56.309,15.812 C56.222,15.675 56.17,15.519 56.151,15.352 C56.133,15.182 56.138,15.011 56.164,14.842 C56.19,14.673 56.226,14.505 56.268,14.336 C56.31,14.167 56.351,14.005 56.386,13.846 L56.594,12.862 C56.508,12.882 56.329,12.931 56.06,13.013 C55.789,13.09 55.499,13.146 55.185,13.175 C54.872,13.204 54.572,13.199 54.285,13.161 C53.998,13.121 53.784,12.99 53.644,12.771 C53.348,12.952 53.104,13.1 52.913,13.219 C52.722,13.339 52.525,13.466 52.326,13.605 C52.125,13.745 51.964,13.855 51.843,13.936 C51.739,13.973 51.615,14.048 51.478,14.157 C51.339,14.266 51.216,14.283 51.111,14.204 C51.006,14.125 50.954,14.015 50.954,13.874 C50.953,13.74 51.007,13.645 51.112,13.585 L51.112,13.585 Z"></path>
                    <path d="M68.708,13.585 C69.473,13.187 70.212,12.73 70.929,12.215 C71.641,11.698 72.328,11.153 72.99,10.576 C73.322,9.86 73.648,9.135 73.97,8.402 C74.29,7.668 74.645,6.952 75.026,6.256 C75.166,5.959 75.327,5.636 75.509,5.287 C75.693,4.941 75.901,4.613 76.137,4.305 C76.371,3.998 76.628,3.739 76.908,3.53 C77.186,3.321 77.499,3.218 77.848,3.218 C78.213,3.218 78.436,3.326 78.515,3.547 C78.594,3.766 78.593,4.019 78.515,4.304 C78.437,4.595 78.319,4.879 78.163,5.17 C78.005,5.456 77.875,5.672 77.772,5.808 C77.334,6.543 76.856,7.241 76.336,7.894 C75.814,8.55 75.256,9.166 74.663,9.741 C74.472,9.96 74.272,10.171 74.063,10.369 C73.854,10.569 73.654,10.765 73.462,10.963 L72.419,13.229 C72.4,13.805 72.502,14.202 72.719,14.42 C72.935,14.64 73.244,14.719 73.645,14.658 C73.887,14.6 74.124,14.523 74.349,14.434 C74.576,14.347 74.803,14.251 75.027,14.15 C75.185,14.071 75.366,13.948 75.575,13.78 C75.784,13.611 75.976,13.526 76.15,13.526 C76.307,13.526 76.406,13.623 76.449,13.811 C76.493,13.999 76.436,14.132 76.281,14.213 L75.053,14.869 C74.686,15.026 74.285,15.181 73.851,15.328 C73.414,15.477 72.997,15.491 72.598,15.375 C72.266,15.237 71.999,14.967 71.788,14.57 C71.439,15.345 71.079,16.102 70.705,16.847 C70.331,17.591 69.944,18.331 69.543,19.066 C69.49,19.167 69.392,19.347 69.244,19.606 C69.096,19.863 68.938,20.1 68.774,20.319 C68.607,20.539 68.438,20.689 68.264,20.765 C68.091,20.847 67.942,20.755 67.822,20.498 C67.752,20.359 67.717,20.19 67.717,19.989 C67.717,19.79 67.735,19.588 67.769,19.38 C67.802,19.173 67.847,18.969 67.901,18.771 C67.953,18.572 67.996,18.403 68.032,18.262 C68.155,17.848 68.344,17.378 68.606,16.864 C68.867,16.346 69.177,15.84 69.534,15.345 C69.89,14.847 70.274,14.386 70.682,13.96 C71.091,13.534 71.504,13.197 71.922,12.96 C72.011,12.763 72.091,12.572 72.17,12.394 C72.248,12.217 72.33,12.037 72.419,11.859 L71.324,12.723 C71.01,12.941 70.69,13.161 70.368,13.378 C70.047,13.597 69.721,13.806 69.39,14.002 C69.285,14.062 69.163,14.131 69.025,14.212 C68.884,14.291 68.763,14.291 68.658,14.212 C68.571,14.131 68.531,14.023 68.54,13.886 C68.553,13.747 68.604,13.645 68.708,13.585 L68.708,13.585 Z M68.551,19.034 C69.055,18.399 69.521,17.705 69.947,16.949 C70.373,16.192 70.779,15.428 71.162,14.654 C70.519,15.17 69.939,15.822 69.425,16.604 C68.913,17.392 68.621,18.2 68.551,19.034 L68.551,19.034 Z M76.228,6.974 C76.628,6.457 76.96,5.951 77.221,5.453 C77.308,5.314 77.394,5.14 77.482,4.931 C77.569,4.724 77.621,4.519 77.639,4.323 C77.447,4.402 77.266,4.524 77.103,4.694 C76.936,4.862 76.785,5.027 76.645,5.185 C76.314,5.582 76.015,5.998 75.744,6.435 C75.473,6.873 75.217,7.319 74.974,7.776 C74.834,8.054 74.7,8.327 74.57,8.596 C74.438,8.862 74.303,9.134 74.164,9.413 C74.53,9.037 74.885,8.649 75.233,8.253 C75.585,7.857 75.913,7.428 76.228,6.974 L76.228,6.974 Z"></path>
                    <path d="M78.577,12.243 C78.925,12.084 79.287,11.943 79.66,11.828 C80.032,11.708 80.395,11.588 80.743,11.468 C80.97,11.33 81.222,11.218 81.5,11.141 C81.777,11.063 82.031,11.103 82.258,11.262 C82.397,11.378 82.449,11.537 82.416,11.737 C82.536,11.719 82.658,11.759 82.782,11.857 C83.007,12.118 83.087,12.421 83.018,12.782 C82.948,13.137 82.817,13.487 82.626,13.823 C82.694,13.924 82.799,14.023 82.939,14.122 C83.219,14.322 83.522,14.41 83.854,14.391 C84.186,14.37 84.497,14.311 84.795,14.211 C84.88,14.192 85.011,14.131 85.186,14.032 C85.358,13.935 85.54,13.839 85.721,13.749 C85.903,13.659 86.074,13.599 86.229,13.571 C86.386,13.54 86.491,13.586 86.542,13.705 C86.612,13.864 86.605,13.999 86.516,14.108 C86.43,14.215 86.312,14.306 86.165,14.375 C86.018,14.444 85.865,14.51 85.707,14.57 C85.55,14.63 85.446,14.67 85.395,14.689 C85.134,14.788 84.86,14.87 84.574,14.926 C84.285,14.986 84.003,15.013 83.725,15.013 C83.446,15.013 83.177,14.971 82.914,14.881 C82.653,14.793 82.428,14.637 82.237,14.419 L81.662,15.103 C81.453,15.321 81.218,15.54 80.956,15.758 C80.695,15.978 80.422,16.16 80.135,16.309 C79.848,16.457 79.548,16.553 79.232,16.591 C78.919,16.627 78.623,16.583 78.345,16.443 C77.997,16.262 77.793,16.032 77.733,15.742 C77.67,15.455 77.694,15.15 77.797,14.834 C77.902,14.517 78.05,14.207 78.242,13.909 C78.433,13.611 78.614,13.366 78.789,13.165 L79.285,12.6 C78.884,12.759 78.494,12.937 78.11,13.137 C77.727,13.335 77.343,13.543 76.962,13.763 C76.893,13.803 76.806,13.859 76.701,13.924 C76.597,13.996 76.493,14.061 76.388,14.122 C76.284,14.18 76.184,14.225 76.087,14.255 C75.989,14.286 75.908,14.27 75.838,14.211 C75.716,14.131 75.665,14.022 75.681,13.886 C75.699,13.746 75.759,13.646 75.866,13.586 L78.577,12.243 L78.577,12.243 Z M79.465,13.286 C79.396,13.366 79.269,13.515 79.087,13.734 C78.906,13.953 78.743,14.178 78.604,14.419 C78.465,14.655 78.382,14.881 78.357,15.088 C78.33,15.295 78.44,15.422 78.682,15.46 C79.135,15.539 79.566,15.521 79.974,15.4 C80.384,15.281 80.753,15.052 81.084,14.715 C81.224,14.558 81.355,14.408 81.476,14.268 C81.599,14.131 81.702,13.971 81.789,13.793 C81.703,13.534 81.655,13.256 81.645,12.958 C81.637,12.66 81.703,12.402 81.842,12.182 C81.356,12.223 80.916,12.342 80.524,12.542 C80.131,12.741 79.779,12.986 79.465,13.286 L79.465,13.286 Z"></path>
                    <path d="M86.096,13.585 C86.463,13.367 86.823,13.147 87.179,12.931 C87.535,12.712 87.924,12.462 88.342,12.185 C88.308,11.81 88.406,11.452 88.642,11.114 C88.876,10.777 89.177,10.62 89.543,10.637 C89.787,10.676 89.943,10.816 90.013,11.054 C90.083,11.292 90.048,11.52 89.91,11.737 C89.771,11.978 89.588,12.177 89.361,12.335 C89.483,12.413 89.632,12.452 89.806,12.452 C90.17,12.493 90.554,12.419 90.953,12.23 C91.355,12.04 91.71,11.838 92.024,11.618 C92.337,11.501 92.536,11.538 92.624,11.737 C92.712,11.938 92.677,12.177 92.52,12.452 C92.434,12.612 92.333,12.815 92.222,13.064 C92.108,13.311 92.013,13.565 91.935,13.821 C91.856,14.081 91.813,14.329 91.804,14.566 C91.792,14.801 91.859,14.994 92,15.132 C92.086,15.249 92.315,15.249 92.691,15.132 C93.065,15.011 93.567,14.816 94.192,14.534 C94.399,14.435 94.613,14.322 94.83,14.194 C95.049,14.062 95.27,13.94 95.497,13.818 C95.549,13.801 95.628,13.754 95.733,13.684 C95.836,13.617 95.938,13.565 96.032,13.535 C96.128,13.504 96.217,13.504 96.294,13.535 C96.372,13.565 96.411,13.67 96.411,13.848 C96.411,13.949 96.372,14.038 96.294,14.117 C96.217,14.196 96.128,14.266 96.032,14.324 C95.938,14.383 95.836,14.433 95.733,14.476 C95.628,14.515 95.548,14.544 95.497,14.564 L94.402,15.129 C94.21,15.247 93.97,15.398 93.683,15.572 C93.396,15.754 93.104,15.903 92.811,16.022 C92.513,16.14 92.226,16.2 91.948,16.2 C91.67,16.2 91.451,16.07 91.294,15.812 C91.208,15.675 91.155,15.519 91.137,15.352 C91.12,15.182 91.125,15.011 91.15,14.842 C91.175,14.673 91.212,14.505 91.253,14.336 C91.296,14.167 91.336,14.005 91.37,13.846 L91.578,12.862 C91.492,12.882 91.313,12.931 91.044,13.013 C90.773,13.09 90.483,13.146 90.168,13.175 C89.856,13.204 89.555,13.199 89.269,13.161 C88.982,13.121 88.769,12.99 88.63,12.771 C88.332,12.952 88.09,13.1 87.897,13.219 C87.706,13.339 87.51,13.466 87.311,13.605 C87.11,13.745 86.949,13.855 86.828,13.936 C86.724,13.973 86.602,14.048 86.464,14.157 C86.325,14.266 86.203,14.283 86.096,14.204 C85.992,14.125 85.939,14.015 85.939,13.874 C85.937,13.74 85.993,13.645 86.096,13.585 L86.096,13.585 Z"></path>
                    <path d="M103.85,15.4 C104.459,15.062 105.094,14.782 105.756,14.55 C106.418,14.322 107.077,14.12 107.741,13.944 L108.394,12.781 C108.966,11.845 109.55,10.944 110.143,10.071 C110.734,9.195 111.354,8.322 111.998,7.449 C112.625,6.615 113.271,5.794 113.942,4.989 C114.612,4.185 115.324,3.436 116.071,2.741 C116.436,2.404 116.813,2.087 117.192,1.788 C117.575,1.49 117.968,1.221 118.367,0.983 C118.472,0.923 118.642,0.837 118.877,0.715 C119.111,0.596 119.35,0.501 119.595,0.432 C119.838,0.363 120.064,0.337 120.274,0.355 C120.482,0.378 120.621,0.496 120.691,0.715 C120.725,0.853 120.712,0.997 120.652,1.147 C120.589,1.297 120.543,1.43 120.506,1.549 L119.907,2.947 L119.409,4.11 C119.061,4.883 118.727,5.658 118.404,6.432 C118.082,7.207 117.762,8.004 117.451,8.817 C117.173,9.533 116.903,10.248 116.641,10.961 C116.381,11.677 116.135,12.412 115.911,13.167 C116.05,13.167 116.186,13.176 116.315,13.195 C116.447,13.217 116.564,13.245 116.668,13.285 C116.876,13.386 116.976,13.556 116.969,13.806 C116.96,14.057 116.851,14.219 116.641,14.299 C116.484,14.337 116.319,14.349 116.146,14.327 C115.972,14.309 115.789,14.281 115.597,14.239 L115.493,14.868 C115.39,15.28 115.29,15.725 115.194,16.19 C115.099,16.658 115.02,17.125 114.958,17.59 C114.896,18.06 114.859,18.52 114.842,18.976 C114.823,19.433 114.849,19.871 114.919,20.287 C115.407,19.731 115.87,19.197 116.303,18.68 C116.739,18.161 117.215,17.675 117.741,17.219 C118.522,16.524 119.326,15.877 120.153,15.281 C120.979,14.687 121.829,14.123 122.698,13.585 C122.786,13.525 122.865,13.512 122.933,13.542 C123.003,13.574 123.06,13.626 123.102,13.706 C123.145,13.785 123.164,13.871 123.156,13.959 C123.146,14.048 123.098,14.123 123.012,14.182 L121.941,14.838 C121.489,15.138 121.039,15.441 120.595,15.744 C120.152,16.055 119.721,16.387 119.304,16.744 C117.964,17.855 116.754,19.166 115.675,20.676 C115.588,20.835 115.497,20.974 115.401,21.091 C115.307,21.213 115.161,21.291 114.97,21.331 C114.726,21.37 114.534,21.331 114.396,21.213 C114.256,21.091 114.146,20.934 114.069,20.735 C113.992,20.535 113.942,20.318 113.926,20.082 C113.907,19.842 113.907,19.622 113.926,19.425 C113.942,18.551 114.057,17.669 114.264,16.775 C114.473,15.879 114.698,15.016 114.945,14.182 C114.649,14.164 114.353,14.15 114.056,14.141 C113.759,14.13 113.464,14.123 113.17,14.123 C112.543,14.085 111.916,14.085 111.29,14.123 C110.662,14.164 110.043,14.232 109.436,14.333 L108.236,14.538 L107.869,15.315 C107.661,15.769 107.443,16.247 107.217,16.744 C106.991,17.24 106.851,17.747 106.799,18.263 C106.781,18.422 106.752,18.581 106.709,18.739 C106.666,18.898 106.545,18.989 106.355,19.008 C106.2,19.008 106.073,18.949 105.978,18.831 C105.881,18.711 105.842,18.573 105.861,18.415 C105.879,17.918 105.994,17.433 106.212,16.955 C106.43,16.477 106.633,16.032 106.825,15.613 C106.895,15.455 106.964,15.316 107.034,15.196 C107.102,15.079 107.181,14.939 107.27,14.781 C107.026,14.841 106.795,14.904 106.576,14.976 C106.359,15.043 106.129,15.128 105.885,15.226 C105.572,15.328 105.271,15.448 104.984,15.583 C104.697,15.724 104.404,15.873 104.11,16.031 C104.023,16.091 103.939,16.1 103.861,16.059 C103.783,16.02 103.73,15.96 103.704,15.881 C103.679,15.803 103.673,15.718 103.691,15.627 C103.71,15.534 103.763,15.46 103.85,15.4 L103.85,15.4 Z M115.285,13.106 C115.738,11.736 116.214,10.395 116.707,9.085 C117.205,7.773 117.704,6.455 118.208,5.124 C118.452,4.527 118.685,3.928 118.914,3.322 C119.138,2.716 119.356,2.097 119.566,1.461 C119.164,1.54 118.766,1.695 118.362,1.923 C117.965,2.152 117.581,2.414 117.217,2.713 C116.85,3.01 116.505,3.319 116.184,3.637 C115.861,3.955 115.561,4.251 115.283,4.531 C113.821,6.059 112.462,7.75 111.208,9.594 C110.321,10.947 109.478,12.315 108.676,13.705 L110.843,13.347 C111.487,13.287 112.13,13.245 112.775,13.214 C113.419,13.186 114.07,13.188 114.735,13.229 L115.256,13.229 C115.259,13.168 115.266,13.127 115.285,13.106 L115.285,13.106 Z"></path>
                    <path d="M122.648,13.612 C122.769,13.535 122.992,13.388 123.315,13.183 C123.636,12.973 123.993,12.759 124.384,12.542 C124.775,12.322 125.171,12.119 125.572,11.929 C125.971,11.741 126.32,11.636 126.616,11.616 C126.72,11.576 126.829,11.583 126.942,11.63 C127.055,11.682 127.14,11.745 127.192,11.827 C127.294,12.026 127.305,12.179 127.218,12.288 C127.131,12.398 127.015,12.491 126.88,12.57 C126.741,12.651 126.587,12.713 126.422,12.763 C126.257,12.813 126.149,12.878 126.096,12.957 C126.009,13.076 126.029,13.185 126.161,13.284 C126.293,13.385 126.453,13.464 126.644,13.523 C126.835,13.582 127.026,13.636 127.218,13.686 C127.409,13.735 127.531,13.783 127.582,13.82 C127.931,14.041 128.135,14.274 128.196,14.52 C128.256,14.769 128.22,15.022 128.08,15.279 L128.785,14.863 L130.874,13.612 C130.994,13.533 131.104,13.531 131.2,13.599 C131.297,13.667 131.344,13.783 131.344,13.942 C131.344,14.1 131.27,14.213 131.12,14.283 C130.974,14.353 130.838,14.418 130.716,14.476 C130.297,14.695 129.876,14.928 129.448,15.177 C129.024,15.423 128.601,15.679 128.184,15.935 C127.679,16.213 127.196,16.462 126.735,16.679 C126.273,16.9 125.798,17.009 125.314,17.009 C124.964,17.009 124.654,16.868 124.386,16.591 C124.114,16.314 123.98,15.995 123.98,15.638 C123.962,15.459 123.996,15.315 124.083,15.207 C124.171,15.099 124.276,15.028 124.397,14.998 C124.519,14.968 124.627,14.995 124.725,15.075 C124.82,15.153 124.877,15.278 124.894,15.46 C124.928,15.858 125.08,16.09 125.351,16.16 C125.622,16.23 125.939,16.218 126.304,16.116 C126.546,16.017 126.771,15.891 126.971,15.746 C127.171,15.596 127.314,15.451 127.403,15.313 C127.628,15.036 127.691,14.818 127.584,14.66 C127.481,14.499 127.303,14.371 127.05,14.269 C126.798,14.171 126.531,14.087 126.253,14.017 C125.974,13.947 125.784,13.863 125.68,13.763 C125.522,13.605 125.431,13.446 125.404,13.287 C125.379,13.129 125.382,12.97 125.419,12.809 C125.159,12.929 124.901,13.052 124.648,13.182 C124.394,13.312 124.168,13.425 123.955,13.524 C123.798,13.627 123.613,13.767 123.396,13.958 C123.179,14.147 122.983,14.24 122.807,14.24 C122.721,14.26 122.647,14.246 122.586,14.196 C122.525,14.149 122.491,14.09 122.481,14.018 C122.476,13.949 122.481,13.872 122.509,13.794 C122.53,13.718 122.579,13.655 122.648,13.612 L122.648,13.612 Z"></path>
                    <path d="M130.898,13.612 C131.02,13.535 131.243,13.388 131.565,13.183 C131.887,12.973 132.243,12.759 132.637,12.542 C133.027,12.322 133.424,12.119 133.822,11.929 C134.223,11.741 134.572,11.636 134.87,11.616 C134.974,11.576 135.083,11.583 135.195,11.63 C135.307,11.682 135.39,11.745 135.443,11.827 C135.548,12.026 135.556,12.179 135.47,12.288 C135.381,12.398 135.269,12.491 135.131,12.57 C134.991,12.651 134.838,12.713 134.674,12.763 C134.506,12.813 134.398,12.878 134.345,12.957 C134.259,13.076 134.281,13.185 134.412,13.284 C134.541,13.385 134.703,13.464 134.895,13.523 C135.087,13.583 135.276,13.636 135.47,13.686 C135.662,13.735 135.782,13.783 135.836,13.82 C136.185,14.041 136.389,14.274 136.451,14.52 C136.511,14.769 136.473,15.022 136.334,15.279 L137.039,14.863 L139.128,13.612 C139.249,13.533 139.358,13.531 139.455,13.599 C139.551,13.667 139.6,13.783 139.6,13.942 C139.6,14.1 139.525,14.213 139.374,14.283 C139.227,14.353 139.093,14.418 138.97,14.476 C138.551,14.695 138.129,14.928 137.705,15.177 C137.278,15.423 136.856,15.679 136.439,15.935 C135.935,16.213 135.45,16.462 134.988,16.679 C134.527,16.9 134.055,17.009 133.564,17.009 C133.217,17.009 132.909,16.868 132.638,16.591 C132.368,16.314 132.232,15.995 132.232,15.638 C132.215,15.459 132.25,15.315 132.337,15.207 C132.421,15.099 132.529,15.028 132.65,14.998 C132.77,14.968 132.881,14.995 132.976,15.075 C133.073,15.153 133.129,15.278 133.145,15.46 C133.179,15.858 133.332,16.09 133.6,16.16 C133.871,16.23 134.189,16.218 134.555,16.116 C134.798,16.017 135.02,15.891 135.221,15.746 C135.422,15.596 135.566,15.451 135.653,15.313 C135.881,15.036 135.941,14.818 135.835,14.66 C135.728,14.499 135.552,14.371 135.3,14.269 C135.048,14.171 134.782,14.087 134.504,14.017 C134.225,13.947 134.032,13.863 133.93,13.763 C133.774,13.605 133.683,13.446 133.657,13.287 C133.63,13.129 133.634,12.97 133.669,12.809 C133.408,12.929 133.149,13.052 132.9,13.182 C132.648,13.312 132.415,13.425 132.206,13.524 C132.049,13.627 131.863,13.767 131.646,13.958 C131.428,14.147 131.233,14.24 131.059,14.24 C130.972,14.26 130.898,14.246 130.837,14.196 C130.775,14.149 130.74,14.09 130.734,14.018 C130.724,13.949 130.734,13.872 130.758,13.794 C130.785,13.718 130.829,13.655 130.898,13.612 L130.898,13.612 Z"></path>
                    <path d="M139.253,13.585 C139.565,13.404 139.893,13.21 140.232,12.99 C140.571,12.771 140.917,12.582 141.266,12.425 C141.491,11.967 141.814,11.595 142.231,11.306 C142.648,11.02 143.092,10.827 143.561,10.726 C143.804,10.689 144.089,10.689 144.409,10.726 C144.732,10.765 144.979,10.914 145.153,11.172 C145.276,11.33 145.304,11.5 145.245,11.678 C145.184,11.858 145.08,12.026 144.934,12.185 C144.785,12.344 144.62,12.489 144.438,12.618 C144.254,12.75 144.121,12.842 144.032,12.9 C143.72,13.121 143.376,13.284 143.001,13.393 C142.627,13.5 142.247,13.536 141.865,13.497 L141.763,13.497 C141.83,13.935 141.988,14.269 142.231,14.51 C142.473,14.748 142.762,14.922 143.095,15.031 C143.422,15.139 143.768,15.185 144.126,15.165 C144.48,15.146 144.807,15.105 145.104,15.049 C145.521,14.949 145.932,14.823 146.331,14.677 C146.732,14.53 147.123,14.354 147.508,14.156 C147.68,14.057 147.86,13.962 148.043,13.874 C148.229,13.784 148.397,13.689 148.552,13.588 C148.671,13.551 148.799,13.568 148.931,13.65 C149.061,13.729 149.073,13.858 148.967,14.036 C148.879,14.198 148.761,14.305 148.603,14.366 C148.447,14.426 148.306,14.482 148.185,14.542 L146.878,15.198 C146.078,15.556 145.287,15.853 144.502,16.092 C144.153,16.169 143.8,16.196 143.447,16.167 C143.088,16.136 142.758,16.047 142.454,15.898 C142.15,15.748 141.874,15.535 141.632,15.256 C141.386,14.98 141.215,14.621 141.111,14.184 C141.076,14.026 141.043,13.867 141.019,13.707 C140.99,13.55 140.995,13.397 141.031,13.263 C140.839,13.36 140.653,13.476 140.47,13.605 C140.287,13.735 140.125,13.847 139.987,13.948 C139.897,13.988 139.785,14.061 139.645,14.171 C139.506,14.28 139.366,14.286 139.227,14.185 C139.126,14.107 139.075,13.999 139.085,13.859 C139.092,13.713 139.149,13.625 139.253,13.585 L139.253,13.585 Z M141.916,12.751 C142.334,12.73 142.738,12.613 143.129,12.395 C143.522,12.177 143.865,11.897 144.161,11.559 C143.92,11.46 143.678,11.428 143.445,11.469 C143.208,11.512 142.991,11.59 142.792,11.708 C142.591,11.828 142.413,11.979 142.257,12.17 C142.099,12.358 141.985,12.553 141.916,12.751 L141.916,12.751 Z"></path>
                    <path d="M148.416,13.612 C148.539,13.535 148.761,13.388 149.082,13.183 C149.405,12.973 149.761,12.759 150.153,12.542 C150.545,12.322 150.941,12.119 151.341,11.929 C151.74,11.741 152.089,11.636 152.385,11.616 C152.49,11.576 152.6,11.583 152.712,11.63 C152.826,11.682 152.908,11.745 152.96,11.827 C153.064,12.026 153.071,12.179 152.985,12.288 C152.899,12.398 152.785,12.491 152.647,12.57 C152.506,12.651 152.355,12.713 152.189,12.763 C152.024,12.813 151.914,12.878 151.861,12.957 C151.776,13.076 151.797,13.185 151.929,13.284 C152.057,13.385 152.221,13.464 152.41,13.523 C152.602,13.583 152.792,13.636 152.985,13.686 C153.177,13.735 153.299,13.783 153.35,13.82 C153.701,14.041 153.906,14.274 153.965,14.52 C154.025,14.769 153.987,15.022 153.85,15.279 L154.554,14.863 L156.643,13.612 C156.763,13.533 156.872,13.531 156.97,13.599 C157.064,13.667 157.114,13.783 157.114,13.942 C157.114,14.1 157.04,14.213 156.89,14.283 C156.742,14.353 156.608,14.418 156.485,14.476 C156.068,14.695 155.644,14.928 155.22,15.177 C154.792,15.423 154.37,15.679 153.952,15.935 C153.448,16.213 152.966,16.462 152.503,16.679 C152.041,16.9 151.567,17.009 151.082,17.009 C150.733,17.009 150.423,16.868 150.153,16.591 C149.884,16.314 149.75,15.995 149.75,15.638 C149.732,15.459 149.767,15.315 149.854,15.207 C149.939,15.099 150.043,15.028 150.166,14.998 C150.286,14.968 150.397,14.995 150.491,15.075 C150.587,15.153 150.644,15.278 150.661,15.46 C150.695,15.858 150.847,16.09 151.118,16.16 C151.387,16.23 151.704,16.218 152.069,16.116 C152.313,16.017 152.536,15.891 152.734,15.746 C152.935,15.596 153.08,15.451 153.168,15.313 C153.395,15.036 153.455,14.818 153.349,14.66 C153.245,14.499 153.067,14.371 152.815,14.269 C152.564,14.171 152.297,14.087 152.019,14.017 C151.739,13.947 151.55,13.863 151.445,13.763 C151.288,13.605 151.197,13.446 151.17,13.287 C151.145,13.129 151.149,12.97 151.184,12.809 C150.923,12.929 150.668,13.052 150.413,13.182 C150.162,13.312 149.929,13.425 149.72,13.524 C149.562,13.627 149.377,13.767 149.158,13.958 C148.94,14.147 148.746,14.24 148.571,14.24 C148.484,14.26 148.41,14.246 148.348,14.196 C148.287,14.147 148.253,14.09 148.245,14.018 C148.238,13.949 148.245,13.872 148.269,13.794 C148.3,13.713 148.348,13.655 148.416,13.612 L148.416,13.612 Z"></path>
                    <path d="M156.667,13.612 C156.787,13.535 157.014,13.388 157.332,13.183 C157.655,12.973 158.012,12.759 158.401,12.542 C158.796,12.322 159.192,12.119 159.591,11.929 C159.99,11.741 160.338,11.636 160.634,11.616 C160.738,11.576 160.848,11.583 160.961,11.63 C161.074,11.682 161.156,11.745 161.208,11.827 C161.312,12.026 161.318,12.179 161.234,12.288 C161.148,12.398 161.035,12.491 160.894,12.57 C160.756,12.651 160.603,12.713 160.44,12.763 C160.272,12.813 160.163,12.878 160.112,12.957 C160.023,13.076 160.046,13.185 160.177,13.284 C160.308,13.385 160.469,13.464 160.661,13.523 C160.851,13.583 161.042,13.636 161.235,13.686 C161.426,13.735 161.548,13.783 161.6,13.82 C161.951,14.041 162.156,14.274 162.216,14.52 C162.275,14.769 162.236,15.022 162.1,15.279 L162.803,14.863 L164.892,13.612 C165.014,13.533 165.123,13.531 165.219,13.599 C165.314,13.667 165.362,13.783 165.362,13.942 C165.362,14.1 165.288,14.213 165.138,14.283 C164.992,14.353 164.859,14.418 164.736,14.476 C164.317,14.695 163.893,14.928 163.468,15.177 C163.043,15.423 162.621,15.679 162.2,15.935 C161.698,16.213 161.216,16.462 160.754,16.679 C160.291,16.9 159.816,17.009 159.329,17.009 C158.981,17.009 158.674,16.868 158.402,16.591 C158.132,16.314 157.999,15.995 157.999,15.638 C157.981,15.459 158.017,15.315 158.104,15.207 C158.188,15.099 158.293,15.028 158.416,14.998 C158.535,14.968 158.646,14.995 158.742,15.075 C158.839,15.153 158.893,15.278 158.911,15.46 C158.944,15.858 159.096,16.09 159.367,16.16 C159.637,16.23 159.954,16.218 160.32,16.116 C160.562,16.017 160.783,15.891 160.984,15.746 C161.184,15.596 161.329,15.451 161.417,15.313 C161.644,15.036 161.703,14.818 161.599,14.66 C161.494,14.499 161.315,14.371 161.066,14.269 C160.814,14.171 160.547,14.087 160.268,14.017 C159.99,13.947 159.798,13.863 159.693,13.763 C159.537,13.605 159.446,13.446 159.419,13.287 C159.392,13.128 159.398,12.97 159.433,12.809 C159.171,12.929 158.916,13.052 158.662,13.182 C158.411,13.312 158.18,13.425 157.971,13.524 C157.813,13.627 157.625,13.767 157.408,13.958 C157.189,14.147 156.994,14.24 156.822,14.24 C156.734,14.26 156.658,14.246 156.599,14.196 C156.536,14.147 156.504,14.09 156.496,14.018 C156.487,13.949 156.496,13.872 156.519,13.794 C156.549,13.713 156.598,13.655 156.667,13.612 L156.667,13.612 Z"></path>
                    <path d="M164.915,13.612 C165.316,13.355 165.714,13.117 166.116,12.898 C166.516,12.678 166.917,12.46 167.318,12.243 C167.438,12.182 167.608,12.09 167.826,11.961 C168.045,11.831 168.272,11.708 168.517,11.59 C168.76,11.469 168.997,11.381 169.224,11.321 C169.45,11.261 169.631,11.271 169.772,11.353 C169.929,11.468 170.004,11.609 169.994,11.768 C169.984,11.927 169.932,12.096 169.837,12.275 C169.741,12.451 169.632,12.621 169.512,12.781 C169.391,12.941 169.302,13.07 169.252,13.17 C169.161,13.329 169.082,13.497 169.002,13.675 C168.926,13.855 168.843,14.032 168.756,14.213 C169.154,13.855 169.508,13.541 169.814,13.274 C170.118,13.006 170.392,12.772 170.636,12.572 C170.878,12.377 171.109,12.207 171.327,12.069 C171.544,11.929 171.765,11.81 171.992,11.709 C172.254,11.591 172.505,11.587 172.749,11.695 C172.993,11.805 173.08,12.056 173.01,12.457 C172.977,12.73 172.915,12.997 172.829,13.244 C172.741,13.493 172.637,13.735 172.516,13.973 C172.899,13.716 173.285,13.452 173.664,13.184 C174.047,12.913 174.438,12.645 174.84,12.366 C175.171,12.127 175.525,11.88 175.898,11.621 C176.272,11.363 176.66,11.204 177.06,11.144 C177.321,11.105 177.53,11.141 177.689,11.249 C177.845,11.355 177.946,11.505 177.998,11.694 C178.052,11.882 178.061,12.092 178.028,12.317 C177.992,12.546 177.923,12.759 177.817,12.96 C177.591,13.378 177.366,13.771 177.137,14.137 C176.909,14.505 176.7,14.888 176.511,15.282 C176.788,15.345 177.115,15.303 177.491,15.163 C177.863,15.027 178.166,14.897 178.392,14.776 C178.637,14.678 178.863,14.575 179.07,14.463 C179.278,14.356 179.497,14.239 179.724,14.121 C179.792,14.082 179.874,14.018 179.969,13.944 C180.067,13.863 180.17,13.789 180.282,13.717 C180.396,13.648 180.504,13.597 180.608,13.57 C180.712,13.538 180.807,13.544 180.896,13.585 C181.068,13.685 181.113,13.804 181.027,13.944 C180.939,14.082 180.803,14.215 180.622,14.346 C180.438,14.476 180.249,14.587 180.05,14.687 C179.848,14.786 179.713,14.855 179.644,14.893 C179.4,15.052 179.157,15.193 178.915,15.312 C178.67,15.427 178.428,15.548 178.184,15.667 C177.854,15.826 177.489,15.994 177.087,16.175 C176.686,16.353 176.312,16.353 175.963,16.175 C175.772,16.074 175.65,15.946 175.599,15.786 C175.546,15.627 175.534,15.463 175.56,15.294 C175.585,15.127 175.647,14.952 175.743,14.773 C175.84,14.593 175.939,14.445 176.044,14.326 C176.148,14.19 176.274,14.042 176.422,13.884 C176.569,13.725 176.71,13.553 176.841,13.374 C176.97,13.195 177.075,13.014 177.154,12.822 C177.232,12.634 177.255,12.43 177.218,12.214 C177.044,12.116 176.831,12.124 176.577,12.242 C176.323,12.361 176.131,12.46 175.99,12.542 C175.469,12.759 174.961,13.048 174.476,13.403 C173.988,13.761 173.517,14.12 173.065,14.477 C172.995,14.537 172.874,14.649 172.698,14.82 C172.523,14.987 172.342,15.143 172.151,15.28 C171.959,15.421 171.773,15.51 171.589,15.551 C171.407,15.588 171.278,15.5 171.213,15.28 C171.175,15.182 171.183,15.061 171.236,14.924 C171.288,14.785 171.359,14.641 171.445,14.49 C171.533,14.34 171.62,14.199 171.707,14.058 C171.794,13.919 171.853,13.8 171.89,13.702 C171.921,13.604 171.971,13.465 172.034,13.285 C172.095,13.105 172.141,12.93 172.177,12.749 C171.778,12.887 171.402,13.072 171.056,13.299 C170.708,13.528 170.372,13.778 170.052,14.044 C169.729,14.312 169.41,14.601 169.097,14.907 C168.784,15.216 168.461,15.511 168.13,15.786 C168.045,15.887 167.94,15.967 167.817,16.027 C167.697,16.087 167.576,16.074 167.452,15.994 C167.295,15.915 167.209,15.821 167.19,15.712 C167.172,15.603 167.19,15.495 167.243,15.384 C167.295,15.272 167.366,15.169 167.452,15.07 C167.539,14.97 167.608,14.893 167.66,14.833 C168.148,14.117 168.54,13.323 168.837,12.448 C168.456,12.549 168.084,12.681 167.728,12.85 C167.371,13.019 167.027,13.183 166.696,13.341 C166.452,13.48 166.21,13.612 165.967,13.743 C165.722,13.872 165.479,14.028 165.236,14.205 C165.148,14.266 165.062,14.281 164.974,14.25 C164.887,14.218 164.828,14.17 164.792,14.102 C164.759,14.031 164.743,13.947 164.753,13.848 C164.757,13.753 164.813,13.675 164.915,13.612 L164.915,13.612 Z"></path>
                    <path d="M180.582,13.585 C180.896,13.404 181.224,13.21 181.562,12.99 C181.904,12.771 182.246,12.582 182.595,12.425 C182.821,11.967 183.142,11.595 183.562,11.306 C183.978,11.02 184.421,10.827 184.891,10.726 C185.135,10.689 185.417,10.689 185.739,10.726 C186.063,10.765 186.309,10.914 186.483,11.172 C186.605,11.33 186.636,11.5 186.576,11.678 C186.514,11.858 186.409,12.026 186.263,12.185 C186.116,12.344 185.949,12.489 185.766,12.618 C185.582,12.75 185.45,12.842 185.361,12.9 C185.049,13.121 184.703,13.284 184.33,13.393 C183.955,13.5 183.577,13.536 183.195,13.497 L183.091,13.497 C183.161,13.935 183.319,14.269 183.562,14.51 C183.803,14.748 184.092,14.922 184.421,15.031 C184.75,15.14 185.096,15.185 185.454,15.165 C185.81,15.146 186.138,15.105 186.433,15.049 C186.852,14.949 187.26,14.823 187.661,14.677 C188.061,14.53 188.453,14.354 188.838,14.156 C189.01,14.057 189.192,13.962 189.373,13.874 C189.556,13.784 189.726,13.689 189.881,13.588 C190.001,13.551 190.127,13.568 190.259,13.65 C190.39,13.729 190.403,13.858 190.295,14.036 C190.208,14.198 190.089,14.305 189.931,14.366 C189.774,14.426 189.634,14.482 189.515,14.542 L188.206,15.198 C187.404,15.556 186.615,15.853 185.83,16.092 C185.482,16.169 185.129,16.196 184.772,16.167 C184.417,16.136 184.085,16.047 183.783,15.898 C183.477,15.748 183.203,15.535 182.96,15.256 C182.715,14.98 182.542,14.621 182.439,14.184 C182.402,14.026 182.374,13.867 182.347,13.707 C182.319,13.55 182.325,13.397 182.36,13.263 C182.169,13.36 181.981,13.476 181.797,13.605 C181.616,13.735 181.453,13.847 181.316,13.948 C181.229,13.988 181.115,14.061 180.975,14.171 C180.836,14.28 180.696,14.286 180.558,14.185 C180.455,14.107 180.406,13.999 180.414,13.859 C180.421,13.713 180.478,13.625 180.582,13.585 L180.582,13.585 Z M183.245,12.751 C183.663,12.73 184.068,12.613 184.459,12.395 C184.851,12.177 185.195,11.897 185.492,11.559 C185.247,11.46 185.008,11.428 184.772,11.469 C184.539,11.512 184.321,11.59 184.121,11.708 C183.923,11.828 183.743,11.979 183.587,12.17 C183.427,12.358 183.316,12.553 183.245,12.751 L183.245,12.751 Z"></path>
                    <path d="M189.746,13.612 C189.938,13.496 190.267,13.291 190.74,13.005 C191.21,12.717 191.69,12.443 192.187,12.185 C192.685,11.928 193.139,11.747 193.558,11.648 C193.977,11.55 194.239,11.628 194.342,11.887 C194.41,12.085 194.388,12.28 194.276,12.468 C194.162,12.655 194.08,12.83 194.029,12.987 L193.716,13.821 C193.944,13.662 194.168,13.524 194.396,13.405 C194.623,13.285 194.849,13.166 195.075,13.05 C195.632,12.71 196.206,12.353 196.798,11.975 C197.388,11.601 197.991,11.31 198.6,11.111 C198.827,11.053 199.027,11.047 199.202,11.097 C199.374,11.147 199.51,11.238 199.605,11.368 C199.7,11.497 199.75,11.665 199.75,11.872 C199.75,12.082 199.679,12.305 199.541,12.545 C199.385,12.821 199.216,13.07 199.031,13.288 C198.851,13.506 198.661,13.746 198.468,14.002 C198.437,14.062 198.372,14.143 198.288,14.241 C198.198,14.34 198.11,14.456 198.012,14.583 C197.917,14.714 197.832,14.842 197.751,14.971 C197.674,15.101 197.627,15.214 197.608,15.315 C197.729,15.352 197.882,15.352 198.063,15.315 C198.248,15.275 198.431,15.219 198.613,15.15 C198.795,15.081 198.971,15.006 199.134,14.927 C199.301,14.848 199.426,14.788 199.515,14.747 L200.583,14.212 C200.651,14.171 200.744,14.11 200.857,14.032 C200.969,13.952 201.088,13.878 201.211,13.808 C201.331,13.739 201.449,13.671 201.564,13.613 C201.676,13.553 201.769,13.525 201.838,13.525 C201.995,13.525 202.073,13.613 202.073,13.793 C202.073,13.974 202.002,14.111 201.864,14.212 C201.707,14.311 201.542,14.404 201.367,14.493 C201.191,14.581 201.011,14.677 200.819,14.775 C200.575,14.932 200.34,15.072 200.113,15.192 C199.885,15.31 199.652,15.439 199.407,15.578 C199.268,15.659 199.046,15.774 198.741,15.922 C198.439,16.07 198.134,16.18 197.83,16.249 C197.523,16.317 197.258,16.309 197.034,16.218 C196.807,16.128 196.694,15.886 196.694,15.488 C196.694,15.293 196.735,15.113 196.825,14.954 C196.911,14.796 197.009,14.64 197.124,14.49 C197.239,14.34 197.36,14.197 197.492,14.057 C197.622,13.919 197.737,13.791 197.844,13.669 C197.947,13.571 198.124,13.362 198.366,13.043 C198.608,12.726 198.765,12.429 198.837,12.149 C198.366,12.209 197.892,12.349 197.412,12.568 C196.934,12.786 196.494,13.015 196.095,13.251 C195.587,13.53 195.067,13.843 194.527,14.193 C193.987,14.54 193.518,14.949 193.118,15.427 C193.031,15.505 192.938,15.55 192.845,15.56 C192.745,15.571 192.657,15.55 192.572,15.501 C192.484,15.451 192.418,15.377 192.376,15.277 C192.33,15.176 192.327,15.048 192.363,14.888 C192.413,14.71 192.542,14.551 192.751,14.412 C192.841,14.254 192.926,14.07 193.012,13.861 C193.102,13.651 193.162,13.528 193.195,13.488 C193.23,13.347 193.265,13.206 193.3,13.056 C193.333,12.908 193.361,12.752 193.379,12.594 C193.189,12.654 192.996,12.723 192.804,12.8 C192.611,12.88 192.465,12.94 192.364,12.98 C192.119,13.1 191.873,13.213 191.631,13.323 C191.388,13.429 191.144,13.553 190.901,13.693 C190.76,13.771 190.635,13.851 190.522,13.929 C190.41,14.009 190.285,14.08 190.144,14.14 C190.04,14.2 189.942,14.212 189.844,14.182 C189.747,14.154 189.677,14.109 189.622,14.05 C189.569,13.989 189.549,13.913 189.556,13.825 C189.56,13.748 189.625,13.675 189.746,13.612 L189.746,13.612 Z"></path>
                    <path d="M203.974,9.919 C204.287,9.94 204.601,9.946 204.915,9.935 C205.228,9.922 205.542,9.901 205.854,9.859 C206.341,9.007 206.867,8.117 207.434,7.195 C208,6.27 208.639,5.491 209.354,4.856 C209.492,4.755 209.634,4.657 209.785,4.558 C209.934,4.458 210.087,4.399 210.242,4.378 C210.414,4.378 210.547,4.458 210.633,4.615 C210.721,4.775 210.737,4.946 210.685,5.125 C210.598,5.522 210.407,5.901 210.11,6.271 C209.816,6.64 209.563,6.974 209.355,7.27 C209.093,7.668 208.818,8.056 208.533,8.432 C208.244,8.81 207.953,9.176 207.656,9.535 L209.198,9.119 L211.781,8.225 C211.904,8.165 212.03,8.12 212.162,8.089 C212.291,8.058 212.407,8.123 212.514,8.284 C212.618,8.445 212.644,8.607 212.591,8.773 C212.54,8.941 212.445,9.056 212.304,9.118 C211.504,9.434 210.669,9.684 209.797,9.86 C208.926,10.04 208.074,10.187 207.239,10.308 L206.873,10.395 C206.663,10.615 206.446,10.833 206.221,11.052 C205.995,11.268 205.761,11.49 205.514,11.707 C205.395,11.906 205.288,12.108 205.203,12.316 C205.113,12.522 205.028,12.739 204.941,12.958 C204.906,13.018 204.854,13.167 204.786,13.403 C204.712,13.643 204.65,13.887 204.59,14.135 C204.528,14.381 204.482,14.612 204.444,14.82 C204.411,15.025 204.419,15.133 204.472,15.133 C204.838,15.233 205.231,15.205 205.659,15.056 C206.087,14.907 206.455,14.785 206.77,14.686 C207.168,14.528 207.569,14.368 207.969,14.208 C208.37,14.049 208.768,13.871 209.169,13.673 C209.273,13.633 209.407,13.604 209.574,13.583 C209.74,13.562 209.813,13.683 209.796,13.942 C209.779,14.119 209.671,14.245 209.471,14.311 C209.271,14.38 209.111,14.445 208.988,14.506 L207.133,15.278 C206.926,15.382 206.633,15.519 206.259,15.698 C205.887,15.875 205.51,16.02 205.138,16.129 C204.764,16.236 204.423,16.254 204.119,16.175 C203.813,16.094 203.624,15.828 203.557,15.37 C203.521,14.912 203.595,14.46 203.779,14.015 C203.961,13.569 204.175,13.087 204.42,12.569 C203.619,13.186 202.782,13.732 201.914,14.211 C201.809,14.271 201.723,14.28 201.651,14.238 C201.583,14.201 201.53,14.141 201.494,14.06 C201.462,13.983 201.456,13.897 201.482,13.808 C201.507,13.718 201.564,13.644 201.649,13.582 C202.26,13.267 202.846,12.917 203.412,12.541 C203.98,12.164 204.531,11.744 205.071,11.289 L205.436,10.575 C205.174,10.594 204.889,10.636 204.576,10.693 C204.263,10.75 204.009,10.724 203.816,10.606 C203.677,10.506 203.63,10.366 203.673,10.188 C203.718,10.01 203.816,9.919 203.974,9.919 L203.974,9.919 Z M208.701,7.09 C208.789,6.952 208.869,6.803 208.946,6.643 C209.026,6.485 209.11,6.326 209.196,6.168 C209.019,6.368 208.859,6.564 208.713,6.764 C208.563,6.963 208.439,7.118 208.333,7.241 C208.021,7.638 207.715,8.041 207.422,8.446 C207.126,8.855 206.856,9.286 206.612,9.741 C207.395,8.927 208.09,8.043 208.701,7.09 L208.701,7.09 Z"></path>
                </g>
                <g transform="translate(0.000000, 39.000000)" id="Shape">
                    <path d="M7.092,37.979 C7.911,38.061 8.723,38.115 9.534,38.153 C10.343,38.194 11.149,38.212 11.949,38.212 C14.758,38.212 16.972,38.087 18.592,37.833 C20.212,37.579 21.549,37.167 22.605,36.603 C22.994,37.268 23.281,37.907 23.467,38.521 C23.653,39.134 23.745,39.758 23.745,40.379 C23.745,41.318 23.406,41.974 22.721,42.342 C22.037,42.714 20.761,42.899 18.888,42.899 C18.223,42.899 16.964,42.87 15.112,42.81 C13.255,42.751 11.746,42.723 10.573,42.723 C8.916,42.723 7.246,42.762 5.569,42.836 C3.891,42.917 3.041,42.955 3.021,42.955 C2.359,42.955 1.892,42.8 1.619,42.485 C1.345,42.175 1.208,41.627 1.208,40.847 C1.208,40.46 1.255,39.443 1.355,37.806 C1.707,31.621 1.883,25.745 1.883,20.184 C1.883,14.955 1.734,10.946 1.443,8.152 C1.149,5.362 0.671,3.353 0.008,2.122 C0.907,1.634 1.76,1.264 2.569,1.009 C3.378,0.756 4.163,0.63 4.924,0.63 C6.019,0.63 6.763,0.908 7.164,1.464 C7.564,2.018 7.764,3.166 7.764,4.903 C7.764,5.411 7.715,6.757 7.618,8.942 C7.266,17.313 7.093,25.213 7.093,32.651 L7.092,37.979 L7.092,37.979 L7.092,37.979 Z" fill="#0C98A7"></path>
                    <path d="M35.189,41.523 C34.367,41.973 33.591,42.301 32.849,42.518 C32.107,42.732 31.393,42.835 30.711,42.835 C29.755,42.835 29.107,42.579 28.768,42.061 C28.423,41.544 28.254,40.507 28.254,38.946 C28.254,38.044 28.343,36.04 28.519,32.914 C28.691,29.792 28.781,27.109 28.781,24.864 C28.781,22.426 28.664,20.445 28.427,18.923 C28.193,17.401 27.813,16.105 27.285,15.032 C28.01,14.604 28.749,14.275 29.51,14.053 C30.272,13.829 31.024,13.716 31.768,13.716 C32.664,13.716 33.279,13.935 33.612,14.374 C33.941,14.812 34.109,15.627 34.109,16.818 C34.109,17.129 34.02,18.839 33.845,21.94 C33.671,25.043 33.584,27.988 33.584,30.779 C33.584,33.394 33.713,35.559 33.978,37.278 C34.239,38.997 34.641,40.41 35.189,41.523 L35.189,41.523 Z M34.954,4.789 C34.954,5.904 34.564,6.829 33.786,7.57 C33.003,8.311 32.018,8.685 30.828,8.685 C29.792,8.685 28.972,8.39 28.368,7.808 C27.763,7.222 27.462,6.431 27.462,5.433 C27.462,4.342 27.852,3.41 28.632,2.639 C29.412,1.867 30.359,1.482 31.471,1.482 C32.484,1.482 33.321,1.796 33.974,2.419 C34.628,3.043 34.954,3.833 34.954,4.789 L34.954,4.789 Z" fill="#0C98A7"></path>
                    <path d="M44.907,19.365 C44.573,19.365 44.117,19.379 43.529,19.408 C42.946,19.438 42.565,19.451 42.387,19.451 C41.587,19.451 41.026,19.34 40.706,19.116 C40.383,18.891 40.223,18.504 40.223,17.959 C40.223,17.706 40.266,17.406 40.354,17.065 C40.444,16.724 40.583,16.338 40.779,15.908 C40.937,15.908 41.197,15.916 41.569,15.939 C41.94,15.958 42.233,15.968 42.446,15.968 C42.955,15.968 43.764,15.939 44.877,15.881 C45.013,15.881 45.12,15.873 45.199,15.85 C45.199,15.635 45.21,15.312 45.228,14.885 C45.246,14.452 45.257,14.143 45.257,13.949 C45.257,12.426 45.158,11.083 44.965,9.924 C44.769,8.762 44.464,7.742 44.055,6.865 C44.896,6.454 45.645,6.143 46.311,5.927 C46.973,5.714 47.54,5.605 48.009,5.605 C48.807,5.605 49.389,5.854 49.749,6.352 C50.11,6.851 50.291,7.666 50.291,8.797 C50.291,9.286 50.201,10.818 50.027,13.393 C49.969,14.35 49.921,15.11 49.879,15.676 C51.01,15.517 52.031,15.402 52.94,15.323 C53.849,15.244 54.66,15.207 55.385,15.207 C56.028,15.207 56.491,15.323 56.773,15.561 C57.057,15.79 57.2,16.174 57.2,16.702 C57.2,16.992 57.111,17.357 56.934,17.799 C56.76,18.238 56.507,18.73 56.175,19.275 C55.668,19.158 55.13,19.072 54.565,19.012 C53.998,18.953 53.315,18.925 52.515,18.925 C52.379,18.925 51.967,18.94 51.285,18.967 C50.602,18.998 50.018,19.019 49.528,19.044 C49.355,22.086 49.226,24.594 49.149,26.564 C49.072,28.535 49.032,30.144 49.032,31.394 C49.032,34.107 49.272,36.005 49.749,37.089 C50.228,38.172 51.032,38.714 52.164,38.714 C52.477,38.714 52.804,38.654 53.143,38.54 C53.485,38.42 53.835,38.235 54.184,37.981 C54.362,38.371 54.49,38.714 54.565,39.006 C54.645,39.298 54.681,39.563 54.681,39.794 C54.681,40.752 54.286,41.538 53.498,42.153 C52.706,42.768 51.677,43.073 50.41,43.073 C48.301,43.073 46.735,42.376 45.712,40.981 C44.69,39.588 44.176,37.445 44.176,34.555 C44.176,33.735 44.275,31.567 44.468,28.044 C44.663,24.522 44.806,21.627 44.907,19.365 L44.907,19.365 Z" fill="#0C98A7"></path>
                    <path d="M83.104,36.663 C83.535,37.191 83.851,37.682 84.054,38.14 C84.26,38.599 84.361,39.043 84.361,39.471 C84.361,40.524 83.577,41.391 82.005,42.064 C80.432,42.739 78.382,43.073 75.843,43.073 C71.18,43.073 67.527,41.801 64.882,39.254 C62.236,36.708 60.916,33.191 60.916,28.703 C60.916,24.177 62.247,20.472 64.911,17.595 C67.576,14.716 70.994,13.278 75.172,13.278 C78.39,13.278 81.034,14.194 83.104,16.028 C85.17,17.862 86.205,20.206 86.205,23.054 C86.205,25.297 85.346,26.898 83.627,27.851 C81.913,28.81 78.995,29.288 74.878,29.288 C73.338,29.288 71.8,29.234 70.269,29.129 C68.737,29.02 67.22,28.858 65.716,28.644 L65.716,29.055 C65.716,32.096 66.616,34.506 68.409,36.283 C70.205,38.062 72.643,38.948 75.726,38.948 C77.17,38.948 78.508,38.757 79.737,38.377 C80.968,37.994 82.088,37.424 83.104,36.663 L83.104,36.663 Z M66.07,25.16 C67.358,25.375 68.777,25.536 70.325,25.644 C71.877,25.752 73.551,25.804 75.348,25.804 C77.786,25.804 79.416,25.579 80.235,25.134 C81.055,24.683 81.464,23.874 81.464,22.704 C81.464,20.926 80.851,19.524 79.623,18.486 C78.392,17.453 76.714,16.935 74.588,16.935 C72.324,16.935 70.439,17.657 68.938,19.101 C67.434,20.544 66.48,22.567 66.07,25.16 L66.07,25.16 Z" fill="#0C98A7"></path>
                    <path d="M97.18,19.803 C98.643,17.755 100.04,16.228 101.366,15.222 C102.694,14.221 103.998,13.716 105.289,13.716 C106.38,13.716 107.313,14.063 108.083,14.754 C108.855,15.449 109.239,16.302 109.239,17.316 C109.239,17.981 109.019,18.629 108.583,19.263 C108.143,19.897 107.483,20.525 106.604,21.153 C106.292,20.294 105.908,19.657 105.448,19.247 C104.992,18.839 104.438,18.633 103.795,18.633 C102.838,18.633 101.835,19.106 100.779,20.051 C99.727,20.998 98.692,22.363 97.677,24.136 C97.579,25.013 97.502,25.909 97.441,26.812 C97.385,27.724 97.356,28.604 97.356,29.462 C97.356,32.39 97.518,34.83 97.837,36.781 C98.157,38.731 98.661,40.332 99.344,41.582 C98.565,41.991 97.799,42.302 97.049,42.519 C96.296,42.733 95.56,42.836 94.839,42.836 C93.882,42.836 93.223,42.603 92.865,42.121 C92.502,41.642 92.321,40.68 92.321,39.239 C92.321,38.714 92.425,36.689 92.629,33.167 C92.835,29.643 92.934,26.372 92.934,23.343 C92.934,20.87 92.839,18.965 92.642,17.641 C92.446,16.31 92.124,15.142 91.675,14.125 C92.065,13.988 92.453,13.888 92.832,13.817 C93.211,13.749 93.609,13.715 94.016,13.715 C95.146,13.715 95.987,13.981 96.534,14.521 C97.084,15.055 97.355,15.881 97.355,16.99 C97.355,17.246 97.338,17.593 97.311,18.032 C97.285,18.472 97.241,19.062 97.18,19.803 L97.18,19.803 Z" fill="#0C98A7"></path>
                    <path d="M136.93,41.289 C136.169,41.777 135.475,42.143 134.855,42.399 C134.23,42.655 133.682,42.781 133.211,42.781 C132.371,42.781 131.762,42.52 131.381,42.003 C131.002,41.487 130.782,40.653 130.725,39.503 C129.261,40.753 127.811,41.679 126.378,42.282 C124.944,42.887 123.484,43.193 122.003,43.193 C119.074,43.193 116.714,42.372 114.92,40.731 C113.126,39.093 112.224,36.939 112.224,34.264 C112.224,31.24 113.461,28.816 115.929,26.993 C118.394,25.165 121.718,24.256 125.893,24.256 C126.576,24.256 127.303,24.279 128.075,24.325 C128.846,24.374 129.669,24.449 130.547,24.543 C130.588,24.371 130.612,24.189 130.622,24.006 C130.631,23.819 130.637,23.6 130.637,23.344 C130.637,21.315 130.066,19.771 128.926,18.707 C127.781,17.643 126.129,17.112 123.962,17.112 C122.168,17.112 120.688,17.411 119.528,18.006 C118.366,18.602 117.425,19.528 116.702,20.771 C116,20.598 115.468,20.295 115.109,19.866 C114.745,19.433 114.567,18.878 114.567,18.197 C114.567,16.771 115.471,15.594 117.275,14.668 C119.081,13.743 121.437,13.28 124.341,13.28 C127.914,13.28 130.591,14.142 132.377,15.869 C134.165,17.598 135.057,20.176 135.057,23.613 C135.057,24.256 135.026,25.38 134.968,26.976 C134.909,28.576 134.879,29.866 134.879,30.842 C134.879,33.532 135.04,35.7 135.362,37.34 C135.687,38.977 136.208,40.292 136.93,41.289 L136.93,41.289 Z M130.49,28.262 C129.59,28.126 128.785,28.022 128.075,27.954 C127.365,27.887 126.756,27.85 126.248,27.85 C123.224,27.85 120.942,28.354 119.396,29.36 C117.856,30.364 117.083,31.864 117.083,33.853 C117.083,35.453 117.619,36.717 118.692,37.63 C119.765,38.547 121.247,39.007 123.141,39.007 C124.567,39.007 125.898,38.739 127.136,38.2 C128.377,37.665 129.514,36.862 130.547,35.788 C130.509,34.812 130.484,34.016 130.474,33.402 C130.464,32.789 130.46,32.198 130.46,31.629 C130.46,31.277 130.47,30.726 130.49,29.976 C130.509,29.225 130.509,28.651 130.49,28.262 L130.49,28.262 Z" fill="#0C98A7"></path>
                    <path d="M143.808,38.157 C144.512,38.527 145.183,38.801 145.828,38.977 C146.469,39.152 147.093,39.24 147.699,39.24 C149.104,39.24 150.234,38.903 151.096,38.231 C151.951,37.559 152.382,36.674 152.382,35.582 C152.382,34.724 152.145,33.923 151.678,33.183 C151.21,32.44 150.331,31.541 149.044,30.49 C148.829,30.332 148.537,30.1 148.167,29.786 C144.87,27.054 143.219,24.634 143.219,22.526 C143.219,21.669 143.388,20.812 143.719,19.949 C144.052,19.091 144.538,18.272 145.179,17.491 C146.41,16.028 147.849,14.911 149.494,14.136 C151.148,13.368 152.924,12.981 154.838,12.981 C155.775,12.981 156.489,13.164 156.974,13.525 C157.462,13.887 157.704,14.409 157.704,15.092 C157.704,15.422 157.615,15.818 157.442,16.274 C157.268,16.734 156.973,17.314 156.563,18.017 C156.037,17.802 155.541,17.641 155.071,17.535 C154.602,17.428 154.145,17.376 153.693,17.376 C152.073,17.376 150.762,17.766 149.756,18.556 C148.75,19.347 148.249,20.366 148.249,21.618 C148.249,22.983 149.605,24.827 152.317,27.149 C152.999,27.735 153.517,28.193 153.869,28.526 C155.018,29.54 155.864,30.539 156.412,31.526 C156.959,32.51 157.232,33.516 157.232,34.554 C157.232,36.994 156.157,39.096 154,40.863 C151.846,42.628 149.224,43.512 146.141,43.512 C145.068,43.512 144.239,43.296 143.667,42.869 C143.093,42.442 142.804,41.837 142.804,41.053 C142.804,40.68 142.882,40.277 143.039,39.825 C143.204,39.375 143.459,38.819 143.808,38.157 L143.808,38.157 Z" fill="#BAC733"></path>
                    <path d="M184.583,36.663 C185.016,37.191 185.328,37.682 185.531,38.14 C185.737,38.599 185.84,39.043 185.84,39.471 C185.84,40.524 185.054,41.391 183.483,42.064 C181.912,42.739 179.86,43.073 177.324,43.073 C172.659,43.073 169.006,41.801 166.363,39.254 C163.714,36.708 162.397,33.191 162.397,28.703 C162.397,24.177 163.727,20.472 166.393,17.595 C169.06,14.716 172.476,13.278 176.652,13.278 C179.865,13.278 182.513,14.194 184.584,16.028 C186.649,17.862 187.685,20.206 187.685,23.054 C187.685,25.297 186.829,26.898 185.112,27.851 C183.394,28.81 180.472,29.288 176.361,29.288 C174.818,29.288 173.283,29.234 171.749,29.129 C170.22,29.02 168.7,28.858 167.197,28.644 L167.197,29.055 C167.197,32.096 168.094,34.506 169.888,36.283 C171.68,38.062 174.121,38.948 177.208,38.948 C178.649,38.948 179.987,38.757 181.218,38.377 C182.445,37.994 183.565,37.424 184.583,36.663 L184.583,36.663 Z M167.547,25.16 C168.835,25.375 170.254,25.536 171.805,25.644 C173.358,25.752 175.031,25.804 176.826,25.804 C179.265,25.804 180.898,25.579 181.715,25.134 C182.535,24.683 182.946,23.874 182.946,22.704 C182.946,20.926 182.33,19.524 181.101,18.486 C179.872,17.453 178.193,16.935 176.068,16.935 C173.804,16.935 171.92,17.657 170.42,19.101 C168.91,20.544 167.955,22.567 167.547,25.16 L167.547,25.16 Z" fill="#BAC733"></path>
                    <path d="M214.028,36.663 C214.459,37.191 214.772,37.682 214.977,38.14 C215.182,38.599 215.287,39.043 215.287,39.471 C215.287,40.524 214.499,41.391 212.93,42.064 C211.358,42.739 209.305,43.073 206.769,43.073 C202.105,43.073 198.451,41.801 195.804,39.254 C193.161,36.708 191.842,33.191 191.842,28.703 C191.842,24.177 193.172,20.472 195.838,17.595 C198.501,14.716 201.92,13.278 206.095,13.278 C209.312,13.278 211.958,14.194 214.029,16.028 C216.094,17.862 217.131,20.206 217.131,23.054 C217.131,25.297 216.273,26.898 214.555,27.851 C212.835,28.81 209.92,29.288 205.804,29.288 C204.265,29.288 202.73,29.234 201.193,29.129 C199.663,29.02 198.143,28.858 196.642,28.644 L196.642,29.055 C196.642,32.096 197.539,34.506 199.333,36.283 C201.127,38.062 203.566,38.948 206.651,38.948 C208.097,38.948 209.433,38.757 210.66,38.377 C211.891,37.994 213.013,37.424 214.028,36.663 L214.028,36.663 Z M196.992,25.16 C198.28,25.375 199.699,25.536 201.25,25.644 C202.802,25.752 204.476,25.804 206.271,25.804 C208.708,25.804 210.342,25.579 211.161,25.134 C211.98,24.683 212.391,23.874 212.391,22.704 C212.391,20.926 211.776,19.524 210.546,18.486 C209.313,17.453 207.638,16.935 205.512,16.935 C203.25,16.935 201.365,17.657 199.863,19.101 C198.358,20.544 197.401,22.567 196.992,25.16 L196.992,25.16 Z" fill="#BAC733"></path>
                </g>
                <path d="M291.693,108.541 C291.693,108.541 277.427,106.014 262.466,105.349 C248.894,104.745 213.717,105.977 213.717,105.977 C213.717,105.977 264.19,106.603 291.693,108.541 L291.693,108.541 Z" id="Shape" fill="#808184"></path>
                <g transform="translate(232.000000, 0.000000)" id="Shape">
                    <path d="M7.425,68.674 C7.425,68.674 15.633,66.701 21.768,70.51 L26.443,61.536 L11.426,24.03 C11.426,24.03 2.278,34.863 1.04,46.403 C1.04,46.406 -1.317,58.029 7.425,68.674 L7.425,68.674 Z" fill="#0C98A7"></path>
                    <path d="M35.481,84.201 C35.481,84.201 32.793,76.196 26.301,73.015 L31.425,64.297 L71.181,57.1 C71.181,57.1 66.859,70.603 57.742,77.785 C57.742,77.788 49.144,85.951 35.481,84.201 L35.481,84.201 Z" fill="#BAC733"></path>
                    <path d="M30.153,54.187 L37.919,40.167 L29.752,11.94 C29.752,11.94 20.301,15.479 14.805,20.785 L30.153,54.187 L30.153,54.187 Z" fill="#0C98A7"></path>
                    <path d="M35.399,57.037 L42.927,42.889 L71.055,34.373 C71.055,34.373 73.231,44.227 71.774,51.726 L35.399,57.037 L35.399,57.037 Z" fill="#BAC733"></path>
                    <path d="M33.847,10.388 L41.695,32.447 L60.914,0.895 L33.847,10.388 Z" fill="#0C98A7"></path>
                    <path d="M70.069,29.568 L47.402,34.609 L63.77,1.824 L70.069,29.568 Z" fill="#BAC733"></path>
                    <path d="M9.053,97.848 L21.27,91.522 C21.27,91.522 23.518,90.287 20.213,87.504 C20.213,87.504 16.946,83.133 9.916,82.754 C9.916,82.754 8.191,82.566 8.303,84.504 L8.571,97.858" fill="#808184"></path>
                </g>
            </g>
        </g>
    </g>
</svg>