<?xml version="1.0" encoding="UTF-8" standalone="no"?>
<svg width="287px" height="69px" viewBox="0 0 287 69" version="1.1" xmlns="http://www.w3.org/2000/svg" xmlns:xlink="http://www.w3.org/1999/xlink" xmlns:sketch="http://www.bohemiancoding.com/sketch/ns">
    <!-- Generator: Sketch 3.5.1 (25234) - http://www.bohemiancoding.com/sketch -->
    <title>Literasee_symbol_left_ORG</title>
    <desc>Created with Sketch.</desc>
    <defs></defs>
    <g id="Page-1" stroke="none" stroke-width="1" fill="none" fill-rule="evenodd" sketch:type="MSPage">
        <g id="Literasee_symbol_left_ORG" sketch:type="MSLayerGroup">
            <g id="Group" transform="translate(77.000000, 31.000000)" sketch:type="MSShapeGroup">
                <path d="M5.116,25.117 C5.655,25.17 6.189,25.207 6.723,25.232 C7.254,25.258 7.785,25.271 8.311,25.271 C10.158,25.271 11.614,25.186 12.679,25.019 C13.744,24.853 14.623,24.583 15.317,24.211 C15.573,24.649 15.762,25.067 15.884,25.472 C16.006,25.876 16.068,26.285 16.068,26.695 C16.068,27.31 15.843,27.742 15.394,27.985 C14.944,28.228 14.104,28.349 12.873,28.349 C12.436,28.349 11.608,28.33 10.39,28.291 C9.17,28.252 8.177,28.234 7.405,28.234 C6.316,28.234 5.218,28.258 4.114,28.309 C3.01,28.361 2.452,28.385 2.439,28.385 C2.003,28.385 1.695,28.283 1.516,28.077 C1.335,27.873 1.246,27.513 1.246,27 C1.246,26.743 1.278,26.075 1.342,24.998 C1.574,20.93 1.689,17.068 1.689,13.411 C1.689,9.973 1.592,7.335 1.4,5.5 C1.208,3.665 0.892,2.344 0.457,1.535 C1.048,1.214 1.609,0.971 2.141,0.804 C2.674,0.636 3.19,0.553 3.691,0.553 C4.41,0.553 4.899,0.737 5.163,1.102 C5.426,1.468 5.559,2.222 5.559,3.365 C5.559,3.698 5.526,4.583 5.462,6.021 C5.23,11.525 5.116,16.721 5.116,21.611 L5.116,25.117 L5.116,25.117 Z" id="Shape" fill="#0696A6"></path>
                <path d="M23.593,27.446 C23.053,27.742 22.541,27.96 22.053,28.1 C21.565,28.242 21.096,28.312 20.647,28.312 C20.019,28.312 19.592,28.141 19.368,27.801 C19.143,27.461 19.031,26.779 19.031,25.751 C19.031,25.16 19.089,23.84 19.204,21.785 C19.319,19.732 19.377,17.968 19.377,16.492 C19.377,14.888 19.3,13.585 19.146,12.586 C18.993,11.584 18.742,10.732 18.395,10.025 C18.871,9.743 19.358,9.527 19.858,9.38 C20.359,9.233 20.854,9.158 21.341,9.158 C21.93,9.158 22.335,9.302 22.553,9.592 C22.771,9.879 22.88,10.416 22.88,11.198 C22.88,11.403 22.822,12.526 22.707,14.566 C22.592,16.606 22.535,18.544 22.535,20.379 C22.535,22.1 22.621,23.525 22.794,24.652 C22.968,25.785 23.233,26.715 23.593,27.446 L23.593,27.446 Z M23.439,3.29 C23.439,4.021 23.182,4.631 22.67,5.118 C22.156,5.605 21.508,5.85 20.726,5.85 C20.045,5.85 19.506,5.658 19.108,5.273 C18.711,4.887 18.512,4.367 18.512,3.713 C18.512,2.994 18.769,2.382 19.282,1.874 C19.796,1.367 20.418,1.114 21.15,1.114 C21.816,1.114 22.365,1.32 22.796,1.73 C23.225,2.142 23.439,2.662 23.439,3.29 L23.439,3.29 Z" id="Shape" fill="#0696A6"></path>
                <path d="M29.984,12.875 C29.765,12.875 29.464,12.886 29.078,12.905 C28.693,12.924 28.444,12.933 28.327,12.933 C27.801,12.933 27.432,12.86 27.222,12.711 C27.01,12.565 26.904,12.311 26.904,11.951 C26.904,11.785 26.932,11.589 26.991,11.364 C27.049,11.139 27.142,10.885 27.27,10.603 C27.373,10.603 27.545,10.609 27.789,10.623 C28.033,10.636 28.226,10.643 28.367,10.643 C28.701,10.643 29.234,10.623 29.964,10.584 C30.054,10.584 30.126,10.578 30.176,10.564 C30.176,10.423 30.182,10.211 30.196,9.93 C30.208,9.647 30.215,9.442 30.215,9.314 C30.215,8.312 30.15,7.43 30.023,6.668 C29.894,5.904 29.695,5.233 29.426,4.656 C29.978,4.386 30.472,4.18 30.908,4.04 C31.344,3.899 31.717,3.828 32.025,3.828 C32.55,3.828 32.932,3.991 33.17,4.319 C33.406,4.646 33.526,5.182 33.526,5.926 C33.526,6.247 33.468,7.254 33.353,8.948 C33.315,9.576 33.282,10.076 33.257,10.448 C34.001,10.345 34.672,10.268 35.268,10.217 C35.866,10.166 36.4,10.141 36.876,10.141 C37.3,10.141 37.604,10.217 37.79,10.372 C37.976,10.525 38.07,10.776 38.07,11.123 C38.07,11.314 38.013,11.556 37.897,11.844 C37.782,12.133 37.615,12.457 37.397,12.817 C37.063,12.739 36.709,12.682 36.338,12.643 C35.966,12.604 35.516,12.586 34.991,12.586 C34.901,12.586 34.631,12.595 34.182,12.614 C33.733,12.633 33.349,12.648 33.027,12.662 C32.913,14.665 32.829,16.313 32.777,17.608 C32.726,18.905 32.7,19.962 32.7,20.785 C32.7,22.568 32.857,23.816 33.172,24.529 C33.486,25.241 34.015,25.594 34.759,25.594 C34.965,25.594 35.179,25.557 35.404,25.481 C35.628,25.404 35.857,25.282 36.088,25.115 C36.204,25.372 36.288,25.594 36.338,25.789 C36.389,25.981 36.416,26.155 36.416,26.308 C36.416,26.939 36.155,27.455 35.636,27.86 C35.117,28.263 34.439,28.465 33.605,28.465 C32.22,28.465 31.189,28.006 30.516,27.089 C29.843,26.172 29.506,24.763 29.506,22.863 C29.506,22.324 29.569,20.897 29.698,18.581 C29.823,16.266 29.919,14.364 29.984,12.875 L29.984,12.875 Z" id="Shape" fill="#0696A6"></path>
                <path d="M55.102,24.251 C55.385,24.599 55.593,24.922 55.727,25.223 C55.862,25.526 55.929,25.818 55.929,26.099 C55.929,26.791 55.413,27.361 54.38,27.803 C53.347,28.245 51.996,28.467 50.329,28.467 C47.262,28.467 44.859,27.629 43.12,25.955 C41.381,24.28 40.512,21.968 40.512,19.017 C40.512,16.04 41.388,13.604 43.139,11.711 C44.89,9.819 47.14,8.872 49.886,8.872 C52.003,8.872 53.742,9.476 55.102,10.682 C56.462,11.888 57.142,13.428 57.142,15.301 C57.142,16.777 56.577,17.829 55.448,18.457 C54.32,19.087 52.4,19.4 49.693,19.4 C48.68,19.4 47.669,19.365 46.662,19.295 C45.655,19.225 44.658,19.118 43.669,18.979 L43.669,19.249 C43.669,21.25 44.259,22.836 45.44,24.002 C46.621,25.172 48.224,25.755 50.252,25.755 C51.201,25.755 52.08,25.63 52.889,25.38 C53.697,25.127 54.434,24.751 55.102,24.251 L55.102,24.251 Z M43.9,16.687 C44.747,16.829 45.679,16.935 46.699,17.005 C47.719,17.075 48.82,17.11 50,17.11 C51.604,17.11 52.677,16.963 53.215,16.668 C53.754,16.372 54.023,15.84 54.023,15.07 C54.023,13.902 53.619,12.979 52.811,12.298 C52.002,11.618 50.898,11.277 49.499,11.277 C48.01,11.277 46.772,11.753 45.784,12.702 C44.798,13.652 44.169,14.98 43.9,16.687 L43.9,16.687 Z" id="Shape" fill="#0696A6"></path>
                <path d="M64.359,13.165 C65.322,11.817 66.239,10.812 67.111,10.151 C67.984,9.491 68.843,9.161 69.691,9.161 C70.409,9.161 71.023,9.389 71.529,9.844 C72.036,10.301 72.289,10.862 72.289,11.529 C72.289,11.966 72.144,12.392 71.856,12.808 C71.566,13.227 71.134,13.64 70.556,14.051 C70.35,13.486 70.097,13.069 69.795,12.799 C69.494,12.529 69.132,12.395 68.708,12.395 C68.08,12.395 67.418,12.707 66.726,13.329 C66.034,13.951 65.353,14.847 64.686,16.014 C64.622,16.592 64.571,17.179 64.532,17.775 C64.493,18.373 64.474,18.954 64.474,19.517 C64.474,21.444 64.58,23.047 64.791,24.33 C65.002,25.613 65.333,26.666 65.782,27.487 C65.27,27.757 64.766,27.962 64.272,28.102 C63.777,28.244 63.293,28.314 62.818,28.314 C62.189,28.314 61.756,28.157 61.519,27.84 C61.28,27.527 61.162,26.896 61.162,25.945 C61.162,25.596 61.229,24.266 61.364,21.951 C61.498,19.635 61.566,17.482 61.566,15.493 C61.566,13.864 61.503,12.613 61.375,11.741 C61.246,10.867 61.034,10.098 60.739,9.43 C60.995,9.34 61.249,9.273 61.499,9.228 C61.75,9.183 62.009,9.161 62.279,9.161 C63.024,9.161 63.575,9.338 63.934,9.69 C64.294,10.043 64.474,10.585 64.474,11.316 C64.474,11.483 64.464,11.711 64.446,12 C64.427,12.289 64.398,12.678 64.359,13.165 L64.359,13.165 Z" id="Shape" fill="#0696A6"></path>
                <path d="M90.499,27.292 C89.999,27.613 89.542,27.856 89.132,28.023 C88.722,28.191 88.363,28.274 88.055,28.274 C87.502,28.274 87.102,28.102 86.851,27.762 C86.602,27.422 86.457,26.873 86.418,26.116 C85.455,26.937 84.502,27.547 83.561,27.944 C82.619,28.34 81.659,28.542 80.682,28.542 C78.758,28.542 77.205,28.003 76.026,26.924 C74.845,25.847 74.255,24.429 74.255,22.67 C74.255,20.683 75.067,19.088 76.691,17.888 C78.313,16.689 80.499,16.089 83.245,16.089 C83.693,16.089 84.172,16.105 84.679,16.136 C85.187,16.168 85.728,16.217 86.306,16.281 C86.331,16.166 86.348,16.048 86.355,15.926 C86.362,15.804 86.365,15.659 86.365,15.492 C86.365,14.157 85.991,13.141 85.239,12.441 C84.489,11.742 83.401,11.392 81.975,11.392 C80.794,11.392 79.824,11.588 79.058,11.979 C78.295,12.371 77.676,12.978 77.204,13.798 C76.741,13.683 76.391,13.484 76.155,13.202 C75.916,12.918 75.798,12.553 75.798,12.104 C75.798,11.167 76.392,10.394 77.579,9.784 C78.765,9.176 80.314,8.87 82.225,8.87 C84.575,8.87 86.335,9.437 87.509,10.574 C88.683,11.709 89.27,13.406 89.27,15.664 C89.27,16.089 89.251,16.826 89.212,17.878 C89.173,18.931 89.154,19.777 89.154,20.419 C89.154,22.19 89.259,23.614 89.47,24.692 C89.681,25.771 90.023,26.639 90.499,27.292 L90.499,27.292 Z M86.264,18.727 C85.674,18.637 85.145,18.571 84.676,18.526 C84.208,18.481 83.807,18.459 83.473,18.459 C81.486,18.459 79.985,18.79 78.97,19.451 C77.955,20.111 77.449,21.097 77.449,22.405 C77.449,23.458 77.802,24.286 78.508,24.886 C79.213,25.49 80.188,25.791 81.434,25.791 C82.371,25.791 83.247,25.614 84.061,25.262 C84.875,24.908 85.624,24.38 86.303,23.674 C86.278,23.032 86.262,22.509 86.255,22.107 C86.248,21.703 86.245,21.315 86.245,20.942 C86.245,20.712 86.251,20.347 86.264,19.853 C86.276,19.359 86.276,18.983 86.264,18.727 L86.264,18.727 Z" id="Shape" fill="#0696A6"></path>
                <path d="M95.021,25.232 C95.484,25.475 95.925,25.656 96.348,25.771 C96.773,25.886 97.183,25.945 97.58,25.945 C98.505,25.945 99.248,25.722 99.811,25.28 C100.375,24.838 100.659,24.258 100.659,23.539 C100.659,22.975 100.506,22.448 100.198,21.96 C99.889,21.473 99.311,20.883 98.466,20.189 C98.324,20.085 98.131,19.932 97.889,19.727 C95.72,17.93 94.635,16.339 94.635,14.954 C94.635,14.39 94.744,13.826 94.963,13.261 C95.182,12.696 95.502,12.157 95.925,11.644 C96.736,10.682 97.68,9.948 98.764,9.44 C99.848,8.934 101.018,8.68 102.279,8.68 C102.894,8.68 103.362,8.799 103.682,9.035 C104.003,9.273 104.162,9.617 104.162,10.065 C104.162,10.284 104.105,10.543 103.989,10.845 C103.874,11.147 103.68,11.528 103.412,11.99 C103.065,11.848 102.738,11.743 102.43,11.673 C102.122,11.603 101.822,11.568 101.528,11.568 C100.463,11.568 99.598,11.827 98.939,12.347 C98.278,12.867 97.947,13.536 97.947,14.359 C97.947,15.256 98.84,16.468 100.623,17.997 C101.072,18.382 101.412,18.683 101.644,18.901 C102.402,19.568 102.958,20.226 103.319,20.874 C103.677,21.521 103.859,22.186 103.859,22.866 C103.859,24.47 103.15,25.851 101.732,27.013 C100.313,28.174 98.59,28.754 96.563,28.754 C95.858,28.754 95.315,28.612 94.936,28.331 C94.557,28.05 94.369,27.651 94.369,27.138 C94.369,26.894 94.421,26.624 94.522,26.329 C94.624,26.034 94.791,25.669 95.021,25.232 L95.021,25.232 Z" id="Shape" fill="#BCC831"></path>
                <path d="M121.834,24.251 C122.117,24.599 122.325,24.922 122.46,25.223 C122.596,25.526 122.663,25.818 122.663,26.099 C122.663,26.791 122.144,27.361 121.113,27.803 C120.08,28.245 118.729,28.467 117.06,28.467 C113.994,28.467 111.59,27.629 109.853,25.955 C108.114,24.28 107.245,21.968 107.245,19.017 C107.245,16.04 108.121,13.604 109.873,11.711 C111.624,9.819 113.872,8.872 116.618,8.872 C118.735,8.872 120.473,9.476 121.834,10.682 C123.195,11.888 123.875,13.428 123.875,15.301 C123.875,16.777 123.311,17.829 122.182,18.457 C121.052,19.087 119.133,19.4 116.426,19.4 C115.412,19.4 114.404,19.365 113.394,19.295 C112.388,19.225 111.39,19.118 110.403,18.979 L110.403,19.249 C110.403,21.25 110.993,22.836 112.174,24.002 C113.355,25.172 114.959,25.755 116.987,25.755 C117.936,25.755 118.816,25.63 119.625,25.38 C120.43,25.127 121.167,24.751 121.834,24.251 L121.834,24.251 Z M110.633,16.687 C111.481,16.829 112.413,16.935 113.433,17.005 C114.454,17.075 115.554,17.11 116.735,17.11 C118.339,17.11 119.411,16.963 119.95,16.668 C120.489,16.372 120.759,15.84 120.759,15.07 C120.759,13.902 120.355,12.979 119.546,12.298 C118.737,11.618 117.634,11.277 116.236,11.277 C114.747,11.277 113.507,11.753 112.519,12.702 C111.53,13.652 110.902,14.98 110.633,16.687 L110.633,16.687 Z" id="Shape" fill="#BCC831"></path>
                <path d="M141.198,24.251 C141.48,24.599 141.687,24.922 141.823,25.223 C141.959,25.526 142.026,25.818 142.026,26.099 C142.026,26.791 141.507,27.361 140.475,27.803 C139.443,28.245 138.091,28.467 136.423,28.467 C133.357,28.467 130.953,27.629 129.215,25.955 C127.476,24.28 126.608,21.968 126.608,19.017 C126.608,16.04 127.484,13.604 129.236,11.711 C130.987,9.819 133.236,8.872 135.982,8.872 C138.097,8.872 139.836,9.476 141.198,10.682 C142.556,11.888 143.238,13.428 143.238,15.301 C143.238,16.777 142.674,17.829 141.545,18.457 C140.416,19.087 138.497,19.4 135.789,19.4 C134.775,19.4 133.766,19.365 132.758,19.295 C131.751,19.225 130.753,19.118 129.765,18.979 L129.765,19.249 C129.765,21.25 130.357,22.836 131.536,24.002 C132.717,25.172 134.321,25.755 136.349,25.755 C137.298,25.755 138.178,25.63 138.987,25.38 C139.793,25.127 140.531,24.751 141.198,24.251 L141.198,24.251 Z M129.996,16.687 C130.843,16.829 131.776,16.935 132.797,17.005 C133.818,17.075 134.917,17.11 136.098,17.11 C137.702,17.11 138.775,16.963 139.312,16.668 C139.851,16.372 140.123,15.84 140.123,15.07 C140.123,13.902 139.718,12.979 138.91,12.298 C138.099,11.618 136.997,11.277 135.598,11.277 C134.11,11.277 132.87,11.753 131.883,12.702 C130.894,13.652 130.266,14.98 129.996,16.687 L129.996,16.687 Z" id="Shape" fill="#BCC831"></path>
                <path d="M152.632,26.022 C152.632,26.727 152.361,27.324 151.816,27.81 C151.269,28.297 150.591,28.542 149.785,28.542 C149.066,28.542 148.472,28.319 148.005,27.877 C147.538,27.435 147.302,26.856 147.302,26.136 C147.302,25.365 147.563,24.74 148.082,24.259 C148.602,23.78 149.278,23.537 150.112,23.537 C150.894,23.537 151.509,23.758 151.96,24.2 C152.407,24.646 152.632,25.252 152.632,26.022 L152.632,26.022 Z" id="Shape" fill="#0696A6"></path>
            </g>
            <g id="Group" sketch:type="MSShapeGroup">
                <path d="M0.018,68.961 C0.018,68.961 14.526,65.51 27.923,64.641 C40.08,63.853 71.636,64.322 71.636,64.322 C71.636,64.322 24.637,66.725 0.018,68.961 L0.018,68.961 Z" id="Shape" fill="#808083"></path>
                <path d="M46.611,43.292 C46.611,43.292 41.341,42.139 37.47,44.65 L34.373,38.981 L43.478,14.834 C43.478,14.834 49.46,21.635 50.401,28.988 C50.401,28.988 52.053,36.38 46.611,43.292 L46.611,43.292 Z" id="Shape" fill="#0696A6"></path>
                <path d="M28.891,53.57 C28.891,53.57 30.506,48.424 34.608,46.309 L31.225,40.808 L5.742,36.725 C5.742,36.725 8.677,45.293 14.593,49.761 C14.593,49.762 20.19,54.865 28.891,53.57 L28.891,53.57 Z" id="Shape" fill="#BCC831"></path>
                <path d="M31.907,34.335 L26.766,25.482 L31.618,7.348 C31.618,7.348 37.7,9.486 41.278,12.803 L31.907,34.335 L31.907,34.335 Z" id="Shape" fill="#0696A6"></path>
                <path d="M28.593,36.222 L23.602,27.284 L5.53,22.207 C5.53,22.207 4.267,28.528 5.295,33.299 L28.593,36.222 L28.593,36.222 Z" id="Shape" fill="#BCC831"></path>
                <path d="M28.982,6.411 L24.256,20.598 L11.575,0.696 L28.982,6.411 Z" id="Shape" fill="#0696A6"></path>
                <path d="M6.098,19.128 L20.64,22.055 L9.762,1.327 L6.098,19.128 Z" id="Shape" fill="#BCC831"></path>
                <path d="M45.946,61.945 L38.063,58.06 C38.063,58.06 36.611,57.301 38.685,55.484 C38.685,55.484 40.715,52.649 45.201,52.318 C45.201,52.318 46.299,52.172 46.252,53.414 L46.253,61.945" id="Shape" fill="#808083"></path>
            </g>
            <path d="M242.603,58.301 C239.753,58.301 237.431,57.424 235.638,55.666 C233.844,53.91 232.949,51.656 232.949,48.904 C232.949,45.98 233.907,43.606 235.823,41.782 C237.74,39.958 240.226,39.046 243.286,39.046 C246.05,39.046 248.326,39.912 250.113,41.645 C251.9,43.378 252.794,45.569 252.794,48.223 C252.794,49.291 252.625,50.348 252.287,51.391 C251.949,52.434 251.492,53.327 250.915,54.064 C249.821,55.476 248.584,56.536 247.202,57.243 C245.818,57.948 244.285,58.301 242.603,58.301 L242.603,58.301 Z M242.823,55.648 C244.812,55.648 246.444,54.982 247.716,53.648 C248.987,52.316 249.623,50.605 249.623,48.517 C249.623,46.478 248.999,44.816 247.753,43.533 C246.506,42.25 244.888,41.607 242.899,41.607 C240.872,41.607 239.235,42.273 237.989,43.606 C236.742,44.939 236.118,46.705 236.118,48.904 C236.118,50.858 236.751,52.469 238.015,53.741 C239.279,55.012 240.883,55.648 242.823,55.648 L242.823,55.648 Z" id="Shape" fill="#0696A6" sketch:type="MSShapeGroup"></path>
            <path d="M259.886,43.34 C260.808,42.05 261.686,41.088 262.522,40.455 C263.358,39.823 264.18,39.507 264.992,39.507 C265.68,39.507 266.265,39.725 266.752,40.16 C267.237,40.598 267.48,41.135 267.48,41.773 C267.48,42.191 267.342,42.599 267.067,42.998 C266.791,43.398 266.376,43.794 265.823,44.187 C265.627,43.646 265.384,43.247 265.094,42.989 C264.805,42.731 264.458,42.602 264.053,42.602 C263.45,42.602 262.819,42.9 262.156,43.496 C261.493,44.092 260.842,44.949 260.203,46.066 C260.14,46.619 260.093,47.181 260.056,47.752 C260.019,48.324 260.001,48.88 260.001,49.42 C260.001,51.263 260.102,52.799 260.305,54.026 C260.507,55.255 260.825,56.261 261.254,57.047 C260.762,57.305 260.28,57.501 259.807,57.637 C259.334,57.773 258.87,57.839 258.416,57.839 C257.812,57.839 257.399,57.69 257.172,57.387 C256.944,57.086 256.831,56.483 256.831,55.574 C256.831,55.242 256.894,53.969 257.024,51.751 C257.153,49.533 257.216,47.473 257.216,45.568 C257.216,44.009 257.154,42.811 257.032,41.976 C256.909,41.14 256.706,40.404 256.424,39.764 C256.67,39.678 256.912,39.614 257.153,39.571 C257.392,39.528 257.64,39.507 257.9,39.507 C258.612,39.507 259.139,39.676 259.484,40.014 C259.828,40.352 260.001,40.87 260.001,41.571 C260.001,41.731 259.991,41.949 259.973,42.225 C259.953,42.501 259.923,42.873 259.886,43.34 L259.886,43.34 Z" id="Shape" fill="#0696A6" sketch:type="MSShapeGroup"></path>
            <path d="M273.467,50.857 C272.276,50.254 271.381,49.508 270.785,48.619 C270.189,47.729 269.89,46.699 269.89,45.532 C269.89,43.652 270.57,42.101 271.926,40.879 C273.283,39.657 275.03,39.046 277.168,39.046 C277.782,39.046 278.409,39.139 279.048,39.322 C279.688,39.507 280.344,39.777 281.021,40.133 C282.396,39.765 283.417,39.43 284.08,39.129 C284.743,38.828 285.167,38.524 285.351,38.217 C285.596,38.475 285.779,38.745 285.894,39.028 C286.011,39.311 286.071,39.606 286.071,39.913 C286.071,40.54 285.834,41.022 285.361,41.359 C284.887,41.698 284.081,41.946 282.937,42.106 C283.379,42.659 283.706,43.211 283.915,43.764 C284.124,44.317 284.228,44.894 284.228,45.495 C284.228,47.203 283.566,48.631 282.239,49.779 C280.912,50.926 279.248,51.502 277.246,51.502 C277,51.502 276.739,51.493 276.463,51.475 C276.187,51.457 275.906,51.429 275.624,51.392 C275.391,51.625 275.213,51.856 275.09,52.082 C274.967,52.311 274.905,52.534 274.905,52.756 C274.905,53.604 276.085,54.285 278.443,54.801 C278.996,54.924 279.424,55.016 279.733,55.076 C282.043,55.617 283.601,56.24 284.413,56.947 C285.225,57.654 285.63,58.658 285.63,59.96 C285.63,61.827 284.791,63.369 283.114,64.585 C281.436,65.801 279.278,66.409 276.636,66.409 C274.179,66.409 272.24,65.902 270.815,64.888 C269.388,63.874 268.676,62.508 268.676,60.788 C268.676,59.584 269.03,58.524 269.737,57.609 C270.443,56.694 271.484,55.942 272.86,55.351 C272.564,55.08 272.339,54.804 272.186,54.522 C272.034,54.241 271.957,53.94 271.957,53.62 C271.957,53.215 272.083,52.785 272.335,52.331 C272.587,51.877 272.963,51.386 273.467,50.857 L273.467,50.857 Z M274.683,56.68 L274.72,56.68 C273.699,57.086 272.935,57.586 272.426,58.182 C271.915,58.779 271.661,59.456 271.661,60.218 C271.661,61.348 272.158,62.26 273.153,62.954 C274.148,63.648 275.473,63.995 277.132,63.995 C278.741,63.995 280.044,63.683 281.039,63.064 C282.033,62.444 282.531,61.648 282.531,60.676 C282.531,59.215 280.031,57.906 275.031,56.752 C274.873,56.717 274.756,56.692 274.683,56.68 L274.683,56.68 Z M277.097,49.199 C278.35,49.199 279.384,48.834 280.201,48.102 C281.016,47.372 281.427,46.453 281.427,45.347 C281.427,44.193 281.036,43.262 280.257,42.556 C279.477,41.849 278.447,41.495 277.17,41.495 C275.857,41.495 274.796,41.843 273.991,42.537 C273.185,43.231 272.784,44.143 272.784,45.272 C272.784,46.415 273.185,47.355 273.991,48.092 C274.796,48.83 275.831,49.199 277.097,49.199 L277.097,49.199 Z" id="Shape" fill="#0696A6" sketch:type="MSShapeGroup"></path>
        </g>
    </g>
</svg>