<?xml version="1.0" encoding="utf-8"?>
<!-- Generator: Adobe Illustrator 16.0.0, SVG Export Plug-In . SVG Version: 6.00 Build 0)  -->
<!DOCTYPE svg PUBLIC "-//W3C//DTD SVG 1.1//EN" "http://www.w3.org/Graphics/SVG/1.1/DTD/svg11.dtd">
<svg version="1.1" id="Layer_1" xmlns="http://www.w3.org/2000/svg" xmlns:xlink="http://www.w3.org/1999/xlink" x="0px" y="0px"
	 width="612px" height="792px" viewBox="0 0 612 792" enable-background="new 0 0 612 792" xml:space="preserve">
<g>
	<g>
		<path fill="#0696A6" d="M208.866,418.846c0.516,0.051,1.028,0.086,1.538,0.11c0.51,0.025,1.017,0.037,1.521,0.037
			c1.769,0,3.163-0.08,4.183-0.24c1.02-0.159,1.861-0.417,2.524-0.772c0.245,0.418,0.427,0.819,0.544,1.206
			c0.116,0.388,0.175,0.777,0.175,1.171c0,0.59-0.215,1.002-0.646,1.233c-0.43,0.234-1.234,0.351-2.413,0.351
			c-0.418,0-1.21-0.019-2.377-0.056s-2.119-0.055-2.856-0.055c-1.044,0-2.094,0.024-3.15,0.073
			c-1.056,0.049-1.592,0.072-1.604,0.072c-0.418,0-0.713-0.098-0.885-0.295c-0.172-0.194-0.258-0.54-0.258-1.03
			c0-0.246,0.031-0.886,0.092-1.916c0.222-3.896,0.332-7.593,0.332-11.094c0-3.292-0.092-5.815-0.276-7.572
			s-0.485-3.021-0.903-3.796c0.565-0.309,1.104-0.541,1.613-0.7c0.509-0.16,1.004-0.24,1.482-0.24c0.688,0,1.158,0.176,1.41,0.525
			c0.252,0.351,0.378,1.072,0.378,2.167c0,0.318-0.03,1.166-0.093,2.543c-0.221,5.27-0.331,10.243-0.331,14.925V418.846
			L208.866,418.846z"/>
		<path fill="#0696A6" d="M226.555,421.075c-0.516,0.283-1.007,0.491-1.474,0.627c-0.467,0.135-0.915,0.202-1.345,0.202
			c-0.603,0-1.011-0.163-1.226-0.488c-0.216-0.325-0.323-0.979-0.323-1.962c0-0.565,0.057-1.83,0.166-3.797
			c0.111-1.965,0.166-3.654,0.166-5.066c0-1.535-0.073-2.783-0.221-3.74c-0.147-0.959-0.387-1.774-0.719-2.45
			c0.455-0.271,0.922-0.478,1.4-0.617c0.478-0.141,0.952-0.212,1.419-0.212c0.565,0,0.952,0.138,1.161,0.415
			c0.209,0.274,0.313,0.789,0.313,1.538c0,0.195-0.055,1.271-0.166,3.225c-0.109,1.953-0.165,3.808-0.165,5.564
			c0,1.646,0.083,3.01,0.249,4.091S226.211,420.375,226.555,421.075z M226.408,397.95c0,0.7-0.246,1.283-0.737,1.75
			c-0.491,0.467-1.112,0.701-1.861,0.701c-0.651,0-1.167-0.186-1.548-0.554c-0.381-0.369-0.57-0.866-0.57-1.492
			c0-0.688,0.245-1.274,0.736-1.761c0.491-0.485,1.088-0.728,1.787-0.728c0.639,0,1.164,0.197,1.576,0.59
			C226.202,396.851,226.408,397.349,226.408,397.95z"/>
		<path fill="#0696A6" d="M232.673,407.126c-0.21,0-0.497,0.01-0.866,0.028c-0.369,0.018-0.607,0.026-0.719,0.026
			c-0.504,0-0.857-0.069-1.06-0.212c-0.202-0.141-0.304-0.384-0.304-0.728c0-0.159,0.027-0.347,0.082-0.563
			c0.057-0.215,0.145-0.458,0.268-0.729c0.099,0,0.264,0.006,0.498,0.019c0.232,0.014,0.418,0.02,0.553,0.02
			c0.319,0,0.829-0.02,1.529-0.057c0.086,0,0.153-0.006,0.203-0.019c0-0.135,0.006-0.338,0.018-0.607
			c0.012-0.271,0.019-0.467,0.019-0.59c0-0.959-0.062-1.803-0.185-2.533s-0.313-1.372-0.57-1.926c0.527-0.258,1-0.455,1.418-0.59
			s0.774-0.203,1.069-0.203c0.503,0,0.868,0.156,1.097,0.472c0.227,0.313,0.34,0.825,0.34,1.537c0,0.309-0.055,1.271-0.166,2.895
			c-0.036,0.602-0.066,1.08-0.092,1.437c0.713-0.099,1.354-0.172,1.926-0.222c0.571-0.049,1.084-0.073,1.539-0.073
			c0.405,0,0.697,0.073,0.875,0.223c0.178,0.146,0.268,0.387,0.268,0.719c0,0.184-0.056,0.414-0.166,0.689
			c-0.111,0.276-0.271,0.588-0.479,0.932c-0.319-0.074-0.657-0.129-1.013-0.166c-0.357-0.037-0.787-0.056-1.291-0.056
			c-0.086,0-0.344,0.01-0.773,0.027c-0.43,0.019-0.799,0.033-1.105,0.046c-0.11,1.917-0.19,3.495-0.24,4.735
			c-0.049,1.241-0.073,2.254-0.073,3.041c0,1.707,0.15,2.9,0.452,3.584c0.301,0.682,0.807,1.021,1.52,1.021
			c0.196,0,0.402-0.036,0.617-0.108c0.215-0.074,0.434-0.191,0.654-0.352c0.111,0.245,0.19,0.46,0.24,0.646
			c0.049,0.185,0.073,0.351,0.073,0.497c0,0.603-0.249,1.098-0.747,1.483c-0.497,0.388-1.145,0.58-1.943,0.58
			c-1.326,0-2.313-0.438-2.957-1.316s-0.968-2.228-0.968-4.045c0-0.517,0.062-1.883,0.185-4.101S232.611,408.552,232.673,407.126z"
			/>
		<path fill="#0696A6" d="M256.719,418.017c0.271,0.332,0.471,0.643,0.6,0.931c0.129,0.289,0.193,0.567,0.193,0.839
			c0,0.663-0.495,1.207-1.484,1.631c-0.988,0.424-2.281,0.636-3.878,0.636c-2.937,0-5.236-0.802-6.901-2.403
			c-1.664-1.604-2.496-3.817-2.496-6.644c0-2.85,0.838-5.182,2.516-6.993c1.676-1.812,3.829-2.718,6.458-2.718
			c2.026,0,3.691,0.578,4.993,1.732c1.303,1.153,1.953,2.629,1.953,4.422c0,1.412-0.541,2.42-1.621,3.021
			c-1.081,0.604-2.918,0.903-5.51,0.903c-0.971,0-1.938-0.034-2.902-0.102c-0.964-0.067-1.919-0.17-2.865-0.305v0.258
			c0,1.916,0.565,3.435,1.695,4.552c1.131,1.118,2.666,1.678,4.607,1.678c0.908,0,1.75-0.12,2.523-0.359
			C255.374,418.854,256.08,418.495,256.719,418.017z M245.995,410.774c0.811,0.136,1.704,0.236,2.681,0.305
			c0.977,0.067,2.029,0.102,3.16,0.102c1.535,0,2.562-0.142,3.077-0.424c0.517-0.283,0.774-0.793,0.774-1.529
			c0-1.117-0.387-2.002-1.161-2.653c-0.774-0.65-1.831-0.978-3.169-0.978c-1.426,0-2.611,0.455-3.557,1.363
			C246.854,407.87,246.253,409.142,245.995,410.774z"/>
		<path fill="#0696A6" d="M265.582,407.403c0.922-1.29,1.799-2.252,2.635-2.886c0.836-0.632,1.658-0.947,2.469-0.947
			c0.688,0,1.275,0.218,1.76,0.652c0.485,0.438,0.729,0.976,0.729,1.613c0,0.418-0.139,0.826-0.415,1.225
			c-0.276,0.4-0.69,0.797-1.243,1.189c-0.197-0.541-0.439-0.94-0.729-1.198s-0.636-0.387-1.041-0.387
			c-0.602,0-1.234,0.298-1.898,0.894c-0.662,0.597-1.314,1.453-1.953,2.57c-0.061,0.553-0.109,1.115-0.146,1.687
			s-0.056,1.128-0.056,1.668c0,1.843,0.102,3.379,0.304,4.605c0.203,1.229,0.52,2.236,0.949,3.022
			c-0.491,0.258-0.974,0.454-1.446,0.59c-0.474,0.135-0.937,0.202-1.392,0.202c-0.602,0-1.016-0.15-1.243-0.452
			c-0.228-0.301-0.341-0.905-0.341-1.814c0-0.332,0.064-1.604,0.193-3.822c0.129-2.219,0.193-4.278,0.193-6.184
			c0-1.559-0.062-2.757-0.185-3.592c-0.122-0.836-0.325-1.572-0.608-2.212c0.246-0.086,0.488-0.15,0.729-0.193
			c0.239-0.043,0.488-0.063,0.746-0.063c0.713,0,1.24,0.169,1.584,0.507c0.345,0.338,0.517,0.855,0.517,1.557
			c0,0.16-0.009,0.378-0.027,0.654S265.619,406.938,265.582,407.403z"/>
		<path fill="#0696A6" d="M290.605,420.928c-0.479,0.309-0.916,0.54-1.309,0.7c-0.394,0.16-0.737,0.24-1.032,0.24
			c-0.528,0-0.912-0.164-1.151-0.489c-0.24-0.325-0.378-0.851-0.414-1.575c-0.922,0.786-1.834,1.369-2.736,1.75
			c-0.903,0.381-1.822,0.572-2.756,0.572c-1.842,0-3.328-0.517-4.459-1.549c-1.13-1.031-1.695-2.39-1.695-4.072
			c0-1.903,0.777-3.43,2.332-4.578c1.553-1.147,3.645-1.723,6.273-1.723c0.43,0,0.887,0.016,1.373,0.045
			c0.484,0.031,1.004,0.078,1.557,0.139c0.024-0.109,0.04-0.224,0.047-0.341c0.006-0.116,0.008-0.255,0.008-0.415
			c0-1.276-0.358-2.25-1.077-2.92c-0.719-0.67-1.76-1.004-3.124-1.004c-1.13,0-2.061,0.188-2.791,0.562
			c-0.73,0.375-1.324,0.956-1.777,1.741c-0.443-0.109-0.777-0.301-1.005-0.569c-0.228-0.271-0.341-0.621-0.341-1.052
			c0-0.896,0.568-1.637,1.705-2.221c1.135-0.583,2.619-0.875,4.449-0.875c2.248,0,3.934,0.543,5.059,1.631
			c1.123,1.087,1.686,2.711,1.686,4.873c0,0.406-0.019,1.112-0.056,2.119c-0.036,1.008-0.056,1.818-0.056,2.433
			c0,1.695,0.102,3.06,0.305,4.092C289.822,419.472,290.15,420.302,290.605,420.928z M286.551,412.728
			c-0.564-0.086-1.072-0.149-1.52-0.192c-0.449-0.043-0.832-0.064-1.152-0.064c-1.904,0-3.341,0.316-4.312,0.949
			c-0.97,0.633-1.456,1.576-1.456,2.828c0,1.008,0.338,1.801,1.014,2.377c0.676,0.578,1.609,0.866,2.801,0.866
			c0.896,0,1.735-0.169,2.516-0.507c0.779-0.338,1.495-0.845,2.146-1.521c-0.025-0.614-0.04-1.115-0.046-1.502
			c-0.007-0.387-0.009-0.758-0.009-1.115c0-0.221,0.006-0.567,0.018-1.041C286.563,413.333,286.563,412.974,286.551,412.728z"/>
		<path fill="#BCC831" d="M294.936,418.956c0.441,0.233,0.865,0.405,1.271,0.516c0.404,0.111,0.798,0.166,1.179,0.166
			c0.885,0,1.597-0.212,2.138-0.636s0.811-0.979,0.811-1.667c0-0.541-0.147-1.045-0.441-1.512c-0.295-0.467-0.848-1.031-1.659-1.695
			c-0.136-0.098-0.319-0.245-0.553-0.441c-2.076-1.721-3.114-3.242-3.114-4.569c0-0.54,0.104-1.08,0.313-1.621
			s0.517-1.057,0.921-1.548c0.774-0.921,1.68-1.624,2.719-2.11c1.037-0.484,2.158-0.728,3.362-0.728c0.59,0,1.038,0.113,1.345,0.341
			c0.308,0.228,0.461,0.557,0.461,0.985c0,0.21-0.055,0.457-0.166,0.746c-0.11,0.289-0.295,0.654-0.553,1.097
			c-0.332-0.136-0.645-0.236-0.939-0.305c-0.294-0.067-0.584-0.101-0.866-0.101c-1.02,0-1.846,0.248-2.478,0.746
			c-0.633,0.497-0.949,1.139-0.949,1.926c0,0.859,0.854,2.021,2.561,3.482c0.43,0.368,0.756,0.655,0.977,0.864
			c0.725,0.64,1.26,1.271,1.604,1.89c0.344,0.621,0.516,1.256,0.516,1.907c0,1.535-0.679,2.858-2.035,3.972
			c-1.357,1.11-3.008,1.667-4.948,1.667c-0.676,0-1.194-0.136-1.557-0.405c-0.363-0.269-0.544-0.649-0.544-1.143
			c0-0.233,0.049-0.491,0.147-0.773C294.555,419.724,294.715,419.374,294.936,418.956z"/>
		<path fill="#BCC831" d="M320.603,418.017c0.271,0.332,0.471,0.643,0.6,0.931c0.13,0.289,0.194,0.567,0.194,0.839
			c0,0.663-0.495,1.207-1.483,1.631c-0.989,0.424-2.282,0.636-3.879,0.636c-2.938,0-5.236-0.802-6.9-2.403
			c-1.665-1.604-2.497-3.817-2.497-6.644c0-2.85,0.839-5.182,2.516-6.993c1.678-1.812,3.83-2.718,6.459-2.718
			c2.025,0,3.69,0.578,4.993,1.732c1.302,1.153,1.952,2.629,1.952,4.422c0,1.412-0.54,2.42-1.621,3.021
			c-1.08,0.604-2.918,0.903-5.51,0.903c-0.971,0-1.938-0.034-2.901-0.102c-0.965-0.067-1.919-0.17-2.864-0.305v0.258
			c0,1.916,0.563,3.435,1.693,4.552c1.131,1.118,2.666,1.678,4.606,1.678c0.909,0,1.751-0.12,2.524-0.359
			C319.258,418.854,319.964,418.495,320.603,418.017z M309.879,410.774c0.812,0.136,1.704,0.236,2.681,0.305
			c0.978,0.067,2.03,0.102,3.16,0.102c1.535,0,2.563-0.142,3.077-0.424c0.516-0.283,0.774-0.793,0.774-1.529
			c0-1.117-0.389-2.002-1.161-2.653c-0.774-0.65-1.831-0.978-3.169-0.978c-1.426,0-2.611,0.455-3.558,1.363
			C310.738,407.87,310.137,409.142,309.879,410.774z"/>
		<path fill="#BCC831" d="M339.14,418.017c0.271,0.332,0.471,0.643,0.6,0.931c0.13,0.289,0.193,0.567,0.193,0.839
			c0,0.663-0.494,1.207-1.482,1.631c-0.989,0.424-2.282,0.636-3.879,0.636c-2.938,0-5.236-0.802-6.9-2.403
			c-1.665-1.604-2.497-3.817-2.497-6.644c0-2.85,0.839-5.182,2.517-6.993c1.677-1.811,3.828-2.718,6.458-2.718
			c2.025,0,3.69,0.578,4.992,1.732c1.303,1.153,1.953,2.629,1.953,4.422c0,1.412-0.54,2.42-1.621,3.021
			c-1.081,0.604-2.918,0.903-5.51,0.903c-0.971,0-1.938-0.034-2.902-0.102c-0.964-0.067-1.919-0.17-2.864-0.305v0.258
			c0,1.916,0.564,3.435,1.694,4.552c1.131,1.118,2.666,1.678,4.606,1.678c0.909,0,1.751-0.12,2.524-0.359
			C337.795,418.854,338.501,418.495,339.14,418.017z M328.416,410.774c0.811,0.136,1.704,0.236,2.681,0.305
			c0.978,0.067,2.03,0.102,3.16,0.102c1.535,0,2.563-0.142,3.077-0.424c0.516-0.283,0.774-0.793,0.774-1.529
			c0-1.117-0.389-2.002-1.161-2.653c-0.774-0.65-1.831-0.978-3.169-0.978c-1.427,0-2.611,0.455-3.558,1.363
			C329.275,407.87,328.674,409.142,328.416,410.774z"/>
		<path fill="#0696A6" d="M350.085,419.712c0,0.676-0.261,1.246-0.782,1.713s-1.171,0.701-1.943,0.701
			c-0.688,0-1.257-0.213-1.704-0.637c-0.449-0.424-0.673-0.979-0.673-1.667c0-0.737,0.248-1.336,0.745-1.797
			c0.498-0.46,1.146-0.69,1.944-0.69c0.749,0,1.339,0.211,1.77,0.635C349.871,418.395,350.085,418.975,350.085,419.712z"/>
		<path fill="#0696A6" d="M364.126,422.364c-2.85,0-5.172-0.877-6.965-2.636c-1.794-1.756-2.69-4.01-2.69-6.762
			c0-2.924,0.958-5.298,2.874-7.122c1.917-1.823,4.404-2.735,7.463-2.735c2.765,0,5.04,0.865,6.827,2.599s2.682,3.924,2.682,6.578
			c0,1.067-0.169,2.125-0.508,3.169c-0.338,1.044-0.795,1.935-1.371,2.672c-1.095,1.413-2.331,2.472-3.714,3.179
			C367.342,422.012,365.809,422.364,364.126,422.364z M364.347,419.712c1.99,0,3.621-0.666,4.894-2
			c1.271-1.332,1.907-3.043,1.907-5.131c0-2.039-0.624-3.701-1.87-4.984c-1.247-1.282-2.865-1.926-4.855-1.926
			c-2.027,0-3.664,0.666-4.91,1.999c-1.247,1.333-1.871,3.099-1.871,5.298c0,1.953,0.634,3.565,1.898,4.837
			C360.803,419.075,362.406,419.712,364.347,419.712z"/>
		<path fill="#0696A6" d="M381.409,407.403c0.922-1.29,1.8-2.252,2.636-2.886c0.835-0.632,1.658-0.947,2.469-0.947
			c0.688,0,1.274,0.218,1.761,0.652c0.484,0.438,0.728,0.976,0.728,1.613c0,0.418-0.138,0.826-0.414,1.225
			c-0.276,0.4-0.691,0.797-1.244,1.189c-0.195-0.541-0.438-0.94-0.728-1.198s-0.636-0.387-1.041-0.387
			c-0.604,0-1.235,0.298-1.898,0.894c-0.663,0.597-1.313,1.453-1.953,2.57c-0.062,0.553-0.109,1.115-0.146,1.687
			s-0.055,1.128-0.055,1.668c0,1.843,0.101,3.379,0.304,4.605c0.202,1.229,0.519,2.236,0.949,3.022
			c-0.492,0.258-0.975,0.454-1.447,0.59c-0.473,0.135-0.938,0.202-1.391,0.202c-0.604,0-1.018-0.15-1.244-0.452
			c-0.229-0.301-0.342-0.905-0.342-1.814c0-0.332,0.064-1.604,0.193-3.822c0.129-2.219,0.193-4.278,0.193-6.184
			c0-1.559-0.063-2.757-0.185-3.592c-0.123-0.836-0.325-1.572-0.607-2.212c0.246-0.086,0.487-0.15,0.728-0.193
			s0.488-0.063,0.747-0.063c0.712,0,1.24,0.169,1.584,0.507s0.518,0.855,0.518,1.557c0,0.16-0.011,0.378-0.028,0.654
			C381.476,406.564,381.446,406.938,381.409,407.403z"/>
		<path fill="#0696A6" d="M394.99,414.921c-1.192-0.602-2.086-1.348-2.683-2.238c-0.596-0.89-0.894-1.92-0.894-3.087
			c0-1.88,0.679-3.431,2.036-4.652c1.356-1.223,3.104-1.833,5.242-1.833c0.613,0,1.24,0.093,1.88,0.275
			c0.639,0.186,1.296,0.455,1.972,0.812c1.375-0.368,2.396-0.703,3.059-1.004c0.663-0.302,1.088-0.605,1.271-0.912
			c0.245,0.258,0.427,0.527,0.543,0.811c0.117,0.283,0.176,0.578,0.176,0.885c0,0.628-0.237,1.109-0.71,1.446
			c-0.473,0.339-1.28,0.587-2.423,0.747c0.442,0.553,0.768,1.105,0.977,1.658s0.313,1.13,0.313,1.73c0,1.708-0.663,3.137-1.99,4.284
			c-1.327,1.148-2.991,1.724-4.993,1.724c-0.246,0-0.507-0.01-0.782-0.027c-0.276-0.018-0.558-0.046-0.84-0.083
			c-0.232,0.233-0.41,0.464-0.533,0.69c-0.123,0.229-0.186,0.451-0.186,0.674c0,0.848,1.18,1.528,3.538,2.045
			c0.553,0.123,0.982,0.215,1.29,0.274c2.311,0.541,3.869,1.164,4.68,1.871c0.813,0.707,1.218,1.711,1.218,3.014
			c0,1.866-0.84,3.408-2.517,4.625c-1.677,1.216-3.836,1.823-6.477,1.823c-2.457,0-4.397-0.507-5.822-1.521
			c-1.426-1.014-2.138-2.38-2.138-4.101c0-1.203,0.353-2.264,1.06-3.179c0.706-0.915,1.747-1.667,3.123-2.257
			c-0.295-0.271-0.52-0.547-0.673-0.83c-0.153-0.281-0.23-0.582-0.23-0.902c0-0.404,0.126-0.835,0.378-1.288
			C394.108,415.94,394.486,415.449,394.99,414.921z M396.206,420.743h0.037c-1.021,0.406-1.785,0.906-2.294,1.502
			c-0.512,0.596-0.766,1.273-0.766,2.036c0,1.13,0.497,2.042,1.492,2.735c0.995,0.694,2.321,1.041,3.979,1.041
			c1.608,0,2.912-0.311,3.906-0.931s1.492-1.416,1.492-2.387c0-1.461-2.5-2.771-7.5-3.924
			C396.396,420.78,396.279,420.756,396.206,420.743z M398.62,413.263c1.253,0,2.287-0.364,3.104-1.097
			c0.816-0.73,1.227-1.649,1.227-2.755c0-1.154-0.392-2.085-1.17-2.791c-0.78-0.707-1.811-1.062-3.087-1.062
			c-1.314,0-2.374,0.349-3.18,1.042c-0.805,0.694-1.207,1.606-1.207,2.735c0,1.143,0.402,2.083,1.207,2.82
			C396.319,412.894,397.354,413.263,398.62,413.263z"/>
	</g>
</g>
<path fill="#808083" d="M346.785,387.968c0,0-18.589-4.424-35.753-5.535c-15.577-1.011-56.009-0.411-56.009-0.411
	S315.241,385.102,346.785,387.968z"/>
<path fill="#0696A6" d="M287.088,355.079c0,0,6.751-1.479,11.711,1.74l3.969-7.264l-11.666-30.939c0,0-7.665,8.714-8.87,18.136
	C282.231,336.752,280.114,346.224,287.088,355.079z"/>
<path fill="#BCC831" d="M309.791,368.249c0,0-2.068-6.594-7.325-9.303l4.335-7.051l32.65-5.23c0,0-3.76,10.979-11.34,16.702
	C328.111,363.367,320.939,369.907,309.791,368.249z"/>
<path fill="#0696A6" d="M305.927,343.602l6.587-11.342l-6.217-23.234c0,0-7.793,2.74-12.377,6.99L305.927,343.602z"/>
<path fill="#BCC831" d="M310.174,346.021l6.396-11.452l23.154-6.505c0,0,1.618,8.1,0.303,14.211L310.174,346.021z"/>
<polygon fill="#0696A6" points="309.675,307.824 315.73,326.001 331.978,300.502 "/>
<polygon fill="#BCC831" points="338.995,324.117 320.364,327.867 334.301,301.311 "/>
<path fill="#808083" d="M287.939,378.979l10.101-4.977c0,0,1.86-0.972-0.798-3.303c0,0-2.601-3.632-8.349-4.057
	c0,0-1.406-0.185-1.347,1.405l-0.002,10.931"/>
</svg>
