<?xml version="1.0" encoding="utf-8"?>
<!-- Generator: Adobe Illustrator 16.0.0, SVG Export Plug-In . SVG Version: 6.00 Build 0)  -->
<!DOCTYPE svg PUBLIC "-//W3C//DTD SVG 1.1//EN" "http://www.w3.org/Graphics/SVG/1.1/DTD/svg11.dtd">
<svg version="1.1" id="Layer_1" xmlns="http://www.w3.org/2000/svg" xmlns:xlink="http://www.w3.org/1999/xlink" x="0px" y="0px"
	 width="612px" height="792px" viewBox="0 0 612 792" enable-background="new 0 0 612 792" xml:space="preserve">
<g>
	<polygon fill="#BCC831" points="326.008,375.399 305.944,381.303 318.667,350.848 	"/>
	<g>
		<path fill="#0696A6" d="M272.082,414.339c0,0,7.258-2.271,13.006,0.779l3.653-8.347l-15.767-32.794c0,0-7.565,10.29-7.979,20.737
			C264.996,394.714,263.586,405.3,272.082,414.339z"/>
		<path fill="#BCC831" d="M298.239,426.591c0,0-2.902-7.028-8.925-9.495l4.072-8.146l35.292-8.878c0,0-3.064,12.396-10.824,19.401
			C317.854,419.474,310.62,427.335,298.239,426.591z"/>
		<path fill="#0696A6" d="M291.631,399.944l6.129-13.07L288.709,362c0,0-8.28,3.754-12.896,8.855L291.631,399.944z"/>
		<path fill="#BCC831" d="M296.521,402.185l5.907-13.168l24.761-9.359c0,0,2.552,8.723,1.694,15.55L296.521,402.185z"/>
		<polygon fill="#0696A6" points="292.298,360.359 300.684,379.704 316.042,350.185 		"/>
		<path fill="#808083" d="M275.315,440.456l10.594-6.429c0,0,1.947-1.243-1.193-3.544c0,0-3.199-3.73-9.542-3.644
			c0,0-1.559-0.066-1.34,1.669l1.05,11.984"/>
	</g>
</g>
<path fill="#808083" d="M341.418,318.96h-86.619c-9.604,0-17.388,7.785-17.388,17.39v86.619c0,9.604,7.785,17.39,17.388,17.39
	h10.403l-1.523-4.857h-5.41c-10.715,0-15.998-4.775-15.998-15.993v-79.694c0-10.972,5.283-16.001,15.998-16.001h79.687
	c10.887,0,16.001,5.029,16.001,16.001v79.694c0,11.051-5.705,15.993-16.001,15.993h-36.498l0.956,4.857h39.004
	c9.608,0,17.395-7.786,17.395-17.39V336.35C358.813,326.745,351.026,318.96,341.418,318.96z"/>
<g>
	<path fill="#808083" d="M423.896,137.314"/>
</g>
</svg>
