<?xml version="1.0" encoding="UTF-8" standalone="no"?>
<svg width="122px" height="123px" viewBox="0 0 122 123" version="1.1" xmlns="http://www.w3.org/2000/svg" xmlns:xlink="http://www.w3.org/1999/xlink" xmlns:sketch="http://www.bohemiancoding.com/sketch/ns">
    <!-- Generator: Sketch 3.5.1 (25234) - http://www.bohemiancoding.com/sketch -->
    <title>Symbol_rectangle</title>
    <desc>Created with Sketch.</desc>
    <defs></defs>
    <g id="Page-1" stroke="none" stroke-width="1" fill="none" fill-rule="evenodd" sketch:type="MSPage">
        <g id="Symbol_rectangle" sketch:type="MSLayerGroup">
            <g id="Group" transform="translate(27.000000, 32.000000)" sketch:type="MSShapeGroup">
                <path d="M62.008,25.399 L41.944,31.303 L54.667,0.848 L62.008,25.399 Z" id="Shape" fill="#BCC831"></path>
                <g id="Shape">
                    <path d="M8.082,64.339 C8.082,64.339 15.34,62.068 21.088,65.118 L24.741,56.771 L8.974,23.977 C8.974,23.977 1.409,34.267 0.995,44.714 C0.996,44.714 -0.414,55.3 8.082,64.339 L8.082,64.339 Z" fill="#0696A6"></path>
                    <path d="M34.239,76.591 C34.239,76.591 31.337,69.563 25.314,67.096 L29.386,58.95 L64.678,50.072 C64.678,50.072 61.614,62.468 53.854,69.473 C53.854,69.474 46.62,77.335 34.239,76.591 L34.239,76.591 Z" fill="#BCC831"></path>
                    <path d="M27.631,49.944 L33.76,36.874 L24.709,12 C24.709,12 16.429,15.754 11.813,20.855 L27.631,49.944 L27.631,49.944 Z" fill="#0696A6"></path>
                    <path d="M32.521,52.185 L38.428,39.017 L63.189,29.658 C63.189,29.658 65.741,38.381 64.883,45.208 L32.521,52.185 L32.521,52.185 Z" fill="#BCC831"></path>
                    <path d="M28.298,10.359 L36.684,29.704 L52.042,0.185 L28.298,10.359 Z" fill="#0696A6"></path>
                    <path d="M11.315,90.456 L21.909,84.027 C21.909,84.027 23.856,82.784 20.716,80.483 C20.716,80.483 17.517,76.753 11.174,76.839 C11.174,76.839 9.615,76.773 9.834,78.508 L10.884,90.492" fill="#808083"></path>
                </g>
            </g>
            <path d="M104.418,0.96 L17.799,0.96 C8.195,0.96 0.411,8.745 0.411,18.35 L0.411,104.969 C0.411,114.573 8.196,122.359 17.799,122.359 L28.202,122.359 L26.679,117.502 L21.269,117.502 C10.554,117.502 5.271,112.727 5.271,101.509 L5.271,21.815 C5.271,10.843 10.554,5.814 21.269,5.814 L100.956,5.814 C111.843,5.814 116.957,10.843 116.957,21.815 L116.957,101.509 C116.957,112.56 111.252,117.502 100.956,117.502 L64.458,117.502 L65.414,122.359 L104.418,122.359 C114.026,122.359 121.813,114.573 121.813,104.969 L121.813,18.35 C121.813,8.745 114.026,0.96 104.418,0.96 L104.418,0.96 Z" id="Shape" fill="#808083" sketch:type="MSShapeGroup"></path>
        </g>
    </g>
</svg>